<?xml version="1.0" encoding="utf-8" standalone="no"?>
<!DOCTYPE svg PUBLIC "-//W3C//DTD SVG 1.1//EN"
  "http://www.w3.org/Graphics/SVG/1.1/DTD/svg11.dtd">
<svg xmlns:xlink="http://www.w3.org/1999/xlink" width="216pt" height="360pt" viewBox="0 0 216 360" xmlns="http://www.w3.org/2000/svg" version="1.1">
 <metadata>
  <rdf:RDF xmlns:dc="http://purl.org/dc/elements/1.1/" xmlns:cc="http://creativecommons.org/ns#" xmlns:rdf="http://www.w3.org/1999/02/22-rdf-syntax-ns#">
   <cc:Work>
    <dc:type rdf:resource="http://purl.org/dc/dcmitype/StillImage"/>
    <dc:date>2023-06-28T09:55:23.395515</dc:date>
    <dc:format>image/svg+xml</dc:format>
    <dc:creator>
     <cc:Agent>
      <dc:title>Matplotlib v3.5.0, https://matplotlib.org/</dc:title>
     </cc:Agent>
    </dc:creator>
   </cc:Work>
  </rdf:RDF>
 </metadata>
 <defs>
  <style type="text/css">*{stroke-linejoin: round; stroke-linecap: butt}</style>
 </defs>
 <g id="figure_1">
  <g id="patch_1">
   <path d="M 0 360 
L 216 360 
L 216 0 
L 0 0 
L 0 360 
z
" style="fill: none"/>
  </g>
  <g id="axes_1">
   <g id="patch_2">
    <path d="M 43.107427 105.002196 
L 207.54149 105.002196 
L 207.54149 18.878209 
L 43.107427 18.878209 
L 43.107427 105.002196 
z
" style="fill: none"/>
   </g>
   <g id="PathCollection_1">
    <defs>
     <path id="m34623ad182" d="M 0 3 
C 0.795609 3 1.55874 2.683901 2.12132 2.12132 
C 2.683901 1.55874 3 0.795609 3 0 
C 3 -0.795609 2.683901 -1.55874 2.12132 -2.12132 
C 1.55874 -2.683901 0.795609 -3 0 -3 
C -0.795609 -3 -1.55874 -2.683901 -2.12132 -2.12132 
C -2.683901 -1.55874 -3 -0.795609 -3 0 
C -3 0.795609 -2.683901 1.55874 -2.12132 2.12132 
C -1.55874 2.683901 -0.795609 3 0 3 
z
" style="stroke: #1f77b4"/>
    </defs>
    <g clip-path="url(#pa8ecca0325)">
     <use xlink:href="#m34623ad182" x="50.581703" y="105.002196" style="fill: #1f77b4; stroke: #1f77b4"/>
     <use xlink:href="#m34623ad182" x="65.530254" y="105.002196" style="fill: #1f77b4; stroke: #1f77b4"/>
     <use xlink:href="#m34623ad182" x="80.478805" y="105.002196" style="fill: #1f77b4; stroke: #1f77b4"/>
     <use xlink:href="#m34623ad182" x="95.427356" y="105.002196" style="fill: #1f77b4; stroke: #1f77b4"/>
     <use xlink:href="#m34623ad182" x="110.375908" y="100.760136" style="fill: #1f77b4; stroke: #1f77b4"/>
     <use xlink:href="#m34623ad182" x="125.324459" y="54.314561" style="fill: #1f77b4; stroke: #1f77b4"/>
     <use xlink:href="#m34623ad182" x="140.27301" y="43.621343" style="fill: #1f77b4; stroke: #1f77b4"/>
     <use xlink:href="#m34623ad182" x="155.221561" y="33.112172" style="fill: #1f77b4; stroke: #1f77b4"/>
     <use xlink:href="#m34623ad182" x="170.170112" y="33.112172" style="fill: #1f77b4; stroke: #1f77b4"/>
     <use xlink:href="#m34623ad182" x="185.118663" y="33.112172" style="fill: #1f77b4; stroke: #1f77b4"/>
     <use xlink:href="#m34623ad182" x="200.067214" y="33.112172" style="fill: #1f77b4; stroke: #1f77b4"/>
    </g>
   </g>
   <g id="PathCollection_2">
    <defs>
     <path id="mac29acd478" d="M 0 3 
C 0.795609 3 1.55874 2.683901 2.12132 2.12132 
C 2.683901 1.55874 3 0.795609 3 0 
C 3 -0.795609 2.683901 -1.55874 2.12132 -2.12132 
C 1.55874 -2.683901 0.795609 -3 0 -3 
C -0.795609 -3 -1.55874 -2.683901 -2.12132 -2.12132 
C -2.683901 -1.55874 -3 -0.795609 -3 0 
C -3 0.795609 -2.683901 1.55874 -2.12132 2.12132 
C -1.55874 2.683901 -0.795609 3 0 3 
z
" style="stroke: #ff7f0e"/>
    </defs>
    <g clip-path="url(#pa8ecca0325)">
     <use xlink:href="#mac29acd478" x="50.581703" y="105.002196" style="fill: #ff7f0e; stroke: #ff7f0e"/>
     <use xlink:href="#mac29acd478" x="65.530254" y="105.002196" style="fill: #ff7f0e; stroke: #ff7f0e"/>
     <use xlink:href="#mac29acd478" x="80.478805" y="105.002196" style="fill: #ff7f0e; stroke: #ff7f0e"/>
     <use xlink:href="#mac29acd478" x="95.427356" y="105.002196" style="fill: #ff7f0e; stroke: #ff7f0e"/>
     <use xlink:href="#mac29acd478" x="110.375908" y="70.423886" style="fill: #ff7f0e; stroke: #ff7f0e"/>
     <use xlink:href="#mac29acd478" x="125.324459" y="70.423886" style="fill: #ff7f0e; stroke: #ff7f0e"/>
     <use xlink:href="#mac29acd478" x="140.27301" y="70.423886" style="fill: #ff7f0e; stroke: #ff7f0e"/>
     <use xlink:href="#mac29acd478" x="155.221561" y="53.376521" style="fill: #ff7f0e; stroke: #ff7f0e"/>
     <use xlink:href="#mac29acd478" x="170.170112" y="53.376521" style="fill: #ff7f0e; stroke: #ff7f0e"/>
     <use xlink:href="#mac29acd478" x="185.118663" y="53.376521" style="fill: #ff7f0e; stroke: #ff7f0e"/>
     <use xlink:href="#mac29acd478" x="200.067214" y="53.376521" style="fill: #ff7f0e; stroke: #ff7f0e"/>
    </g>
   </g>
   <g id="PathCollection_3">
    <defs>
     <path id="m53a635dcec" d="M 0 3 
C 0.795609 3 1.55874 2.683901 2.12132 2.12132 
C 2.683901 1.55874 3 0.795609 3 0 
C 3 -0.795609 2.683901 -1.55874 2.12132 -2.12132 
C 1.55874 -2.683901 0.795609 -3 0 -3 
C -0.795609 -3 -1.55874 -2.683901 -2.12132 -2.12132 
C -2.683901 -1.55874 -3 -0.795609 -3 0 
C -3 0.795609 -2.683901 1.55874 -2.12132 2.12132 
C -1.55874 2.683901 -0.795609 3 0 3 
z
" style="stroke: #2ca02c"/>
    </defs>
    <g clip-path="url(#pa8ecca0325)">
     <use xlink:href="#m53a635dcec" x="50.581703" y="105.002196" style="fill: #2ca02c; stroke: #2ca02c"/>
     <use xlink:href="#m53a635dcec" x="65.530254" y="105.002196" style="fill: #2ca02c; stroke: #2ca02c"/>
     <use xlink:href="#m53a635dcec" x="80.478805" y="105.002196" style="fill: #2ca02c; stroke: #2ca02c"/>
     <use xlink:href="#m53a635dcec" x="95.427356" y="98.989333" style="fill: #2ca02c; stroke: #2ca02c"/>
     <use xlink:href="#m53a635dcec" x="110.375908" y="76.644734" style="fill: #2ca02c; stroke: #2ca02c"/>
     <use xlink:href="#m53a635dcec" x="125.324459" y="76.644734" style="fill: #2ca02c; stroke: #2ca02c"/>
     <use xlink:href="#m53a635dcec" x="140.27301" y="76.644734" style="fill: #2ca02c; stroke: #2ca02c"/>
     <use xlink:href="#m53a635dcec" x="155.221561" y="76.644734" style="fill: #2ca02c; stroke: #2ca02c"/>
     <use xlink:href="#m53a635dcec" x="170.170112" y="76.644734" style="fill: #2ca02c; stroke: #2ca02c"/>
     <use xlink:href="#m53a635dcec" x="185.118663" y="76.644734" style="fill: #2ca02c; stroke: #2ca02c"/>
     <use xlink:href="#m53a635dcec" x="200.067214" y="76.644734" style="fill: #2ca02c; stroke: #2ca02c"/>
    </g>
   </g>
   <g id="PathCollection_4">
    <defs>
     <path id="mbe7137ee3e" d="M 0 3 
C 0.795609 3 1.55874 2.683901 2.12132 2.12132 
C 2.683901 1.55874 3 0.795609 3 0 
C 3 -0.795609 2.683901 -1.55874 2.12132 -2.12132 
C 1.55874 -2.683901 0.795609 -3 0 -3 
C -0.795609 -3 -1.55874 -2.683901 -2.12132 -2.12132 
C -2.683901 -1.55874 -3 -0.795609 -3 0 
C -3 0.795609 -2.683901 1.55874 -2.12132 2.12132 
C -1.55874 2.683901 -0.795609 3 0 3 
z
" style="stroke: #d62728"/>
    </defs>
    <g clip-path="url(#pa8ecca0325)">
     <use xlink:href="#mbe7137ee3e" x="50.581703" y="105.002196" style="fill: #d62728; stroke: #d62728"/>
     <use xlink:href="#mbe7137ee3e" x="65.530254" y="105.002196" style="fill: #d62728; stroke: #d62728"/>
     <use xlink:href="#mbe7137ee3e" x="80.478805" y="98.238144" style="fill: #d62728; stroke: #d62728"/>
     <use xlink:href="#mbe7137ee3e" x="95.427356" y="98.238144" style="fill: #d62728; stroke: #d62728"/>
     <use xlink:href="#mbe7137ee3e" x="110.375908" y="98.238144" style="fill: #d62728; stroke: #d62728"/>
     <use xlink:href="#mbe7137ee3e" x="125.324459" y="98.238144" style="fill: #d62728; stroke: #d62728"/>
     <use xlink:href="#mbe7137ee3e" x="140.27301" y="98.238144" style="fill: #d62728; stroke: #d62728"/>
     <use xlink:href="#mbe7137ee3e" x="155.221561" y="98.238144" style="fill: #d62728; stroke: #d62728"/>
     <use xlink:href="#mbe7137ee3e" x="170.170112" y="98.238144" style="fill: #d62728; stroke: #d62728"/>
     <use xlink:href="#mbe7137ee3e" x="185.118663" y="98.238144" style="fill: #d62728; stroke: #d62728"/>
     <use xlink:href="#mbe7137ee3e" x="200.067214" y="98.238144" style="fill: #d62728; stroke: #d62728"/>
    </g>
   </g>
   <g id="matplotlib.axis_1"/>
   <g id="matplotlib.axis_2">
    <g id="ytick_1">
     <g id="line2d_1">
      <defs>
       <path id="m6b00285b54" d="M 0 0 
L -3.5 0 
" style="stroke: #000000; stroke-width: 0.8"/>
      </defs>
      <g>
       <use xlink:href="#m6b00285b54" x="43.107427" y="105.002196" style="stroke: #000000; stroke-width: 0.8"/>
      </g>
     </g>
     <g id="text_1">
      <!-- 0.0 -->
      <g transform="translate(18.61399 109.181337)scale(0.11 -0.11)">
       <defs>
        <path id="DejaVuSans-30" d="M 2034 4250 
Q 1547 4250 1301 3770 
Q 1056 3291 1056 2328 
Q 1056 1369 1301 889 
Q 1547 409 2034 409 
Q 2525 409 2770 889 
Q 3016 1369 3016 2328 
Q 3016 3291 2770 3770 
Q 2525 4250 2034 4250 
z
M 2034 4750 
Q 2819 4750 3233 4129 
Q 3647 3509 3647 2328 
Q 3647 1150 3233 529 
Q 2819 -91 2034 -91 
Q 1250 -91 836 529 
Q 422 1150 422 2328 
Q 422 3509 836 4129 
Q 1250 4750 2034 4750 
z
" transform="scale(0.015625)"/>
        <path id="DejaVuSans-2e" d="M 684 794 
L 1344 794 
L 1344 0 
L 684 0 
L 684 794 
z
" transform="scale(0.015625)"/>
       </defs>
       <use xlink:href="#DejaVuSans-30"/>
       <use xlink:href="#DejaVuSans-2e" x="63.623047"/>
       <use xlink:href="#DejaVuSans-30" x="95.410156"/>
      </g>
     </g>
    </g>
    <g id="ytick_2">
     <g id="line2d_2">
      <g>
       <use xlink:href="#m6b00285b54" x="43.107427" y="72.482717" style="stroke: #000000; stroke-width: 0.8"/>
      </g>
     </g>
     <g id="text_2">
      <!-- 2.5 -->
      <g transform="translate(18.61399 76.661857)scale(0.11 -0.11)">
       <defs>
        <path id="DejaVuSans-32" d="M 1228 531 
L 3431 531 
L 3431 0 
L 469 0 
L 469 531 
Q 828 903 1448 1529 
Q 2069 2156 2228 2338 
Q 2531 2678 2651 2914 
Q 2772 3150 2772 3378 
Q 2772 3750 2511 3984 
Q 2250 4219 1831 4219 
Q 1534 4219 1204 4116 
Q 875 4013 500 3803 
L 500 4441 
Q 881 4594 1212 4672 
Q 1544 4750 1819 4750 
Q 2544 4750 2975 4387 
Q 3406 4025 3406 3419 
Q 3406 3131 3298 2873 
Q 3191 2616 2906 2266 
Q 2828 2175 2409 1742 
Q 1991 1309 1228 531 
z
" transform="scale(0.015625)"/>
        <path id="DejaVuSans-35" d="M 691 4666 
L 3169 4666 
L 3169 4134 
L 1269 4134 
L 1269 2991 
Q 1406 3038 1543 3061 
Q 1681 3084 1819 3084 
Q 2600 3084 3056 2656 
Q 3513 2228 3513 1497 
Q 3513 744 3044 326 
Q 2575 -91 1722 -91 
Q 1428 -91 1123 -41 
Q 819 9 494 109 
L 494 744 
Q 775 591 1075 516 
Q 1375 441 1709 441 
Q 2250 441 2565 725 
Q 2881 1009 2881 1497 
Q 2881 1984 2565 2268 
Q 2250 2553 1709 2553 
Q 1456 2553 1204 2497 
Q 953 2441 691 2322 
L 691 4666 
z
" transform="scale(0.015625)"/>
       </defs>
       <use xlink:href="#DejaVuSans-32"/>
       <use xlink:href="#DejaVuSans-2e" x="63.623047"/>
       <use xlink:href="#DejaVuSans-35" x="95.410156"/>
      </g>
     </g>
    </g>
    <g id="ytick_3">
     <g id="line2d_3">
      <g>
       <use xlink:href="#m6b00285b54" x="43.107427" y="39.963237" style="stroke: #000000; stroke-width: 0.8"/>
      </g>
     </g>
     <g id="text_3">
      <!-- 5.0 -->
      <g transform="translate(18.61399 44.142378)scale(0.11 -0.11)">
       <use xlink:href="#DejaVuSans-35"/>
       <use xlink:href="#DejaVuSans-2e" x="63.623047"/>
       <use xlink:href="#DejaVuSans-30" x="95.410156"/>
      </g>
     </g>
    </g>
    <g id="text_4">
     <!-- Root value -->
     <g transform="translate(12.118365 93.830202)rotate(-90)scale(0.12 -0.12)">
      <defs>
       <path id="DejaVuSans-52" d="M 2841 2188 
Q 3044 2119 3236 1894 
Q 3428 1669 3622 1275 
L 4263 0 
L 3584 0 
L 2988 1197 
Q 2756 1666 2539 1819 
Q 2322 1972 1947 1972 
L 1259 1972 
L 1259 0 
L 628 0 
L 628 4666 
L 2053 4666 
Q 2853 4666 3247 4331 
Q 3641 3997 3641 3322 
Q 3641 2881 3436 2590 
Q 3231 2300 2841 2188 
z
M 1259 4147 
L 1259 2491 
L 2053 2491 
Q 2509 2491 2742 2702 
Q 2975 2913 2975 3322 
Q 2975 3731 2742 3939 
Q 2509 4147 2053 4147 
L 1259 4147 
z
" transform="scale(0.015625)"/>
       <path id="DejaVuSans-6f" d="M 1959 3097 
Q 1497 3097 1228 2736 
Q 959 2375 959 1747 
Q 959 1119 1226 758 
Q 1494 397 1959 397 
Q 2419 397 2687 759 
Q 2956 1122 2956 1747 
Q 2956 2369 2687 2733 
Q 2419 3097 1959 3097 
z
M 1959 3584 
Q 2709 3584 3137 3096 
Q 3566 2609 3566 1747 
Q 3566 888 3137 398 
Q 2709 -91 1959 -91 
Q 1206 -91 779 398 
Q 353 888 353 1747 
Q 353 2609 779 3096 
Q 1206 3584 1959 3584 
z
" transform="scale(0.015625)"/>
       <path id="DejaVuSans-74" d="M 1172 4494 
L 1172 3500 
L 2356 3500 
L 2356 3053 
L 1172 3053 
L 1172 1153 
Q 1172 725 1289 603 
Q 1406 481 1766 481 
L 2356 481 
L 2356 0 
L 1766 0 
Q 1100 0 847 248 
Q 594 497 594 1153 
L 594 3053 
L 172 3053 
L 172 3500 
L 594 3500 
L 594 4494 
L 1172 4494 
z
" transform="scale(0.015625)"/>
       <path id="DejaVuSans-20" transform="scale(0.015625)"/>
       <path id="DejaVuSans-76" d="M 191 3500 
L 800 3500 
L 1894 563 
L 2988 3500 
L 3597 3500 
L 2284 0 
L 1503 0 
L 191 3500 
z
" transform="scale(0.015625)"/>
       <path id="DejaVuSans-61" d="M 2194 1759 
Q 1497 1759 1228 1600 
Q 959 1441 959 1056 
Q 959 750 1161 570 
Q 1363 391 1709 391 
Q 2188 391 2477 730 
Q 2766 1069 2766 1631 
L 2766 1759 
L 2194 1759 
z
M 3341 1997 
L 3341 0 
L 2766 0 
L 2766 531 
Q 2569 213 2275 61 
Q 1981 -91 1556 -91 
Q 1019 -91 701 211 
Q 384 513 384 1019 
Q 384 1609 779 1909 
Q 1175 2209 1959 2209 
L 2766 2209 
L 2766 2266 
Q 2766 2663 2505 2880 
Q 2244 3097 1772 3097 
Q 1472 3097 1187 3025 
Q 903 2953 641 2809 
L 641 3341 
Q 956 3463 1253 3523 
Q 1550 3584 1831 3584 
Q 2591 3584 2966 3190 
Q 3341 2797 3341 1997 
z
" transform="scale(0.015625)"/>
       <path id="DejaVuSans-6c" d="M 603 4863 
L 1178 4863 
L 1178 0 
L 603 0 
L 603 4863 
z
" transform="scale(0.015625)"/>
       <path id="DejaVuSans-75" d="M 544 1381 
L 544 3500 
L 1119 3500 
L 1119 1403 
Q 1119 906 1312 657 
Q 1506 409 1894 409 
Q 2359 409 2629 706 
Q 2900 1003 2900 1516 
L 2900 3500 
L 3475 3500 
L 3475 0 
L 2900 0 
L 2900 538 
Q 2691 219 2414 64 
Q 2138 -91 1772 -91 
Q 1169 -91 856 284 
Q 544 659 544 1381 
z
M 1991 3584 
L 1991 3584 
z
" transform="scale(0.015625)"/>
       <path id="DejaVuSans-65" d="M 3597 1894 
L 3597 1613 
L 953 1613 
Q 991 1019 1311 708 
Q 1631 397 2203 397 
Q 2534 397 2845 478 
Q 3156 559 3463 722 
L 3463 178 
Q 3153 47 2828 -22 
Q 2503 -91 2169 -91 
Q 1331 -91 842 396 
Q 353 884 353 1716 
Q 353 2575 817 3079 
Q 1281 3584 2069 3584 
Q 2775 3584 3186 3129 
Q 3597 2675 3597 1894 
z
M 3022 2063 
Q 3016 2534 2758 2815 
Q 2500 3097 2075 3097 
Q 1594 3097 1305 2825 
Q 1016 2553 972 2059 
L 3022 2063 
z
" transform="scale(0.015625)"/>
      </defs>
      <use xlink:href="#DejaVuSans-52"/>
      <use xlink:href="#DejaVuSans-6f" x="64.982422"/>
      <use xlink:href="#DejaVuSans-6f" x="126.164062"/>
      <use xlink:href="#DejaVuSans-74" x="187.345703"/>
      <use xlink:href="#DejaVuSans-20" x="226.554688"/>
      <use xlink:href="#DejaVuSans-76" x="258.341797"/>
      <use xlink:href="#DejaVuSans-61" x="317.521484"/>
      <use xlink:href="#DejaVuSans-6c" x="378.800781"/>
      <use xlink:href="#DejaVuSans-75" x="406.583984"/>
      <use xlink:href="#DejaVuSans-65" x="469.962891"/>
     </g>
    </g>
   </g>
   <g id="line2d_4">
    <path d="M 50.581703 105.002196 
L 65.530254 105.002196 
L 80.478805 105.002196 
L 95.427356 105.002196 
L 110.375908 100.760136 
L 125.324459 54.314561 
L 140.27301 43.621343 
L 155.221561 33.112172 
L 170.170112 33.112172 
L 185.118663 33.112172 
L 200.067214 33.112172 
" clip-path="url(#pa8ecca0325)" style="fill: none; stroke: #1f77b4; stroke-width: 1.5; stroke-linecap: square"/>
   </g>
   <g id="line2d_5">
    <path d="M 50.581703 105.002196 
L 65.530254 105.002196 
L 80.478805 105.002196 
L 95.427356 105.002196 
L 110.375908 70.423886 
L 125.324459 70.423886 
L 140.27301 70.423886 
L 155.221561 53.376521 
L 170.170112 53.376521 
L 185.118663 53.376521 
L 200.067214 53.376521 
" clip-path="url(#pa8ecca0325)" style="fill: none; stroke: #ff7f0e; stroke-width: 1.5; stroke-linecap: square"/>
   </g>
   <g id="line2d_6">
    <path d="M 50.581703 105.002196 
L 65.530254 105.002196 
L 80.478805 105.002196 
L 95.427356 98.989333 
L 110.375908 76.644734 
L 125.324459 76.644734 
L 140.27301 76.644734 
L 155.221561 76.644734 
L 170.170112 76.644734 
L 185.118663 76.644734 
L 200.067214 76.644734 
" clip-path="url(#pa8ecca0325)" style="fill: none; stroke: #2ca02c; stroke-width: 1.5; stroke-linecap: square"/>
   </g>
   <g id="line2d_7">
    <path d="M 50.581703 105.002196 
L 65.530254 105.002196 
L 80.478805 98.238144 
L 95.427356 98.238144 
L 110.375908 98.238144 
L 125.324459 98.238144 
L 140.27301 98.238144 
L 155.221561 98.238144 
L 170.170112 98.238144 
L 185.118663 98.238144 
L 200.067214 98.238144 
" clip-path="url(#pa8ecca0325)" style="fill: none; stroke: #d62728; stroke-width: 1.5; stroke-linecap: square"/>
   </g>
   <g id="line2d_8">
    <path d="M 43.107427 31.886001 
L 207.54149 31.886001 
" clip-path="url(#pa8ecca0325)" style="fill: none; stroke-dasharray: 5.55,2.4; stroke-dashoffset: 0; stroke: #000000; stroke-opacity: 0.7; stroke-width: 1.5"/>
   </g>
   <g id="line2d_9">
    <path d="M 43.107427 37.361679 
L 207.54149 37.361679 
" clip-path="url(#pa8ecca0325)" style="fill: none; stroke-dasharray: 5.55,2.4; stroke-dashoffset: 0; stroke: #ff0000; stroke-opacity: 0.7; stroke-width: 1.5"/>
   </g>
   <g id="patch_3">
    <path d="M 43.107427 105.002196 
L 43.107427 18.878209 
" style="fill: none; stroke: #000000; stroke-width: 0.8; stroke-linejoin: miter; stroke-linecap: square"/>
   </g>
   <g id="patch_4">
    <path d="M 207.54149 105.002196 
L 207.54149 18.878209 
" style="fill: none; stroke: #000000; stroke-width: 0.8; stroke-linejoin: miter; stroke-linecap: square"/>
   </g>
   <g id="patch_5">
    <path d="M 43.107427 105.002196 
L 207.54149 105.002196 
" style="fill: none; stroke: #000000; stroke-width: 0.8; stroke-linejoin: miter; stroke-linecap: square"/>
   </g>
   <g id="patch_6">
    <path d="M 43.107427 18.878209 
L 207.54149 18.878209 
" style="fill: none; stroke: #000000; stroke-width: 0.8; stroke-linejoin: miter; stroke-linecap: square"/>
   </g>
   <g id="text_5">
    <!-- Horizon 5 -->
    <g transform="translate(94.271724 12.878209)scale(0.13 -0.13)">
     <defs>
      <path id="DejaVuSans-48" d="M 628 4666 
L 1259 4666 
L 1259 2753 
L 3553 2753 
L 3553 4666 
L 4184 4666 
L 4184 0 
L 3553 0 
L 3553 2222 
L 1259 2222 
L 1259 0 
L 628 0 
L 628 4666 
z
" transform="scale(0.015625)"/>
      <path id="DejaVuSans-72" d="M 2631 2963 
Q 2534 3019 2420 3045 
Q 2306 3072 2169 3072 
Q 1681 3072 1420 2755 
Q 1159 2438 1159 1844 
L 1159 0 
L 581 0 
L 581 3500 
L 1159 3500 
L 1159 2956 
Q 1341 3275 1631 3429 
Q 1922 3584 2338 3584 
Q 2397 3584 2469 3576 
Q 2541 3569 2628 3553 
L 2631 2963 
z
" transform="scale(0.015625)"/>
      <path id="DejaVuSans-69" d="M 603 3500 
L 1178 3500 
L 1178 0 
L 603 0 
L 603 3500 
z
M 603 4863 
L 1178 4863 
L 1178 4134 
L 603 4134 
L 603 4863 
z
" transform="scale(0.015625)"/>
      <path id="DejaVuSans-7a" d="M 353 3500 
L 3084 3500 
L 3084 2975 
L 922 459 
L 3084 459 
L 3084 0 
L 275 0 
L 275 525 
L 2438 3041 
L 353 3041 
L 353 3500 
z
" transform="scale(0.015625)"/>
      <path id="DejaVuSans-6e" d="M 3513 2113 
L 3513 0 
L 2938 0 
L 2938 2094 
Q 2938 2591 2744 2837 
Q 2550 3084 2163 3084 
Q 1697 3084 1428 2787 
Q 1159 2491 1159 1978 
L 1159 0 
L 581 0 
L 581 3500 
L 1159 3500 
L 1159 2956 
Q 1366 3272 1645 3428 
Q 1925 3584 2291 3584 
Q 2894 3584 3203 3211 
Q 3513 2838 3513 2113 
z
" transform="scale(0.015625)"/>
     </defs>
     <use xlink:href="#DejaVuSans-48"/>
     <use xlink:href="#DejaVuSans-6f" x="75.195312"/>
     <use xlink:href="#DejaVuSans-72" x="136.376953"/>
     <use xlink:href="#DejaVuSans-69" x="177.490234"/>
     <use xlink:href="#DejaVuSans-7a" x="205.273438"/>
     <use xlink:href="#DejaVuSans-6f" x="257.763672"/>
     <use xlink:href="#DejaVuSans-6e" x="318.945312"/>
     <use xlink:href="#DejaVuSans-20" x="382.324219"/>
     <use xlink:href="#DejaVuSans-35" x="414.111328"/>
    </g>
   </g>
   <g id="legend_1">
    <g id="patch_7">
     <path d="M 49.407427 100.502196 
L 118.753834 100.502196 
Q 120.553834 100.502196 120.553834 98.702196 
L 120.553834 20.011258 
Q 120.553834 18.211258 118.753834 18.211258 
L 49.407427 18.211258 
Q 47.607427 18.211258 47.607427 20.011258 
L 47.607427 98.702196 
Q 47.607427 100.502196 49.407427 100.502196 
z
" style="fill: #ffffff; opacity: 0.8; stroke: #cccccc; stroke-linejoin: miter"/>
    </g>
    <g id="line2d_10">
     <path d="M 51.207427 25.591258 
L 60.207427 25.591258 
L 69.207427 25.591258 
" style="fill: none; stroke: #1f77b4; stroke-width: 1.5; stroke-linecap: square"/>
    </g>
    <g id="text_6">
     <!-- $\beta=$1 -->
     <g transform="translate(76.407427 28.741258)scale(0.09 -0.09)">
      <defs>
       <path id="DejaVuSans-Oblique-3b2" d="M 872 216 
L 572 -1331 
L -6 -1331 
L 928 3478 
Q 1206 4903 2538 4903 
Q 3888 4903 3659 3700 
Q 3503 2844 2894 2531 
Q 3713 2250 3553 1416 
Q 3272 -69 1759 -66 
Q 1097 -63 872 216 
z
M 1019 966 
Q 1259 422 1875 425 
Q 2775 425 2966 1406 
Q 3138 2288 1675 2219 
L 1778 2750 
Q 2909 2731 3106 3750 
Q 3241 4438 2509 4434 
Q 1691 4434 1503 3459 
L 1019 966 
z
" transform="scale(0.015625)"/>
       <path id="DejaVuSans-3d" d="M 678 2906 
L 4684 2906 
L 4684 2381 
L 678 2381 
L 678 2906 
z
M 678 1631 
L 4684 1631 
L 4684 1100 
L 678 1100 
L 678 1631 
z
" transform="scale(0.015625)"/>
       <path id="DejaVuSans-31" d="M 794 531 
L 1825 531 
L 1825 4091 
L 703 3866 
L 703 4441 
L 1819 4666 
L 2450 4666 
L 2450 531 
L 3481 531 
L 3481 0 
L 794 0 
L 794 531 
z
" transform="scale(0.015625)"/>
      </defs>
      <use xlink:href="#DejaVuSans-Oblique-3b2" transform="translate(0 0.390625)"/>
      <use xlink:href="#DejaVuSans-3d" transform="translate(83.300781 0.390625)"/>
      <use xlink:href="#DejaVuSans-31" transform="translate(186.572266 0.390625)"/>
     </g>
    </g>
    <g id="line2d_11">
     <path d="M 51.207427 38.911258 
L 60.207427 38.911258 
L 69.207427 38.911258 
" style="fill: none; stroke: #ff7f0e; stroke-width: 1.5; stroke-linecap: square"/>
    </g>
    <g id="text_7">
     <!-- $\beta=$2 -->
     <g transform="translate(76.407427 42.061258)scale(0.09 -0.09)">
      <use xlink:href="#DejaVuSans-Oblique-3b2" transform="translate(0 0.390625)"/>
      <use xlink:href="#DejaVuSans-3d" transform="translate(83.300781 0.390625)"/>
      <use xlink:href="#DejaVuSans-32" transform="translate(186.572266 0.390625)"/>
     </g>
    </g>
    <g id="line2d_12">
     <path d="M 51.207427 52.231258 
L 60.207427 52.231258 
L 69.207427 52.231258 
" style="fill: none; stroke: #2ca02c; stroke-width: 1.5; stroke-linecap: square"/>
    </g>
    <g id="text_8">
     <!-- $\beta=$4 -->
     <g transform="translate(76.407427 55.381258)scale(0.09 -0.09)">
      <defs>
       <path id="DejaVuSans-34" d="M 2419 4116 
L 825 1625 
L 2419 1625 
L 2419 4116 
z
M 2253 4666 
L 3047 4666 
L 3047 1625 
L 3713 1625 
L 3713 1100 
L 3047 1100 
L 3047 0 
L 2419 0 
L 2419 1100 
L 313 1100 
L 313 1709 
L 2253 4666 
z
" transform="scale(0.015625)"/>
      </defs>
      <use xlink:href="#DejaVuSans-Oblique-3b2" transform="translate(0 0.390625)"/>
      <use xlink:href="#DejaVuSans-3d" transform="translate(83.300781 0.390625)"/>
      <use xlink:href="#DejaVuSans-34" transform="translate(186.572266 0.390625)"/>
     </g>
    </g>
    <g id="line2d_13">
     <path d="M 51.207427 65.459852 
L 60.207427 65.459852 
L 69.207427 65.459852 
" style="fill: none; stroke: #d62728; stroke-width: 1.5; stroke-linecap: square"/>
    </g>
    <g id="text_9">
     <!-- greedy -->
     <g transform="translate(76.407427 68.609852)scale(0.09 -0.09)">
      <defs>
       <path id="DejaVuSans-67" d="M 2906 1791 
Q 2906 2416 2648 2759 
Q 2391 3103 1925 3103 
Q 1463 3103 1205 2759 
Q 947 2416 947 1791 
Q 947 1169 1205 825 
Q 1463 481 1925 481 
Q 2391 481 2648 825 
Q 2906 1169 2906 1791 
z
M 3481 434 
Q 3481 -459 3084 -895 
Q 2688 -1331 1869 -1331 
Q 1566 -1331 1297 -1286 
Q 1028 -1241 775 -1147 
L 775 -588 
Q 1028 -725 1275 -790 
Q 1522 -856 1778 -856 
Q 2344 -856 2625 -561 
Q 2906 -266 2906 331 
L 2906 616 
Q 2728 306 2450 153 
Q 2172 0 1784 0 
Q 1141 0 747 490 
Q 353 981 353 1791 
Q 353 2603 747 3093 
Q 1141 3584 1784 3584 
Q 2172 3584 2450 3431 
Q 2728 3278 2906 2969 
L 2906 3500 
L 3481 3500 
L 3481 434 
z
" transform="scale(0.015625)"/>
       <path id="DejaVuSans-64" d="M 2906 2969 
L 2906 4863 
L 3481 4863 
L 3481 0 
L 2906 0 
L 2906 525 
Q 2725 213 2448 61 
Q 2172 -91 1784 -91 
Q 1150 -91 751 415 
Q 353 922 353 1747 
Q 353 2572 751 3078 
Q 1150 3584 1784 3584 
Q 2172 3584 2448 3432 
Q 2725 3281 2906 2969 
z
M 947 1747 
Q 947 1113 1208 752 
Q 1469 391 1925 391 
Q 2381 391 2643 752 
Q 2906 1113 2906 1747 
Q 2906 2381 2643 2742 
Q 2381 3103 1925 3103 
Q 1469 3103 1208 2742 
Q 947 2381 947 1747 
z
" transform="scale(0.015625)"/>
       <path id="DejaVuSans-79" d="M 2059 -325 
Q 1816 -950 1584 -1140 
Q 1353 -1331 966 -1331 
L 506 -1331 
L 506 -850 
L 844 -850 
Q 1081 -850 1212 -737 
Q 1344 -625 1503 -206 
L 1606 56 
L 191 3500 
L 800 3500 
L 1894 763 
L 2988 3500 
L 3597 3500 
L 2059 -325 
z
" transform="scale(0.015625)"/>
      </defs>
      <use xlink:href="#DejaVuSans-67"/>
      <use xlink:href="#DejaVuSans-72" x="63.476562"/>
      <use xlink:href="#DejaVuSans-65" x="102.339844"/>
      <use xlink:href="#DejaVuSans-65" x="163.863281"/>
      <use xlink:href="#DejaVuSans-64" x="225.386719"/>
      <use xlink:href="#DejaVuSans-79" x="288.863281"/>
     </g>
    </g>
    <g id="line2d_14">
     <path d="M 51.207427 78.670165 
L 60.207427 78.670165 
L 69.207427 78.670165 
" style="fill: none; stroke-dasharray: 5.55,2.4; stroke-dashoffset: 0; stroke: #000000; stroke-opacity: 0.7; stroke-width: 1.5"/>
    </g>
    <g id="text_10">
     <!-- BO value -->
     <g transform="translate(76.407427 81.820165)scale(0.09 -0.09)">
      <defs>
       <path id="DejaVuSans-42" d="M 1259 2228 
L 1259 519 
L 2272 519 
Q 2781 519 3026 730 
Q 3272 941 3272 1375 
Q 3272 1813 3026 2020 
Q 2781 2228 2272 2228 
L 1259 2228 
z
M 1259 4147 
L 1259 2741 
L 2194 2741 
Q 2656 2741 2882 2914 
Q 3109 3088 3109 3444 
Q 3109 3797 2882 3972 
Q 2656 4147 2194 4147 
L 1259 4147 
z
M 628 4666 
L 2241 4666 
Q 2963 4666 3353 4366 
Q 3744 4066 3744 3513 
Q 3744 3084 3544 2831 
Q 3344 2578 2956 2516 
Q 3422 2416 3680 2098 
Q 3938 1781 3938 1306 
Q 3938 681 3513 340 
Q 3088 0 2303 0 
L 628 0 
L 628 4666 
z
" transform="scale(0.015625)"/>
       <path id="DejaVuSans-4f" d="M 2522 4238 
Q 1834 4238 1429 3725 
Q 1025 3213 1025 2328 
Q 1025 1447 1429 934 
Q 1834 422 2522 422 
Q 3209 422 3611 934 
Q 4013 1447 4013 2328 
Q 4013 3213 3611 3725 
Q 3209 4238 2522 4238 
z
M 2522 4750 
Q 3503 4750 4090 4092 
Q 4678 3434 4678 2328 
Q 4678 1225 4090 567 
Q 3503 -91 2522 -91 
Q 1538 -91 948 565 
Q 359 1222 359 2328 
Q 359 3434 948 4092 
Q 1538 4750 2522 4750 
z
" transform="scale(0.015625)"/>
      </defs>
      <use xlink:href="#DejaVuSans-42"/>
      <use xlink:href="#DejaVuSans-4f" x="66.853516"/>
      <use xlink:href="#DejaVuSans-20" x="145.564453"/>
      <use xlink:href="#DejaVuSans-76" x="177.351562"/>
      <use xlink:href="#DejaVuSans-61" x="236.53125"/>
      <use xlink:href="#DejaVuSans-6c" x="297.810547"/>
      <use xlink:href="#DejaVuSans-75" x="325.59375"/>
      <use xlink:href="#DejaVuSans-65" x="388.972656"/>
     </g>
    </g>
    <g id="line2d_15">
     <path d="M 51.207427 91.880477 
L 60.207427 91.880477 
L 69.207427 91.880477 
" style="fill: none; stroke-dasharray: 5.55,2.4; stroke-dashoffset: 0; stroke: #ff0000; stroke-opacity: 0.7; stroke-width: 1.5"/>
    </g>
    <g id="text_11">
     <!-- CE value -->
     <g transform="translate(76.407427 95.030477)scale(0.09 -0.09)">
      <defs>
       <path id="DejaVuSans-43" d="M 4122 4306 
L 4122 3641 
Q 3803 3938 3442 4084 
Q 3081 4231 2675 4231 
Q 1875 4231 1450 3742 
Q 1025 3253 1025 2328 
Q 1025 1406 1450 917 
Q 1875 428 2675 428 
Q 3081 428 3442 575 
Q 3803 722 4122 1019 
L 4122 359 
Q 3791 134 3420 21 
Q 3050 -91 2638 -91 
Q 1578 -91 968 557 
Q 359 1206 359 2328 
Q 359 3453 968 4101 
Q 1578 4750 2638 4750 
Q 3056 4750 3426 4639 
Q 3797 4528 4122 4306 
z
" transform="scale(0.015625)"/>
       <path id="DejaVuSans-45" d="M 628 4666 
L 3578 4666 
L 3578 4134 
L 1259 4134 
L 1259 2753 
L 3481 2753 
L 3481 2222 
L 1259 2222 
L 1259 531 
L 3634 531 
L 3634 0 
L 628 0 
L 628 4666 
z
" transform="scale(0.015625)"/>
      </defs>
      <use xlink:href="#DejaVuSans-43"/>
      <use xlink:href="#DejaVuSans-45" x="69.824219"/>
      <use xlink:href="#DejaVuSans-20" x="133.007812"/>
      <use xlink:href="#DejaVuSans-76" x="164.794922"/>
      <use xlink:href="#DejaVuSans-61" x="223.974609"/>
      <use xlink:href="#DejaVuSans-6c" x="285.253906"/>
      <use xlink:href="#DejaVuSans-75" x="313.037109"/>
      <use xlink:href="#DejaVuSans-65" x="376.416016"/>
     </g>
    </g>
   </g>
  </g>
  <g id="axes_2">
   <g id="patch_8">
    <path d="M 43.107427 203.59346 
L 207.54149 203.59346 
L 207.54149 117.469473 
L 43.107427 117.469473 
L 43.107427 203.59346 
z
" style="fill: none"/>
   </g>
   <g id="PathCollection_5">
    <g clip-path="url(#p7b67d43d2b)">
     <use xlink:href="#m34623ad182" x="50.581703" y="163.517132" style="fill: #1f77b4; stroke: #1f77b4"/>
     <use xlink:href="#m34623ad182" x="65.530254" y="163.517132" style="fill: #1f77b4; stroke: #1f77b4"/>
     <use xlink:href="#m34623ad182" x="80.478805" y="163.517132" style="fill: #1f77b4; stroke: #1f77b4"/>
     <use xlink:href="#m34623ad182" x="95.427356" y="163.517132" style="fill: #1f77b4; stroke: #1f77b4"/>
     <use xlink:href="#m34623ad182" x="110.375908" y="163.827271" style="fill: #1f77b4; stroke: #1f77b4"/>
     <use xlink:href="#m34623ad182" x="125.324459" y="159.295532" style="fill: #1f77b4; stroke: #1f77b4"/>
     <use xlink:href="#m34623ad182" x="140.27301" y="159.143193" style="fill: #1f77b4; stroke: #1f77b4"/>
     <use xlink:href="#m34623ad182" x="155.221561" y="159.056036" style="fill: #1f77b4; stroke: #1f77b4"/>
     <use xlink:href="#m34623ad182" x="170.170112" y="159.056036" style="fill: #1f77b4; stroke: #1f77b4"/>
     <use xlink:href="#m34623ad182" x="185.118663" y="159.056036" style="fill: #1f77b4; stroke: #1f77b4"/>
     <use xlink:href="#m34623ad182" x="200.067214" y="158.681419" style="fill: #1f77b4; stroke: #1f77b4"/>
    </g>
   </g>
   <g id="PathCollection_6">
    <g clip-path="url(#p7b67d43d2b)">
     <use xlink:href="#mac29acd478" x="50.581703" y="158.745223" style="fill: #ff7f0e; stroke: #ff7f0e"/>
     <use xlink:href="#mac29acd478" x="65.530254" y="158.745223" style="fill: #ff7f0e; stroke: #ff7f0e"/>
     <use xlink:href="#mac29acd478" x="80.478805" y="158.745223" style="fill: #ff7f0e; stroke: #ff7f0e"/>
     <use xlink:href="#mac29acd478" x="95.427356" y="158.745223" style="fill: #ff7f0e; stroke: #ff7f0e"/>
     <use xlink:href="#mac29acd478" x="110.375908" y="153.610784" style="fill: #ff7f0e; stroke: #ff7f0e"/>
     <use xlink:href="#mac29acd478" x="125.324459" y="153.610784" style="fill: #ff7f0e; stroke: #ff7f0e"/>
     <use xlink:href="#mac29acd478" x="140.27301" y="153.610784" style="fill: #ff7f0e; stroke: #ff7f0e"/>
     <use xlink:href="#mac29acd478" x="155.221561" y="153.525044" style="fill: #ff7f0e; stroke: #ff7f0e"/>
     <use xlink:href="#mac29acd478" x="170.170112" y="153.525044" style="fill: #ff7f0e; stroke: #ff7f0e"/>
     <use xlink:href="#mac29acd478" x="185.118663" y="153.525044" style="fill: #ff7f0e; stroke: #ff7f0e"/>
     <use xlink:href="#mac29acd478" x="200.067214" y="153.524505" style="fill: #ff7f0e; stroke: #ff7f0e"/>
    </g>
   </g>
   <g id="PathCollection_7">
    <g clip-path="url(#p7b67d43d2b)">
     <use xlink:href="#m53a635dcec" x="50.581703" y="156.460602" style="fill: #2ca02c; stroke: #2ca02c"/>
     <use xlink:href="#m53a635dcec" x="65.530254" y="156.460602" style="fill: #2ca02c; stroke: #2ca02c"/>
     <use xlink:href="#m53a635dcec" x="80.478805" y="156.460602" style="fill: #2ca02c; stroke: #2ca02c"/>
     <use xlink:href="#m53a635dcec" x="95.427356" y="157.506337" style="fill: #2ca02c; stroke: #2ca02c"/>
     <use xlink:href="#m53a635dcec" x="110.375908" y="152.671859" style="fill: #2ca02c; stroke: #2ca02c"/>
     <use xlink:href="#m53a635dcec" x="125.324459" y="152.671859" style="fill: #2ca02c; stroke: #2ca02c"/>
     <use xlink:href="#m53a635dcec" x="140.27301" y="152.671859" style="fill: #2ca02c; stroke: #2ca02c"/>
     <use xlink:href="#m53a635dcec" x="155.221561" y="152.671859" style="fill: #2ca02c; stroke: #2ca02c"/>
     <use xlink:href="#m53a635dcec" x="170.170112" y="152.671859" style="fill: #2ca02c; stroke: #2ca02c"/>
     <use xlink:href="#m53a635dcec" x="185.118663" y="152.671859" style="fill: #2ca02c; stroke: #2ca02c"/>
     <use xlink:href="#m53a635dcec" x="200.067214" y="152.671859" style="fill: #2ca02c; stroke: #2ca02c"/>
    </g>
   </g>
   <g id="PathCollection_8">
    <g clip-path="url(#p7b67d43d2b)">
     <use xlink:href="#mbe7137ee3e" x="50.581703" y="155.461526" style="fill: #d62728; stroke: #d62728"/>
     <use xlink:href="#mbe7137ee3e" x="65.530254" y="155.461526" style="fill: #d62728; stroke: #d62728"/>
     <use xlink:href="#mbe7137ee3e" x="80.478805" y="156.723707" style="fill: #d62728; stroke: #d62728"/>
     <use xlink:href="#mbe7137ee3e" x="95.427356" y="155.645368" style="fill: #d62728; stroke: #d62728"/>
     <use xlink:href="#mbe7137ee3e" x="110.375908" y="154.052974" style="fill: #d62728; stroke: #d62728"/>
     <use xlink:href="#mbe7137ee3e" x="125.324459" y="154.052974" style="fill: #d62728; stroke: #d62728"/>
     <use xlink:href="#mbe7137ee3e" x="140.27301" y="154.052974" style="fill: #d62728; stroke: #d62728"/>
     <use xlink:href="#mbe7137ee3e" x="155.221561" y="154.052974" style="fill: #d62728; stroke: #d62728"/>
     <use xlink:href="#mbe7137ee3e" x="170.170112" y="154.052974" style="fill: #d62728; stroke: #d62728"/>
     <use xlink:href="#mbe7137ee3e" x="185.118663" y="154.052974" style="fill: #d62728; stroke: #d62728"/>
     <use xlink:href="#mbe7137ee3e" x="200.067214" y="154.052974" style="fill: #d62728; stroke: #d62728"/>
    </g>
   </g>
   <g id="matplotlib.axis_3"/>
   <g id="matplotlib.axis_4">
    <g id="ytick_4">
     <g id="line2d_16">
      <g>
       <use xlink:href="#m6b00285b54" x="43.107427" y="181.830142" style="stroke: #000000; stroke-width: 0.8"/>
      </g>
     </g>
     <g id="text_12">
      <!-- 5.0 -->
      <g transform="translate(18.61399 186.009282)scale(0.11 -0.11)">
       <use xlink:href="#DejaVuSans-35"/>
       <use xlink:href="#DejaVuSans-2e" x="63.623047"/>
       <use xlink:href="#DejaVuSans-30" x="95.410156"/>
      </g>
     </g>
    </g>
    <g id="ytick_5">
     <g id="line2d_17">
      <g>
       <use xlink:href="#m6b00285b54" x="43.107427" y="153.122146" style="stroke: #000000; stroke-width: 0.8"/>
      </g>
     </g>
     <g id="text_13">
      <!-- 5.5 -->
      <g transform="translate(18.61399 157.301287)scale(0.11 -0.11)">
       <use xlink:href="#DejaVuSans-35"/>
       <use xlink:href="#DejaVuSans-2e" x="63.623047"/>
       <use xlink:href="#DejaVuSans-35" x="95.410156"/>
      </g>
     </g>
    </g>
    <g id="ytick_6">
     <g id="line2d_18">
      <g>
       <use xlink:href="#m6b00285b54" x="43.107427" y="124.41415" style="stroke: #000000; stroke-width: 0.8"/>
      </g>
     </g>
     <g id="text_14">
      <!-- 6.0 -->
      <g transform="translate(18.61399 128.593291)scale(0.11 -0.11)">
       <defs>
        <path id="DejaVuSans-36" d="M 2113 2584 
Q 1688 2584 1439 2293 
Q 1191 2003 1191 1497 
Q 1191 994 1439 701 
Q 1688 409 2113 409 
Q 2538 409 2786 701 
Q 3034 994 3034 1497 
Q 3034 2003 2786 2293 
Q 2538 2584 2113 2584 
z
M 3366 4563 
L 3366 3988 
Q 3128 4100 2886 4159 
Q 2644 4219 2406 4219 
Q 1781 4219 1451 3797 
Q 1122 3375 1075 2522 
Q 1259 2794 1537 2939 
Q 1816 3084 2150 3084 
Q 2853 3084 3261 2657 
Q 3669 2231 3669 1497 
Q 3669 778 3244 343 
Q 2819 -91 2113 -91 
Q 1303 -91 875 529 
Q 447 1150 447 2328 
Q 447 3434 972 4092 
Q 1497 4750 2381 4750 
Q 2619 4750 2861 4703 
Q 3103 4656 3366 4563 
z
" transform="scale(0.015625)"/>
       </defs>
       <use xlink:href="#DejaVuSans-36"/>
       <use xlink:href="#DejaVuSans-2e" x="63.623047"/>
       <use xlink:href="#DejaVuSans-30" x="95.410156"/>
      </g>
     </g>
    </g>
    <g id="text_15">
     <!-- Policy value -->
     <g transform="translate(12.118365 196.083341)rotate(-90)scale(0.12 -0.12)">
      <defs>
       <path id="DejaVuSans-50" d="M 1259 4147 
L 1259 2394 
L 2053 2394 
Q 2494 2394 2734 2622 
Q 2975 2850 2975 3272 
Q 2975 3691 2734 3919 
Q 2494 4147 2053 4147 
L 1259 4147 
z
M 628 4666 
L 2053 4666 
Q 2838 4666 3239 4311 
Q 3641 3956 3641 3272 
Q 3641 2581 3239 2228 
Q 2838 1875 2053 1875 
L 1259 1875 
L 1259 0 
L 628 0 
L 628 4666 
z
" transform="scale(0.015625)"/>
       <path id="DejaVuSans-63" d="M 3122 3366 
L 3122 2828 
Q 2878 2963 2633 3030 
Q 2388 3097 2138 3097 
Q 1578 3097 1268 2742 
Q 959 2388 959 1747 
Q 959 1106 1268 751 
Q 1578 397 2138 397 
Q 2388 397 2633 464 
Q 2878 531 3122 666 
L 3122 134 
Q 2881 22 2623 -34 
Q 2366 -91 2075 -91 
Q 1284 -91 818 406 
Q 353 903 353 1747 
Q 353 2603 823 3093 
Q 1294 3584 2113 3584 
Q 2378 3584 2631 3529 
Q 2884 3475 3122 3366 
z
" transform="scale(0.015625)"/>
      </defs>
      <use xlink:href="#DejaVuSans-50"/>
      <use xlink:href="#DejaVuSans-6f" x="56.677734"/>
      <use xlink:href="#DejaVuSans-6c" x="117.859375"/>
      <use xlink:href="#DejaVuSans-69" x="145.642578"/>
      <use xlink:href="#DejaVuSans-63" x="173.425781"/>
      <use xlink:href="#DejaVuSans-79" x="228.40625"/>
      <use xlink:href="#DejaVuSans-20" x="287.585938"/>
      <use xlink:href="#DejaVuSans-76" x="319.373047"/>
      <use xlink:href="#DejaVuSans-61" x="378.552734"/>
      <use xlink:href="#DejaVuSans-6c" x="439.832031"/>
      <use xlink:href="#DejaVuSans-75" x="467.615234"/>
      <use xlink:href="#DejaVuSans-65" x="530.994141"/>
     </g>
    </g>
   </g>
   <g id="line2d_19">
    <path d="M 50.581703 163.517132 
L 65.530254 163.517132 
L 80.478805 163.517132 
L 95.427356 163.517132 
L 110.375908 163.827271 
L 125.324459 159.295532 
L 140.27301 159.143193 
L 155.221561 159.056036 
L 170.170112 159.056036 
L 185.118663 159.056036 
L 200.067214 158.681419 
" clip-path="url(#p7b67d43d2b)" style="fill: none; stroke: #1f77b4; stroke-width: 1.5; stroke-linecap: square"/>
   </g>
   <g id="line2d_20">
    <path d="M 50.581703 158.745223 
L 65.530254 158.745223 
L 80.478805 158.745223 
L 95.427356 158.745223 
L 110.375908 153.610784 
L 125.324459 153.610784 
L 140.27301 153.610784 
L 155.221561 153.525044 
L 170.170112 153.525044 
L 185.118663 153.525044 
L 200.067214 153.524505 
" clip-path="url(#p7b67d43d2b)" style="fill: none; stroke: #ff7f0e; stroke-width: 1.5; stroke-linecap: square"/>
   </g>
   <g id="line2d_21">
    <path d="M 50.581703 156.460602 
L 65.530254 156.460602 
L 80.478805 156.460602 
L 95.427356 157.506337 
L 110.375908 152.671859 
L 125.324459 152.671859 
L 140.27301 152.671859 
L 155.221561 152.671859 
L 170.170112 152.671859 
L 185.118663 152.671859 
L 200.067214 152.671859 
" clip-path="url(#p7b67d43d2b)" style="fill: none; stroke: #2ca02c; stroke-width: 1.5; stroke-linecap: square"/>
   </g>
   <g id="line2d_22">
    <path d="M 50.581703 155.461526 
L 65.530254 155.461526 
L 80.478805 156.723707 
L 95.427356 155.645368 
L 110.375908 154.052974 
L 125.324459 154.052974 
L 140.27301 154.052974 
L 155.221561 154.052974 
L 170.170112 154.052974 
L 185.118663 154.052974 
L 200.067214 154.052974 
" clip-path="url(#p7b67d43d2b)" style="fill: none; stroke: #d62728; stroke-width: 1.5; stroke-linecap: square"/>
   </g>
   <g id="line2d_23">
    <path d="M 43.107427 146.177469 
L 207.54149 146.177469 
" clip-path="url(#p7b67d43d2b)" style="fill: none; stroke-dasharray: 5.55,2.4; stroke-dashoffset: 0; stroke: #000000; stroke-opacity: 0.7; stroke-width: 1.5"/>
   </g>
   <g id="line2d_24">
    <path d="M 43.107427 170.346943 
L 207.54149 170.346943 
" clip-path="url(#p7b67d43d2b)" style="fill: none; stroke-dasharray: 5.55,2.4; stroke-dashoffset: 0; stroke: #ff0000; stroke-opacity: 0.7; stroke-width: 1.5"/>
   </g>
   <g id="patch_9">
    <path d="M 43.107427 203.59346 
L 43.107427 117.469473 
" style="fill: none; stroke: #000000; stroke-width: 0.8; stroke-linejoin: miter; stroke-linecap: square"/>
   </g>
   <g id="patch_10">
    <path d="M 207.54149 203.59346 
L 207.54149 117.469473 
" style="fill: none; stroke: #000000; stroke-width: 0.8; stroke-linejoin: miter; stroke-linecap: square"/>
   </g>
   <g id="patch_11">
    <path d="M 43.107427 203.59346 
L 207.54149 203.59346 
" style="fill: none; stroke: #000000; stroke-width: 0.8; stroke-linejoin: miter; stroke-linecap: square"/>
   </g>
   <g id="patch_12">
    <path d="M 43.107427 117.469473 
L 207.54149 117.469473 
" style="fill: none; stroke: #000000; stroke-width: 0.8; stroke-linejoin: miter; stroke-linecap: square"/>
   </g>
   <g id="legend_2">
    <g id="patch_13">
     <path d="M 131.895084 204.26041 
L 201.24149 204.26041 
Q 203.04149 204.26041 203.04149 202.46041 
L 203.04149 123.769473 
Q 203.04149 121.969473 201.24149 121.969473 
L 131.895084 121.969473 
Q 130.095084 121.969473 130.095084 123.769473 
L 130.095084 202.46041 
Q 130.095084 204.26041 131.895084 204.26041 
z
" style="fill: #ffffff; opacity: 0.8; stroke: #cccccc; stroke-linejoin: miter"/>
    </g>
    <g id="line2d_25">
     <path d="M 133.695084 129.349473 
L 142.695084 129.349473 
L 151.695084 129.349473 
" style="fill: none; stroke: #1f77b4; stroke-width: 1.5; stroke-linecap: square"/>
    </g>
    <g id="text_16">
     <!-- $\beta=$1 -->
     <g transform="translate(158.895084 132.499473)scale(0.09 -0.09)">
      <use xlink:href="#DejaVuSans-Oblique-3b2" transform="translate(0 0.390625)"/>
      <use xlink:href="#DejaVuSans-3d" transform="translate(83.300781 0.390625)"/>
      <use xlink:href="#DejaVuSans-31" transform="translate(186.572266 0.390625)"/>
     </g>
    </g>
    <g id="line2d_26">
     <path d="M 133.695084 142.669473 
L 142.695084 142.669473 
L 151.695084 142.669473 
" style="fill: none; stroke: #ff7f0e; stroke-width: 1.5; stroke-linecap: square"/>
    </g>
    <g id="text_17">
     <!-- $\beta=$2 -->
     <g transform="translate(158.895084 145.819473)scale(0.09 -0.09)">
      <use xlink:href="#DejaVuSans-Oblique-3b2" transform="translate(0 0.390625)"/>
      <use xlink:href="#DejaVuSans-3d" transform="translate(83.300781 0.390625)"/>
      <use xlink:href="#DejaVuSans-32" transform="translate(186.572266 0.390625)"/>
     </g>
    </g>
    <g id="line2d_27">
     <path d="M 133.695084 155.989473 
L 142.695084 155.989473 
L 151.695084 155.989473 
" style="fill: none; stroke: #2ca02c; stroke-width: 1.5; stroke-linecap: square"/>
    </g>
    <g id="text_18">
     <!-- $\beta=$4 -->
     <g transform="translate(158.895084 159.139473)scale(0.09 -0.09)">
      <use xlink:href="#DejaVuSans-Oblique-3b2" transform="translate(0 0.390625)"/>
      <use xlink:href="#DejaVuSans-3d" transform="translate(83.300781 0.390625)"/>
      <use xlink:href="#DejaVuSans-34" transform="translate(186.572266 0.390625)"/>
     </g>
    </g>
    <g id="line2d_28">
     <path d="M 133.695084 169.218067 
L 142.695084 169.218067 
L 151.695084 169.218067 
" style="fill: none; stroke: #d62728; stroke-width: 1.5; stroke-linecap: square"/>
    </g>
    <g id="text_19">
     <!-- greedy -->
     <g transform="translate(158.895084 172.368067)scale(0.09 -0.09)">
      <use xlink:href="#DejaVuSans-67"/>
      <use xlink:href="#DejaVuSans-72" x="63.476562"/>
      <use xlink:href="#DejaVuSans-65" x="102.339844"/>
      <use xlink:href="#DejaVuSans-65" x="163.863281"/>
      <use xlink:href="#DejaVuSans-64" x="225.386719"/>
      <use xlink:href="#DejaVuSans-79" x="288.863281"/>
     </g>
    </g>
    <g id="line2d_29">
     <path d="M 133.695084 182.428379 
L 142.695084 182.428379 
L 151.695084 182.428379 
" style="fill: none; stroke-dasharray: 5.55,2.4; stroke-dashoffset: 0; stroke: #000000; stroke-opacity: 0.7; stroke-width: 1.5"/>
    </g>
    <g id="text_20">
     <!-- BO value -->
     <g transform="translate(158.895084 185.578379)scale(0.09 -0.09)">
      <use xlink:href="#DejaVuSans-42"/>
      <use xlink:href="#DejaVuSans-4f" x="66.853516"/>
      <use xlink:href="#DejaVuSans-20" x="145.564453"/>
      <use xlink:href="#DejaVuSans-76" x="177.351562"/>
      <use xlink:href="#DejaVuSans-61" x="236.53125"/>
      <use xlink:href="#DejaVuSans-6c" x="297.810547"/>
      <use xlink:href="#DejaVuSans-75" x="325.59375"/>
      <use xlink:href="#DejaVuSans-65" x="388.972656"/>
     </g>
    </g>
    <g id="line2d_30">
     <path d="M 133.695084 195.638692 
L 142.695084 195.638692 
L 151.695084 195.638692 
" style="fill: none; stroke-dasharray: 5.55,2.4; stroke-dashoffset: 0; stroke: #ff0000; stroke-opacity: 0.7; stroke-width: 1.5"/>
    </g>
    <g id="text_21">
     <!-- CE value -->
     <g transform="translate(158.895084 198.788692)scale(0.09 -0.09)">
      <use xlink:href="#DejaVuSans-43"/>
      <use xlink:href="#DejaVuSans-45" x="69.824219"/>
      <use xlink:href="#DejaVuSans-20" x="133.007812"/>
      <use xlink:href="#DejaVuSans-76" x="164.794922"/>
      <use xlink:href="#DejaVuSans-61" x="223.974609"/>
      <use xlink:href="#DejaVuSans-6c" x="285.253906"/>
      <use xlink:href="#DejaVuSans-75" x="313.037109"/>
      <use xlink:href="#DejaVuSans-65" x="376.416016"/>
     </g>
    </g>
   </g>
  </g>
  <g id="axes_3">
   <g id="patch_14">
    <path d="M 43.107427 299.217927 
L 207.54149 299.217927 
L 207.54149 213.09394 
L 43.107427 213.09394 
L 43.107427 299.217927 
z
" style="fill: none"/>
   </g>
   <g id="PathCollection_9">
    <g clip-path="url(#pd67c2b9f5a)">
     <use xlink:href="#m34623ad182" x="50.581703" y="299.217927" style="fill: #1f77b4; stroke: #1f77b4"/>
     <use xlink:href="#m34623ad182" x="65.530254" y="299.217927" style="fill: #1f77b4; stroke: #1f77b4"/>
     <use xlink:href="#m34623ad182" x="80.478805" y="299.217927" style="fill: #1f77b4; stroke: #1f77b4"/>
     <use xlink:href="#m34623ad182" x="95.427356" y="299.217927" style="fill: #1f77b4; stroke: #1f77b4"/>
     <use xlink:href="#m34623ad182" x="110.375908" y="297.260564" style="fill: #1f77b4; stroke: #1f77b4"/>
     <use xlink:href="#m34623ad182" x="125.324459" y="254.19857" style="fill: #1f77b4; stroke: #1f77b4"/>
     <use xlink:href="#m34623ad182" x="140.27301" y="244.411754" style="fill: #1f77b4; stroke: #1f77b4"/>
     <use xlink:href="#m34623ad182" x="155.221561" y="234.624937" style="fill: #1f77b4; stroke: #1f77b4"/>
     <use xlink:href="#m34623ad182" x="170.170112" y="234.624937" style="fill: #1f77b4; stroke: #1f77b4"/>
     <use xlink:href="#m34623ad182" x="185.118663" y="234.624937" style="fill: #1f77b4; stroke: #1f77b4"/>
     <use xlink:href="#m34623ad182" x="200.067214" y="224.83812" style="fill: #1f77b4; stroke: #1f77b4"/>
    </g>
   </g>
   <g id="PathCollection_10">
    <g clip-path="url(#pd67c2b9f5a)">
     <use xlink:href="#mac29acd478" x="50.581703" y="299.217927" style="fill: #ff7f0e; stroke: #ff7f0e"/>
     <use xlink:href="#mac29acd478" x="65.530254" y="299.217927" style="fill: #ff7f0e; stroke: #ff7f0e"/>
     <use xlink:href="#mac29acd478" x="80.478805" y="299.217927" style="fill: #ff7f0e; stroke: #ff7f0e"/>
     <use xlink:href="#mac29acd478" x="95.427356" y="299.217927" style="fill: #ff7f0e; stroke: #ff7f0e"/>
     <use xlink:href="#mac29acd478" x="110.375908" y="265.94275" style="fill: #ff7f0e; stroke: #ff7f0e"/>
     <use xlink:href="#mac29acd478" x="125.324459" y="265.94275" style="fill: #ff7f0e; stroke: #ff7f0e"/>
     <use xlink:href="#mac29acd478" x="140.27301" y="265.94275" style="fill: #ff7f0e; stroke: #ff7f0e"/>
     <use xlink:href="#mac29acd478" x="155.221561" y="260.07066" style="fill: #ff7f0e; stroke: #ff7f0e"/>
     <use xlink:href="#mac29acd478" x="170.170112" y="260.07066" style="fill: #ff7f0e; stroke: #ff7f0e"/>
     <use xlink:href="#mac29acd478" x="185.118663" y="260.07066" style="fill: #ff7f0e; stroke: #ff7f0e"/>
     <use xlink:href="#mac29acd478" x="200.067214" y="256.155934" style="fill: #ff7f0e; stroke: #ff7f0e"/>
    </g>
   </g>
   <g id="PathCollection_11">
    <g clip-path="url(#pd67c2b9f5a)">
     <use xlink:href="#m53a635dcec" x="50.581703" y="299.217927" style="fill: #2ca02c; stroke: #2ca02c"/>
     <use xlink:href="#m53a635dcec" x="65.530254" y="299.217927" style="fill: #2ca02c; stroke: #2ca02c"/>
     <use xlink:href="#m53a635dcec" x="80.478805" y="299.217927" style="fill: #2ca02c; stroke: #2ca02c"/>
     <use xlink:href="#m53a635dcec" x="95.427356" y="297.260564" style="fill: #2ca02c; stroke: #2ca02c"/>
     <use xlink:href="#m53a635dcec" x="110.375908" y="265.94275" style="fill: #2ca02c; stroke: #2ca02c"/>
     <use xlink:href="#m53a635dcec" x="125.324459" y="265.94275" style="fill: #2ca02c; stroke: #2ca02c"/>
     <use xlink:href="#m53a635dcec" x="140.27301" y="265.94275" style="fill: #2ca02c; stroke: #2ca02c"/>
     <use xlink:href="#m53a635dcec" x="155.221561" y="265.94275" style="fill: #2ca02c; stroke: #2ca02c"/>
     <use xlink:href="#m53a635dcec" x="170.170112" y="265.94275" style="fill: #2ca02c; stroke: #2ca02c"/>
     <use xlink:href="#m53a635dcec" x="185.118663" y="265.94275" style="fill: #2ca02c; stroke: #2ca02c"/>
     <use xlink:href="#m53a635dcec" x="200.067214" y="265.94275" style="fill: #2ca02c; stroke: #2ca02c"/>
    </g>
   </g>
   <g id="PathCollection_12">
    <g clip-path="url(#pd67c2b9f5a)">
     <use xlink:href="#mbe7137ee3e" x="50.581703" y="299.217927" style="fill: #d62728; stroke: #d62728"/>
     <use xlink:href="#mbe7137ee3e" x="65.530254" y="299.217927" style="fill: #d62728; stroke: #d62728"/>
     <use xlink:href="#mbe7137ee3e" x="80.478805" y="297.260564" style="fill: #d62728; stroke: #d62728"/>
     <use xlink:href="#mbe7137ee3e" x="95.427356" y="283.559021" style="fill: #d62728; stroke: #d62728"/>
     <use xlink:href="#mbe7137ee3e" x="110.375908" y="269.857477" style="fill: #d62728; stroke: #d62728"/>
     <use xlink:href="#mbe7137ee3e" x="125.324459" y="269.857477" style="fill: #d62728; stroke: #d62728"/>
     <use xlink:href="#mbe7137ee3e" x="140.27301" y="269.857477" style="fill: #d62728; stroke: #d62728"/>
     <use xlink:href="#mbe7137ee3e" x="155.221561" y="269.857477" style="fill: #d62728; stroke: #d62728"/>
     <use xlink:href="#mbe7137ee3e" x="170.170112" y="269.857477" style="fill: #d62728; stroke: #d62728"/>
     <use xlink:href="#mbe7137ee3e" x="185.118663" y="269.857477" style="fill: #d62728; stroke: #d62728"/>
     <use xlink:href="#mbe7137ee3e" x="200.067214" y="269.857477" style="fill: #d62728; stroke: #d62728"/>
    </g>
   </g>
   <g id="matplotlib.axis_5">
    <g id="xtick_1">
     <g id="line2d_31">
      <defs>
       <path id="mf3943cdd9d" d="M 0 0 
L 0 3.5 
" style="stroke: #000000; stroke-width: 0.8"/>
      </defs>
      <g>
       <use xlink:href="#mf3943cdd9d" x="50.581703" y="299.217927" style="stroke: #000000; stroke-width: 0.8"/>
      </g>
     </g>
     <g id="text_22">
      <!-- 1.0000 -->
      <g transform="translate(44.223736 340.319916)rotate(-60)scale(0.1 -0.1)">
       <use xlink:href="#DejaVuSans-31"/>
       <use xlink:href="#DejaVuSans-2e" x="63.623047"/>
       <use xlink:href="#DejaVuSans-30" x="95.410156"/>
       <use xlink:href="#DejaVuSans-30" x="159.033203"/>
       <use xlink:href="#DejaVuSans-30" x="222.65625"/>
       <use xlink:href="#DejaVuSans-30" x="286.279297"/>
      </g>
     </g>
    </g>
    <g id="xtick_2">
     <g id="line2d_32">
      <g>
       <use xlink:href="#mf3943cdd9d" x="65.530254" y="299.217927" style="stroke: #000000; stroke-width: 0.8"/>
      </g>
     </g>
     <g id="text_23">
      <!-- 0.5012 -->
      <g transform="translate(59.172287 340.319916)rotate(-60)scale(0.1 -0.1)">
       <use xlink:href="#DejaVuSans-30"/>
       <use xlink:href="#DejaVuSans-2e" x="63.623047"/>
       <use xlink:href="#DejaVuSans-35" x="95.410156"/>
       <use xlink:href="#DejaVuSans-30" x="159.033203"/>
       <use xlink:href="#DejaVuSans-31" x="222.65625"/>
       <use xlink:href="#DejaVuSans-32" x="286.279297"/>
      </g>
     </g>
    </g>
    <g id="xtick_3">
     <g id="line2d_33">
      <g>
       <use xlink:href="#mf3943cdd9d" x="80.478805" y="299.217927" style="stroke: #000000; stroke-width: 0.8"/>
      </g>
     </g>
     <g id="text_24">
      <!-- 0.2512 -->
      <g transform="translate(74.120838 340.319916)rotate(-60)scale(0.1 -0.1)">
       <use xlink:href="#DejaVuSans-30"/>
       <use xlink:href="#DejaVuSans-2e" x="63.623047"/>
       <use xlink:href="#DejaVuSans-32" x="95.410156"/>
       <use xlink:href="#DejaVuSans-35" x="159.033203"/>
       <use xlink:href="#DejaVuSans-31" x="222.65625"/>
       <use xlink:href="#DejaVuSans-32" x="286.279297"/>
      </g>
     </g>
    </g>
    <g id="xtick_4">
     <g id="line2d_34">
      <g>
       <use xlink:href="#mf3943cdd9d" x="95.427356" y="299.217927" style="stroke: #000000; stroke-width: 0.8"/>
      </g>
     </g>
     <g id="text_25">
      <!-- 0.1259 -->
      <g transform="translate(89.069389 340.319916)rotate(-60)scale(0.1 -0.1)">
       <defs>
        <path id="DejaVuSans-39" d="M 703 97 
L 703 672 
Q 941 559 1184 500 
Q 1428 441 1663 441 
Q 2288 441 2617 861 
Q 2947 1281 2994 2138 
Q 2813 1869 2534 1725 
Q 2256 1581 1919 1581 
Q 1219 1581 811 2004 
Q 403 2428 403 3163 
Q 403 3881 828 4315 
Q 1253 4750 1959 4750 
Q 2769 4750 3195 4129 
Q 3622 3509 3622 2328 
Q 3622 1225 3098 567 
Q 2575 -91 1691 -91 
Q 1453 -91 1209 -44 
Q 966 3 703 97 
z
M 1959 2075 
Q 2384 2075 2632 2365 
Q 2881 2656 2881 3163 
Q 2881 3666 2632 3958 
Q 2384 4250 1959 4250 
Q 1534 4250 1286 3958 
Q 1038 3666 1038 3163 
Q 1038 2656 1286 2365 
Q 1534 2075 1959 2075 
z
" transform="scale(0.015625)"/>
       </defs>
       <use xlink:href="#DejaVuSans-30"/>
       <use xlink:href="#DejaVuSans-2e" x="63.623047"/>
       <use xlink:href="#DejaVuSans-31" x="95.410156"/>
       <use xlink:href="#DejaVuSans-32" x="159.033203"/>
       <use xlink:href="#DejaVuSans-35" x="222.65625"/>
       <use xlink:href="#DejaVuSans-39" x="286.279297"/>
      </g>
     </g>
    </g>
    <g id="xtick_5">
     <g id="line2d_35">
      <g>
       <use xlink:href="#mf3943cdd9d" x="110.375908" y="299.217927" style="stroke: #000000; stroke-width: 0.8"/>
      </g>
     </g>
     <g id="text_26">
      <!-- 0.0631 -->
      <g transform="translate(104.01794 340.319916)rotate(-60)scale(0.1 -0.1)">
       <defs>
        <path id="DejaVuSans-33" d="M 2597 2516 
Q 3050 2419 3304 2112 
Q 3559 1806 3559 1356 
Q 3559 666 3084 287 
Q 2609 -91 1734 -91 
Q 1441 -91 1130 -33 
Q 819 25 488 141 
L 488 750 
Q 750 597 1062 519 
Q 1375 441 1716 441 
Q 2309 441 2620 675 
Q 2931 909 2931 1356 
Q 2931 1769 2642 2001 
Q 2353 2234 1838 2234 
L 1294 2234 
L 1294 2753 
L 1863 2753 
Q 2328 2753 2575 2939 
Q 2822 3125 2822 3475 
Q 2822 3834 2567 4026 
Q 2313 4219 1838 4219 
Q 1578 4219 1281 4162 
Q 984 4106 628 3988 
L 628 4550 
Q 988 4650 1302 4700 
Q 1616 4750 1894 4750 
Q 2613 4750 3031 4423 
Q 3450 4097 3450 3541 
Q 3450 3153 3228 2886 
Q 3006 2619 2597 2516 
z
" transform="scale(0.015625)"/>
       </defs>
       <use xlink:href="#DejaVuSans-30"/>
       <use xlink:href="#DejaVuSans-2e" x="63.623047"/>
       <use xlink:href="#DejaVuSans-30" x="95.410156"/>
       <use xlink:href="#DejaVuSans-36" x="159.033203"/>
       <use xlink:href="#DejaVuSans-33" x="222.65625"/>
       <use xlink:href="#DejaVuSans-31" x="286.279297"/>
      </g>
     </g>
    </g>
    <g id="xtick_6">
     <g id="line2d_36">
      <g>
       <use xlink:href="#mf3943cdd9d" x="125.324459" y="299.217927" style="stroke: #000000; stroke-width: 0.8"/>
      </g>
     </g>
     <g id="text_27">
      <!-- 0.0316 -->
      <g transform="translate(118.966491 340.319916)rotate(-60)scale(0.1 -0.1)">
       <use xlink:href="#DejaVuSans-30"/>
       <use xlink:href="#DejaVuSans-2e" x="63.623047"/>
       <use xlink:href="#DejaVuSans-30" x="95.410156"/>
       <use xlink:href="#DejaVuSans-33" x="159.033203"/>
       <use xlink:href="#DejaVuSans-31" x="222.65625"/>
       <use xlink:href="#DejaVuSans-36" x="286.279297"/>
      </g>
     </g>
    </g>
    <g id="xtick_7">
     <g id="line2d_37">
      <g>
       <use xlink:href="#mf3943cdd9d" x="140.27301" y="299.217927" style="stroke: #000000; stroke-width: 0.8"/>
      </g>
     </g>
     <g id="text_28">
      <!-- 0.0158 -->
      <g transform="translate(133.915042 340.319916)rotate(-60)scale(0.1 -0.1)">
       <defs>
        <path id="DejaVuSans-38" d="M 2034 2216 
Q 1584 2216 1326 1975 
Q 1069 1734 1069 1313 
Q 1069 891 1326 650 
Q 1584 409 2034 409 
Q 2484 409 2743 651 
Q 3003 894 3003 1313 
Q 3003 1734 2745 1975 
Q 2488 2216 2034 2216 
z
M 1403 2484 
Q 997 2584 770 2862 
Q 544 3141 544 3541 
Q 544 4100 942 4425 
Q 1341 4750 2034 4750 
Q 2731 4750 3128 4425 
Q 3525 4100 3525 3541 
Q 3525 3141 3298 2862 
Q 3072 2584 2669 2484 
Q 3125 2378 3379 2068 
Q 3634 1759 3634 1313 
Q 3634 634 3220 271 
Q 2806 -91 2034 -91 
Q 1263 -91 848 271 
Q 434 634 434 1313 
Q 434 1759 690 2068 
Q 947 2378 1403 2484 
z
M 1172 3481 
Q 1172 3119 1398 2916 
Q 1625 2713 2034 2713 
Q 2441 2713 2670 2916 
Q 2900 3119 2900 3481 
Q 2900 3844 2670 4047 
Q 2441 4250 2034 4250 
Q 1625 4250 1398 4047 
Q 1172 3844 1172 3481 
z
" transform="scale(0.015625)"/>
       </defs>
       <use xlink:href="#DejaVuSans-30"/>
       <use xlink:href="#DejaVuSans-2e" x="63.623047"/>
       <use xlink:href="#DejaVuSans-30" x="95.410156"/>
       <use xlink:href="#DejaVuSans-31" x="159.033203"/>
       <use xlink:href="#DejaVuSans-35" x="222.65625"/>
       <use xlink:href="#DejaVuSans-38" x="286.279297"/>
      </g>
     </g>
    </g>
    <g id="xtick_8">
     <g id="line2d_38">
      <g>
       <use xlink:href="#mf3943cdd9d" x="155.221561" y="299.217927" style="stroke: #000000; stroke-width: 0.8"/>
      </g>
     </g>
     <g id="text_29">
      <!-- 0.0079 -->
      <g transform="translate(148.863593 340.319916)rotate(-60)scale(0.1 -0.1)">
       <defs>
        <path id="DejaVuSans-37" d="M 525 4666 
L 3525 4666 
L 3525 4397 
L 1831 0 
L 1172 0 
L 2766 4134 
L 525 4134 
L 525 4666 
z
" transform="scale(0.015625)"/>
       </defs>
       <use xlink:href="#DejaVuSans-30"/>
       <use xlink:href="#DejaVuSans-2e" x="63.623047"/>
       <use xlink:href="#DejaVuSans-30" x="95.410156"/>
       <use xlink:href="#DejaVuSans-30" x="159.033203"/>
       <use xlink:href="#DejaVuSans-37" x="222.65625"/>
       <use xlink:href="#DejaVuSans-39" x="286.279297"/>
      </g>
     </g>
    </g>
    <g id="xtick_9">
     <g id="line2d_39">
      <g>
       <use xlink:href="#mf3943cdd9d" x="170.170112" y="299.217927" style="stroke: #000000; stroke-width: 0.8"/>
      </g>
     </g>
     <g id="text_30">
      <!-- 0.0040 -->
      <g transform="translate(163.812145 340.319916)rotate(-60)scale(0.1 -0.1)">
       <use xlink:href="#DejaVuSans-30"/>
       <use xlink:href="#DejaVuSans-2e" x="63.623047"/>
       <use xlink:href="#DejaVuSans-30" x="95.410156"/>
       <use xlink:href="#DejaVuSans-30" x="159.033203"/>
       <use xlink:href="#DejaVuSans-34" x="222.65625"/>
       <use xlink:href="#DejaVuSans-30" x="286.279297"/>
      </g>
     </g>
    </g>
    <g id="xtick_10">
     <g id="line2d_40">
      <g>
       <use xlink:href="#mf3943cdd9d" x="185.118663" y="299.217927" style="stroke: #000000; stroke-width: 0.8"/>
      </g>
     </g>
     <g id="text_31">
      <!-- 0.0020 -->
      <g transform="translate(178.760696 340.319916)rotate(-60)scale(0.1 -0.1)">
       <use xlink:href="#DejaVuSans-30"/>
       <use xlink:href="#DejaVuSans-2e" x="63.623047"/>
       <use xlink:href="#DejaVuSans-30" x="95.410156"/>
       <use xlink:href="#DejaVuSans-30" x="159.033203"/>
       <use xlink:href="#DejaVuSans-32" x="222.65625"/>
       <use xlink:href="#DejaVuSans-30" x="286.279297"/>
      </g>
     </g>
    </g>
    <g id="xtick_11">
     <g id="line2d_41">
      <g>
       <use xlink:href="#mf3943cdd9d" x="200.067214" y="299.217927" style="stroke: #000000; stroke-width: 0.8"/>
      </g>
     </g>
     <g id="text_32">
      <!-- 0.0010 -->
      <g transform="translate(193.709247 340.319916)rotate(-60)scale(0.1 -0.1)">
       <use xlink:href="#DejaVuSans-30"/>
       <use xlink:href="#DejaVuSans-2e" x="63.623047"/>
       <use xlink:href="#DejaVuSans-30" x="95.410156"/>
       <use xlink:href="#DejaVuSans-30" x="159.033203"/>
       <use xlink:href="#DejaVuSans-31" x="222.65625"/>
       <use xlink:href="#DejaVuSans-30" x="286.279297"/>
      </g>
     </g>
    </g>
    <g id="text_33">
     <!-- $\xi$ -->
     <g transform="translate(121.964459 354.47976)scale(0.12 -0.12)">
      <defs>
       <path id="DejaVuSans-Oblique-3be" d="M 2016 397 
Q 2428 394 2628 159 
Q 2844 -88 2772 -463 
Q 2700 -822 2422 -1072 
Q 2119 -1344 1609 -1344 
Q 1656 -1109 1700 -872 
Q 1913 -888 2072 -750 
Q 2194 -641 2216 -525 
Q 2247 -359 2175 -222 
Q 2100 -91 1922 -91 
Q -25 -91 241 1275 
Q 422 2213 1516 2488 
Q 663 2600 822 3413 
Q 941 4028 1678 4284 
L 1028 4284 
L 1141 4863 
L 3606 4863 
L 3494 4284 
Q 1528 4284 1350 3375 
Q 1234 2778 2881 2750 
L 2778 2219 
Q 1009 2288 819 1275 
Q 659 428 2016 397 
z
" transform="scale(0.015625)"/>
      </defs>
      <use xlink:href="#DejaVuSans-Oblique-3be" transform="translate(0 0.015625)"/>
     </g>
    </g>
   </g>
   <g id="matplotlib.axis_6">
    <g id="ytick_7">
     <g id="line2d_42">
      <g>
       <use xlink:href="#m6b00285b54" x="43.107427" y="299.217927" style="stroke: #000000; stroke-width: 0.8"/>
      </g>
     </g>
     <g id="text_34">
      <!-- 0 -->
      <g transform="translate(29.744927 303.017146)scale(0.1 -0.1)">
       <use xlink:href="#DejaVuSans-30"/>
      </g>
     </g>
    </g>
    <g id="ytick_8">
     <g id="line2d_43">
      <g>
       <use xlink:href="#m6b00285b54" x="43.107427" y="260.07066" style="stroke: #000000; stroke-width: 0.8"/>
      </g>
     </g>
     <g id="text_35">
      <!-- 20 -->
      <g transform="translate(23.382427 263.869879)scale(0.1 -0.1)">
       <use xlink:href="#DejaVuSans-32"/>
       <use xlink:href="#DejaVuSans-30" x="63.623047"/>
      </g>
     </g>
    </g>
    <g id="ytick_9">
     <g id="line2d_44">
      <g>
       <use xlink:href="#m6b00285b54" x="43.107427" y="220.923393" style="stroke: #000000; stroke-width: 0.8"/>
      </g>
     </g>
     <g id="text_36">
      <!-- 40 -->
      <g transform="translate(23.382427 224.722612)scale(0.1 -0.1)">
       <use xlink:href="#DejaVuSans-34"/>
       <use xlink:href="#DejaVuSans-30" x="63.623047"/>
      </g>
     </g>
    </g>
    <g id="text_37">
     <!-- Number of updates -->
     <g transform="translate(16.886802 314.123434)rotate(-90)scale(0.12 -0.12)">
      <defs>
       <path id="DejaVuSans-4e" d="M 628 4666 
L 1478 4666 
L 3547 763 
L 3547 4666 
L 4159 4666 
L 4159 0 
L 3309 0 
L 1241 3903 
L 1241 0 
L 628 0 
L 628 4666 
z
" transform="scale(0.015625)"/>
       <path id="DejaVuSans-6d" d="M 3328 2828 
Q 3544 3216 3844 3400 
Q 4144 3584 4550 3584 
Q 5097 3584 5394 3201 
Q 5691 2819 5691 2113 
L 5691 0 
L 5113 0 
L 5113 2094 
Q 5113 2597 4934 2840 
Q 4756 3084 4391 3084 
Q 3944 3084 3684 2787 
Q 3425 2491 3425 1978 
L 3425 0 
L 2847 0 
L 2847 2094 
Q 2847 2600 2669 2842 
Q 2491 3084 2119 3084 
Q 1678 3084 1418 2786 
Q 1159 2488 1159 1978 
L 1159 0 
L 581 0 
L 581 3500 
L 1159 3500 
L 1159 2956 
Q 1356 3278 1631 3431 
Q 1906 3584 2284 3584 
Q 2666 3584 2933 3390 
Q 3200 3197 3328 2828 
z
" transform="scale(0.015625)"/>
       <path id="DejaVuSans-62" d="M 3116 1747 
Q 3116 2381 2855 2742 
Q 2594 3103 2138 3103 
Q 1681 3103 1420 2742 
Q 1159 2381 1159 1747 
Q 1159 1113 1420 752 
Q 1681 391 2138 391 
Q 2594 391 2855 752 
Q 3116 1113 3116 1747 
z
M 1159 2969 
Q 1341 3281 1617 3432 
Q 1894 3584 2278 3584 
Q 2916 3584 3314 3078 
Q 3713 2572 3713 1747 
Q 3713 922 3314 415 
Q 2916 -91 2278 -91 
Q 1894 -91 1617 61 
Q 1341 213 1159 525 
L 1159 0 
L 581 0 
L 581 4863 
L 1159 4863 
L 1159 2969 
z
" transform="scale(0.015625)"/>
       <path id="DejaVuSans-66" d="M 2375 4863 
L 2375 4384 
L 1825 4384 
Q 1516 4384 1395 4259 
Q 1275 4134 1275 3809 
L 1275 3500 
L 2222 3500 
L 2222 3053 
L 1275 3053 
L 1275 0 
L 697 0 
L 697 3053 
L 147 3053 
L 147 3500 
L 697 3500 
L 697 3744 
Q 697 4328 969 4595 
Q 1241 4863 1831 4863 
L 2375 4863 
z
" transform="scale(0.015625)"/>
       <path id="DejaVuSans-70" d="M 1159 525 
L 1159 -1331 
L 581 -1331 
L 581 3500 
L 1159 3500 
L 1159 2969 
Q 1341 3281 1617 3432 
Q 1894 3584 2278 3584 
Q 2916 3584 3314 3078 
Q 3713 2572 3713 1747 
Q 3713 922 3314 415 
Q 2916 -91 2278 -91 
Q 1894 -91 1617 61 
Q 1341 213 1159 525 
z
M 3116 1747 
Q 3116 2381 2855 2742 
Q 2594 3103 2138 3103 
Q 1681 3103 1420 2742 
Q 1159 2381 1159 1747 
Q 1159 1113 1420 752 
Q 1681 391 2138 391 
Q 2594 391 2855 752 
Q 3116 1113 3116 1747 
z
" transform="scale(0.015625)"/>
       <path id="DejaVuSans-73" d="M 2834 3397 
L 2834 2853 
Q 2591 2978 2328 3040 
Q 2066 3103 1784 3103 
Q 1356 3103 1142 2972 
Q 928 2841 928 2578 
Q 928 2378 1081 2264 
Q 1234 2150 1697 2047 
L 1894 2003 
Q 2506 1872 2764 1633 
Q 3022 1394 3022 966 
Q 3022 478 2636 193 
Q 2250 -91 1575 -91 
Q 1294 -91 989 -36 
Q 684 19 347 128 
L 347 722 
Q 666 556 975 473 
Q 1284 391 1588 391 
Q 1994 391 2212 530 
Q 2431 669 2431 922 
Q 2431 1156 2273 1281 
Q 2116 1406 1581 1522 
L 1381 1569 
Q 847 1681 609 1914 
Q 372 2147 372 2553 
Q 372 3047 722 3315 
Q 1072 3584 1716 3584 
Q 2034 3584 2315 3537 
Q 2597 3491 2834 3397 
z
" transform="scale(0.015625)"/>
      </defs>
      <use xlink:href="#DejaVuSans-4e"/>
      <use xlink:href="#DejaVuSans-75" x="74.804688"/>
      <use xlink:href="#DejaVuSans-6d" x="138.183594"/>
      <use xlink:href="#DejaVuSans-62" x="235.595703"/>
      <use xlink:href="#DejaVuSans-65" x="299.072266"/>
      <use xlink:href="#DejaVuSans-72" x="360.595703"/>
      <use xlink:href="#DejaVuSans-20" x="401.708984"/>
      <use xlink:href="#DejaVuSans-6f" x="433.496094"/>
      <use xlink:href="#DejaVuSans-66" x="494.677734"/>
      <use xlink:href="#DejaVuSans-20" x="529.882812"/>
      <use xlink:href="#DejaVuSans-75" x="561.669922"/>
      <use xlink:href="#DejaVuSans-70" x="625.048828"/>
      <use xlink:href="#DejaVuSans-64" x="688.525391"/>
      <use xlink:href="#DejaVuSans-61" x="752.001953"/>
      <use xlink:href="#DejaVuSans-74" x="813.28125"/>
      <use xlink:href="#DejaVuSans-65" x="852.490234"/>
      <use xlink:href="#DejaVuSans-73" x="914.013672"/>
     </g>
    </g>
   </g>
   <g id="line2d_45">
    <path d="M 50.581703 299.217927 
L 65.530254 299.217927 
L 80.478805 299.217927 
L 95.427356 299.217927 
L 110.375908 297.260564 
L 125.324459 254.19857 
L 140.27301 244.411754 
L 155.221561 234.624937 
L 170.170112 234.624937 
L 185.118663 234.624937 
L 200.067214 224.83812 
" clip-path="url(#pd67c2b9f5a)" style="fill: none; stroke: #1f77b4; stroke-width: 1.5; stroke-linecap: square"/>
   </g>
   <g id="line2d_46">
    <path d="M 50.581703 299.217927 
L 65.530254 299.217927 
L 80.478805 299.217927 
L 95.427356 299.217927 
L 110.375908 265.94275 
L 125.324459 265.94275 
L 140.27301 265.94275 
L 155.221561 260.07066 
L 170.170112 260.07066 
L 185.118663 260.07066 
L 200.067214 256.155934 
" clip-path="url(#pd67c2b9f5a)" style="fill: none; stroke: #ff7f0e; stroke-width: 1.5; stroke-linecap: square"/>
   </g>
   <g id="line2d_47">
    <path d="M 50.581703 299.217927 
L 65.530254 299.217927 
L 80.478805 299.217927 
L 95.427356 297.260564 
L 110.375908 265.94275 
L 125.324459 265.94275 
L 140.27301 265.94275 
L 155.221561 265.94275 
L 170.170112 265.94275 
L 185.118663 265.94275 
L 200.067214 265.94275 
" clip-path="url(#pd67c2b9f5a)" style="fill: none; stroke: #2ca02c; stroke-width: 1.5; stroke-linecap: square"/>
   </g>
   <g id="line2d_48">
    <path d="M 50.581703 299.217927 
L 65.530254 299.217927 
L 80.478805 297.260564 
L 95.427356 283.559021 
L 110.375908 269.857477 
L 125.324459 269.857477 
L 140.27301 269.857477 
L 155.221561 269.857477 
L 170.170112 269.857477 
L 185.118663 269.857477 
L 200.067214 269.857477 
" clip-path="url(#pd67c2b9f5a)" style="fill: none; stroke: #d62728; stroke-width: 1.5; stroke-linecap: square"/>
   </g>
   <g id="patch_15">
    <path d="M 43.107427 299.217927 
L 43.107427 213.09394 
" style="fill: none; stroke: #000000; stroke-width: 0.8; stroke-linejoin: miter; stroke-linecap: square"/>
   </g>
   <g id="patch_16">
    <path d="M 207.54149 299.217927 
L 207.54149 213.09394 
" style="fill: none; stroke: #000000; stroke-width: 0.8; stroke-linejoin: miter; stroke-linecap: square"/>
   </g>
   <g id="patch_17">
    <path d="M 43.107427 299.217927 
L 207.54149 299.217927 
" style="fill: none; stroke: #000000; stroke-width: 0.8; stroke-linejoin: miter; stroke-linecap: square"/>
   </g>
   <g id="patch_18">
    <path d="M 43.107427 213.09394 
L 207.54149 213.09394 
" style="fill: none; stroke: #000000; stroke-width: 0.8; stroke-linejoin: miter; stroke-linecap: square"/>
   </g>
   <g id="legend_3">
    <g id="patch_19">
     <path d="M 49.407427 273.464253 
L 109.534459 273.464253 
Q 111.334459 273.464253 111.334459 271.664253 
L 111.334459 219.39394 
Q 111.334459 217.59394 109.534459 217.59394 
L 49.407427 217.59394 
Q 47.607427 217.59394 47.607427 219.39394 
L 47.607427 271.664253 
Q 47.607427 273.464253 49.407427 273.464253 
z
" style="fill: #ffffff; opacity: 0.8; stroke: #cccccc; stroke-linejoin: miter"/>
    </g>
    <g id="line2d_49">
     <path d="M 51.207427 224.97394 
L 60.207427 224.97394 
L 69.207427 224.97394 
" style="fill: none; stroke: #1f77b4; stroke-width: 1.5; stroke-linecap: square"/>
    </g>
    <g id="text_38">
     <!-- $\beta=$1 -->
     <g transform="translate(76.407427 228.12394)scale(0.09 -0.09)">
      <use xlink:href="#DejaVuSans-Oblique-3b2" transform="translate(0 0.390625)"/>
      <use xlink:href="#DejaVuSans-3d" transform="translate(83.300781 0.390625)"/>
      <use xlink:href="#DejaVuSans-31" transform="translate(186.572266 0.390625)"/>
     </g>
    </g>
    <g id="line2d_50">
     <path d="M 51.207427 238.29394 
L 60.207427 238.29394 
L 69.207427 238.29394 
" style="fill: none; stroke: #ff7f0e; stroke-width: 1.5; stroke-linecap: square"/>
    </g>
    <g id="text_39">
     <!-- $\beta=$2 -->
     <g transform="translate(76.407427 241.44394)scale(0.09 -0.09)">
      <use xlink:href="#DejaVuSans-Oblique-3b2" transform="translate(0 0.390625)"/>
      <use xlink:href="#DejaVuSans-3d" transform="translate(83.300781 0.390625)"/>
      <use xlink:href="#DejaVuSans-32" transform="translate(186.572266 0.390625)"/>
     </g>
    </g>
    <g id="line2d_51">
     <path d="M 51.207427 251.61394 
L 60.207427 251.61394 
L 69.207427 251.61394 
" style="fill: none; stroke: #2ca02c; stroke-width: 1.5; stroke-linecap: square"/>
    </g>
    <g id="text_40">
     <!-- $\beta=$4 -->
     <g transform="translate(76.407427 254.76394)scale(0.09 -0.09)">
      <use xlink:href="#DejaVuSans-Oblique-3b2" transform="translate(0 0.390625)"/>
      <use xlink:href="#DejaVuSans-3d" transform="translate(83.300781 0.390625)"/>
      <use xlink:href="#DejaVuSans-34" transform="translate(186.572266 0.390625)"/>
     </g>
    </g>
    <g id="line2d_52">
     <path d="M 51.207427 264.842534 
L 60.207427 264.842534 
L 69.207427 264.842534 
" style="fill: none; stroke: #d62728; stroke-width: 1.5; stroke-linecap: square"/>
    </g>
    <g id="text_41">
     <!-- greedy -->
     <g transform="translate(76.407427 267.992534)scale(0.09 -0.09)">
      <use xlink:href="#DejaVuSans-67"/>
      <use xlink:href="#DejaVuSans-72" x="63.476562"/>
      <use xlink:href="#DejaVuSans-65" x="102.339844"/>
      <use xlink:href="#DejaVuSans-65" x="163.863281"/>
      <use xlink:href="#DejaVuSans-64" x="225.386719"/>
      <use xlink:href="#DejaVuSans-79" x="288.863281"/>
     </g>
    </g>
   </g>
  </g>
 </g>
 <defs>
  <clipPath id="pa8ecca0325">
   <rect x="43.107427" y="18.878209" width="164.434062" height="86.123987"/>
  </clipPath>
  <clipPath id="p7b67d43d2b">
   <rect x="43.107427" y="117.469473" width="164.434062" height="86.123987"/>
  </clipPath>
  <clipPath id="pd67c2b9f5a">
   <rect x="43.107427" y="213.09394" width="164.434062" height="86.123987"/>
  </clipPath>
 </defs>
</svg>
