<?xml version="1.0" encoding="utf-8" standalone="no"?>
<!DOCTYPE svg PUBLIC "-//W3C//DTD SVG 1.1//EN"
  "http://www.w3.org/Graphics/SVG/1.1/DTD/svg11.dtd">
<svg xmlns:xlink="http://www.w3.org/1999/xlink" width="288pt" height="216pt" viewBox="0 0 288 216" xmlns="http://www.w3.org/2000/svg" version="1.1">
 <metadata>
  <rdf:RDF xmlns:dc="http://purl.org/dc/elements/1.1/" xmlns:cc="http://creativecommons.org/ns#" xmlns:rdf="http://www.w3.org/1999/02/22-rdf-syntax-ns#">
   <cc:Work>
    <dc:type rdf:resource="http://purl.org/dc/dcmitype/StillImage"/>
    <dc:date>2023-06-28T19:33:33.245658</dc:date>
    <dc:format>image/svg+xml</dc:format>
    <dc:creator>
     <cc:Agent>
      <dc:title>Matplotlib v3.5.0, https://matplotlib.org/</dc:title>
     </cc:Agent>
    </dc:creator>
   </cc:Work>
  </rdf:RDF>
 </metadata>
 <defs>
  <style type="text/css">*{stroke-linejoin: round; stroke-linecap: butt}</style>
 </defs>
 <g id="figure_1">
  <g id="patch_1">
   <path d="M 0 216 
L 288 216 
L 288 0 
L 0 0 
L 0 216 
z
" style="fill: none"/>
  </g>
  <g id="axes_1">
   <g id="patch_2">
    <path d="M 38.63149 109.948197 
L 281.69314 109.948197 
L 281.69314 3.00024 
L 38.63149 3.00024 
L 38.63149 109.948197 
z
" style="fill: none"/>
   </g>
   <g id="matplotlib.axis_1">
    <g id="xtick_1">
     <g id="line2d_1">
      <defs>
       <path id="m7f4ecbd662" d="M 0 0 
L 0 3.5 
" style="stroke: #ffffff; stroke-width: 0.8"/>
      </defs>
      <g>
       <use xlink:href="#m7f4ecbd662" x="49.679747" y="109.948197" style="fill: #ffffff; stroke: #ffffff; stroke-width: 0.8"/>
      </g>
     </g>
     <g id="text_1">
      <!-- 0 -->
      <g style="fill: #ffffff" transform="translate(35.364122 151.141166)scale(0.45 -0.45)">
       <defs>
        <path id="DejaVuSans-30" d="M 2034 4250 
Q 1547 4250 1301 3770 
Q 1056 3291 1056 2328 
Q 1056 1369 1301 889 
Q 1547 409 2034 409 
Q 2525 409 2770 889 
Q 3016 1369 3016 2328 
Q 3016 3291 2770 3770 
Q 2525 4250 2034 4250 
z
M 2034 4750 
Q 2819 4750 3233 4129 
Q 3647 3509 3647 2328 
Q 3647 1150 3233 529 
Q 2819 -91 2034 -91 
Q 1250 -91 836 529 
Q 422 1150 422 2328 
Q 422 3509 836 4129 
Q 1250 4750 2034 4750 
z
" transform="scale(0.015625)"/>
       </defs>
       <use xlink:href="#DejaVuSans-30"/>
      </g>
     </g>
    </g>
    <g id="xtick_2">
     <g id="line2d_2">
      <g>
       <use xlink:href="#m7f4ecbd662" x="270.644883" y="109.948197" style="fill: #ffffff; stroke: #ffffff; stroke-width: 0.8"/>
      </g>
     </g>
     <g id="text_2">
      <!-- 1 -->
      <g style="fill: #ffffff" transform="translate(256.329258 151.141166)scale(0.45 -0.45)">
       <defs>
        <path id="DejaVuSans-31" d="M 794 531 
L 1825 531 
L 1825 4091 
L 703 3866 
L 703 4441 
L 1819 4666 
L 2450 4666 
L 2450 531 
L 3481 531 
L 3481 0 
L 794 0 
L 794 531 
z
" transform="scale(0.015625)"/>
       </defs>
       <use xlink:href="#DejaVuSans-31"/>
      </g>
     </g>
    </g>
    <g id="text_3">
     <!-- $p(open)$ -->
     <g style="fill: #ffffff" transform="translate(62.162315 202.49976)scale(0.5 -0.5)">
      <defs>
       <path id="DejaVuSans-Oblique-70" d="M 3175 2156 
Q 3175 2616 2975 2859 
Q 2775 3103 2400 3103 
Q 2144 3103 1911 2972 
Q 1678 2841 1497 2591 
Q 1319 2344 1212 1994 
Q 1106 1644 1106 1300 
Q 1106 863 1306 627 
Q 1506 391 1875 391 
Q 2147 391 2380 519 
Q 2613 647 2778 891 
Q 2956 1147 3065 1494 
Q 3175 1841 3175 2156 
z
M 1394 2969 
Q 1625 3272 1939 3428 
Q 2253 3584 2638 3584 
Q 3175 3584 3472 3232 
Q 3769 2881 3769 2247 
Q 3769 1728 3584 1258 
Q 3400 788 3053 416 
Q 2822 169 2531 39 
Q 2241 -91 1919 -91 
Q 1547 -91 1294 64 
Q 1041 219 916 525 
L 556 -1331 
L -19 -1331 
L 922 3500 
L 1497 3500 
L 1394 2969 
z
" transform="scale(0.015625)"/>
       <path id="DejaVuSans-28" d="M 1984 4856 
Q 1566 4138 1362 3434 
Q 1159 2731 1159 2009 
Q 1159 1288 1364 580 
Q 1569 -128 1984 -844 
L 1484 -844 
Q 1016 -109 783 600 
Q 550 1309 550 2009 
Q 550 2706 781 3412 
Q 1013 4119 1484 4856 
L 1984 4856 
z
" transform="scale(0.015625)"/>
       <path id="DejaVuSans-Oblique-6f" d="M 1625 -91 
Q 1009 -91 651 289 
Q 294 669 294 1325 
Q 294 1706 417 2101 
Q 541 2497 738 2766 
Q 1047 3184 1428 3384 
Q 1809 3584 2291 3584 
Q 2888 3584 3255 3212 
Q 3622 2841 3622 2241 
Q 3622 1825 3500 1412 
Q 3378 1000 3181 728 
Q 2875 309 2494 109 
Q 2113 -91 1625 -91 
z
M 891 1344 
Q 891 869 1089 633 
Q 1288 397 1691 397 
Q 2269 397 2648 901 
Q 3028 1406 3028 2181 
Q 3028 2634 2825 2865 
Q 2622 3097 2228 3097 
Q 1903 3097 1650 2945 
Q 1397 2794 1197 2484 
Q 1050 2253 970 1956 
Q 891 1659 891 1344 
z
" transform="scale(0.015625)"/>
       <path id="DejaVuSans-Oblique-65" d="M 3078 2063 
Q 3088 2113 3092 2166 
Q 3097 2219 3097 2272 
Q 3097 2653 2873 2875 
Q 2650 3097 2266 3097 
Q 1838 3097 1509 2826 
Q 1181 2556 1013 2059 
L 3078 2063 
z
M 3578 1613 
L 903 1613 
Q 884 1494 878 1425 
Q 872 1356 872 1306 
Q 872 872 1139 634 
Q 1406 397 1894 397 
Q 2269 397 2603 481 
Q 2938 566 3225 728 
L 3116 159 
Q 2806 34 2476 -28 
Q 2147 -91 1806 -91 
Q 1078 -91 686 257 
Q 294 606 294 1247 
Q 294 1794 489 2264 
Q 684 2734 1063 3103 
Q 1306 3334 1642 3459 
Q 1978 3584 2356 3584 
Q 2950 3584 3301 3228 
Q 3653 2872 3653 2272 
Q 3653 2128 3634 1964 
Q 3616 1800 3578 1613 
z
" transform="scale(0.015625)"/>
       <path id="DejaVuSans-Oblique-6e" d="M 3566 2113 
L 3156 0 
L 2578 0 
L 2988 2091 
Q 3016 2238 3031 2350 
Q 3047 2463 3047 2528 
Q 3047 2791 2881 2937 
Q 2716 3084 2419 3084 
Q 1956 3084 1622 2776 
Q 1288 2469 1184 1941 
L 800 0 
L 225 0 
L 903 3500 
L 1478 3500 
L 1363 2950 
Q 1603 3253 1940 3418 
Q 2278 3584 2650 3584 
Q 3113 3584 3367 3334 
Q 3622 3084 3622 2631 
Q 3622 2519 3608 2391 
Q 3594 2263 3566 2113 
z
" transform="scale(0.015625)"/>
       <path id="DejaVuSans-29" d="M 513 4856 
L 1013 4856 
Q 1481 4119 1714 3412 
Q 1947 2706 1947 2009 
Q 1947 1309 1714 600 
Q 1481 -109 1013 -844 
L 513 -844 
Q 928 -128 1133 580 
Q 1338 1288 1338 2009 
Q 1338 2731 1133 3434 
Q 928 4138 513 4856 
z
" transform="scale(0.015625)"/>
      </defs>
      <use xlink:href="#DejaVuSans-Oblique-70" transform="translate(0 0.125)"/>
      <use xlink:href="#DejaVuSans-28" transform="translate(63.476562 0.125)"/>
      <use xlink:href="#DejaVuSans-Oblique-6f" transform="translate(102.490234 0.125)"/>
      <use xlink:href="#DejaVuSans-Oblique-70" transform="translate(163.671875 0.125)"/>
      <use xlink:href="#DejaVuSans-Oblique-65" transform="translate(227.148438 0.125)"/>
      <use xlink:href="#DejaVuSans-Oblique-6e" transform="translate(288.671875 0.125)"/>
      <use xlink:href="#DejaVuSans-29" transform="translate(352.050781 0.125)"/>
     </g>
    </g>
   </g>
   <g id="matplotlib.axis_2">
    <g id="ytick_1">
     <g id="line2d_3">
      <defs>
       <path id="mc6f53b4a43" d="M 0 0 
L -3.5 0 
" style="stroke: #ffffff; stroke-width: 0.8"/>
      </defs>
      <g>
       <use xlink:href="#mc6f53b4a43" x="38.63149" y="98.689611" style="fill: #ffffff; stroke: #ffffff; stroke-width: 0.8"/>
      </g>
     </g>
     <g id="text_4">
      <!-- 0 -->
      <g style="fill: #ffffff" transform="translate(3.00024 115.786095)scale(0.45 -0.45)">
       <use xlink:href="#DejaVuSans-30"/>
      </g>
     </g>
    </g>
    <g id="ytick_2">
     <g id="line2d_4">
      <g>
       <use xlink:href="#mc6f53b4a43" x="38.63149" y="42.396678" style="fill: #ffffff; stroke: #ffffff; stroke-width: 0.8"/>
      </g>
     </g>
     <g id="text_5">
      <!-- 1 -->
      <g style="fill: #ffffff" transform="translate(3.00024 59.493162)scale(0.45 -0.45)">
       <use xlink:href="#DejaVuSans-31"/>
      </g>
     </g>
    </g>
   </g>
   <g id="line2d_5">
    <path d="M 49.679747 98.689611 
L 51.911718 95.31238 
L 54.143689 92.004071 
L 56.37566 88.764686 
L 58.607631 85.594224 
L 60.839602 82.492685 
L 63.071573 79.460069 
L 65.303544 76.496376 
L 67.535515 73.601606 
L 69.767486 70.77576 
L 71.999457 68.018836 
L 74.231429 65.330836 
L 76.4634 62.711758 
L 78.695371 60.161604 
L 80.927342 57.680373 
L 83.159313 55.268065 
L 85.391284 52.92468 
L 87.623255 50.650218 
L 89.855226 48.444679 
L 92.087197 46.308063 
L 94.319168 44.24037 
L 96.551139 42.241601 
L 98.78311 40.311754 
L 101.015081 38.450831 
L 103.247052 36.658831 
L 105.479024 34.935753 
L 107.710995 33.281599 
L 109.942966 31.696368 
L 112.174937 30.18006 
L 114.406908 28.732675 
L 116.638879 27.354214 
L 118.87085 26.044675 
L 121.102821 24.804059 
L 123.334792 23.632367 
L 125.566763 22.529597 
L 127.798734 21.495751 
L 130.030705 20.530828 
L 132.262676 19.634828 
L 134.494647 18.807751 
L 136.726619 18.049597 
L 138.95859 17.360366 
L 141.190561 16.740058 
L 143.422532 16.188673 
L 145.654503 15.706211 
L 147.886474 15.292673 
L 150.118445 14.948058 
L 152.350416 14.672365 
L 154.582387 14.465596 
L 156.814358 14.32775 
L 159.046329 14.258827 
L 161.2783 14.258827 
L 163.510271 14.32775 
L 165.742242 14.465596 
L 167.974214 14.672365 
L 170.206185 14.948058 
L 172.438156 15.292673 
L 174.670127 15.706211 
L 176.902098 16.188673 
L 179.134069 16.740058 
L 181.36604 17.360366 
L 183.598011 18.049597 
L 185.829982 18.807751 
L 188.061953 19.634828 
L 190.293924 20.530828 
L 192.525895 21.495751 
L 194.757866 22.529597 
L 196.989837 23.632367 
L 199.221808 24.804059 
L 201.45378 26.044675 
L 203.685751 27.354214 
L 205.917722 28.732675 
L 208.149693 30.18006 
L 210.381664 31.696368 
L 212.613635 33.281599 
L 214.845606 34.935753 
L 217.077577 36.658831 
L 219.309548 38.450831 
L 221.541519 40.311754 
L 223.77349 42.241601 
L 226.005461 44.24037 
L 228.237432 46.308063 
L 230.469403 48.444679 
L 232.701375 50.650218 
L 234.933346 52.92468 
L 237.165317 55.268065 
L 239.397288 57.680373 
L 241.629259 60.161604 
L 243.86123 62.711758 
L 246.093201 65.330836 
L 248.325172 68.018836 
L 250.557143 70.77576 
L 252.789114 73.601606 
L 255.021085 76.496376 
L 257.253056 79.460069 
L 259.485027 82.492685 
L 261.716998 85.594224 
L 263.94897 88.764686 
L 266.180941 92.004071 
L 268.412912 95.31238 
L 270.644883 98.689611 
" clip-path="url(#p7b227b1925)" style="fill: none; stroke: #ffffff; stroke-width: 10; stroke-linecap: square"/>
   </g>
   <g id="line2d_6">
    <path d="M 160.162315 109.948197 
L 160.162315 3.00024 
" clip-path="url(#p7b227b1925)" style="fill: none; stroke-dasharray: 7,11.55; stroke-dashoffset: 0; stroke: #ff0000; stroke-width: 7"/>
   </g>
   <g id="patch_3">
    <path d="M 38.63149 109.948197 
L 38.63149 3.00024 
" style="fill: none; stroke: #ffffff; stroke-width: 0.8; stroke-linejoin: miter; stroke-linecap: square"/>
   </g>
   <g id="patch_4">
    <path d="M 281.69314 109.948197 
L 281.69314 3.00024 
" style="fill: none; stroke: #000000; stroke-width: 0.8; stroke-linejoin: miter; stroke-linecap: square"/>
   </g>
   <g id="patch_5">
    <path d="M 38.63149 109.948197 
L 281.69314 109.948197 
" style="fill: none; stroke: #ffffff; stroke-width: 0.8; stroke-linejoin: miter; stroke-linecap: square"/>
   </g>
   <g id="patch_6">
    <path d="M 38.63149 3.00024 
L 281.69314 3.00024 
" style="fill: none; stroke: #000000; stroke-width: 0.8; stroke-linejoin: miter; stroke-linecap: square"/>
   </g>
  </g>
 </g>
 <defs>
  <clipPath id="p7b227b1925">
   <rect x="38.63149" y="3.00024" width="243.06165" height="106.947958"/>
  </clipPath>
 </defs>
</svg>
