<svg xmlns="http://www.w3.org/2000/svg" viewBox="0 0 256.16 52.94"><title>Logo_GTCN</title><path d="M16.49,17.47c0-1.38-.09-1.57-.77-1.75a2.65,2.65,0,0,0-.58-.06c-.06,0-.13,0-.13-.1s.08-.13.27-.13c.76,0,1.84.05,1.92.05s1.16-.05,1.67-.05c.18,0,.27,0,.27.13s-.07.1-.14.1a2.08,2.08,0,0,0-.42.06c-.46.08-.6.37-.63,1s0,1.06,0,1.77v1.91c0,.76,0,.8-.22.91a8.33,8.33,0,0,1-3.6.77A8.42,8.42,0,0,1,8.5,20.22a6.62,6.62,0,0,1-2-4.84,6.47,6.47,0,0,1,2.84-5.6,8.38,8.38,0,0,1,4.52-1.07A14.45,14.45,0,0,1,16.44,9a8.14,8.14,0,0,0,1.37.17c.17,0,.21.09.21.15a21.57,21.57,0,0,0-.12,2.42c0,.27,0,.35-.16.35s-.1-.1-.11-.25a2.74,2.74,0,0,0-.36-1.12c-.43-.65-1.8-1.38-4-1.38a5.41,5.41,0,0,0-3.63,1.12A5.46,5.46,0,0,0,8,14.78a6.91,6.91,0,0,0,1.81,4.71,6.18,6.18,0,0,0,4.45,1.82A4.6,4.6,0,0,0,16.15,21a.61.61,0,0,0,.34-.59Z" transform="translate(-6.32 -8.71)" style="fill:#a1203b"/><path d="M22.68,15.05c0-2.24,0-2.65,0-3.11s-.12-.73-.61-.8l-.51,0A.15.15,0,0,1,21.4,11c0-.08.07-.12.24-.12.68,0,1.68,0,1.77,0l1.87,0a4.91,4.91,0,0,1,2.78.63,2.52,2.52,0,0,1,1,2,4.22,4.22,0,0,1-1.84,3.3c1.23,1.53,2.27,2.84,3.13,3.74a2.7,2.7,0,0,0,1.67,1,2.8,2.8,0,0,0,.53,0,.13.13,0,0,1,.13.12c0,.09-.08.12-.36.12h-.93a3,3,0,0,1-1.6-.29,7.66,7.66,0,0,1-2-2.12c-.63-.78-1.29-1.72-1.61-2.11a.24.24,0,0,0-.21-.09l-1.9,0c-.07,0-.1,0-.1.12v.34c0,1.39,0,2.52.07,3.11.05.43.13.7.59.77a6.18,6.18,0,0,0,.66.06c.11,0,.12.07.12.12s-.07.12-.24.12c-.81,0-1.76-.05-1.83-.05s-1,.05-1.48.05c-.15,0-.24,0-.24-.12a.12.12,0,0,1,.12-.12,2.42,2.42,0,0,0,.46-.06c.29-.07.32-.34.39-.77a27.81,27.81,0,0,0,.09-3.13ZM24,16.28a.2.2,0,0,0,.1.18,5.06,5.06,0,0,0,1.65.22,1.93,1.93,0,0,0,1.12-.25,2.59,2.59,0,0,0,.9-2.21c0-1.8-1-2.84-2.58-2.84a5.67,5.67,0,0,0-1.07.09.17.17,0,0,0-.12.17Z" transform="translate(-6.32 -8.71)" style="fill:#a1203b"/><path d="M36.46,11.16c.19-.48.26-.56.36-.56s.2.2.36.53c.27.61,2.66,6.57,3.58,8.77.55,1.29,1,1.48,1.28,1.58a2,2,0,0,0,.59.08c.09,0,.19,0,.19.12s-.17.12-.34.12-1.33,0-2.36,0c-.29,0-.53,0-.53-.1s0-.07.1-.11a.27.27,0,0,0,.14-.39l-1.35-3.31c0-.07,0-.09-.13-.09H34.9a.16.16,0,0,0-.15.12L33.9,20.2a3,3,0,0,0-.23,1c0,.29.26.39.51.39h.14c.12,0,.15.05.15.12s-.08.12-.22.12c-.35,0-1.17-.05-1.34-.05s-.9.05-1.51.05c-.19,0-.29,0-.29-.12a.13.13,0,0,1,.13-.12,3.52,3.52,0,0,0,.45,0c.68-.09,1-.6,1.25-1.33Zm1.67,6c.07,0,.07,0,0-.1l-1.48-4c-.09-.22-.17-.22-.26,0l-1.39,4c0,.06,0,.1.05.1Z" transform="translate(-6.32 -8.71)" style="fill:#a1203b"/><path d="M44.79,15.05c0-2.24,0-2.65,0-3.11s-.12-.73-.61-.8l-.51,0a.14.14,0,0,1-.12-.12c0-.08.06-.12.23-.12.69,0,1.65,0,1.74,0s1.12,0,2,0c1.5,0,4.24-.13,6,1.65A5.1,5.1,0,0,1,55,16.19a5.79,5.79,0,0,1-1.62,4.06,6,6,0,0,1-4.54,1.67c-.64,0-1.44-.05-2.09-.08s-1.15-.09-1.22-.09l-.61,0-.9,0c-.16,0-.24,0-.24-.12a.11.11,0,0,1,.12-.12,2.53,2.53,0,0,0,.46-.06c.28-.07.32-.34.39-.77a31.27,31.27,0,0,0,.08-3.13Zm1.36,1.57c0,1.53,0,2.87,0,3.14a2.77,2.77,0,0,0,.17,1c.19.27.71.58,2.48.58a5,5,0,0,0,3.5-1.31,4.88,4.88,0,0,0,1.18-3.44A5,5,0,0,0,52.08,13C50.67,11.59,49,11.4,47.24,11.4a4,4,0,0,0-.9.1.25.25,0,0,0-.19.29Z" transform="translate(-6.32 -8.71)" style="fill:#a1203b"/><path d="M57.78,15.05c0-2.24,0-2.65,0-3.11s-.12-.73-.62-.8l-.51,0A.15.15,0,0,1,56.5,11c0-.08.07-.12.24-.12.68,0,1.58,0,1.72,0s1.07,0,1.51,0c.17,0,.26,0,.26.12a.15.15,0,0,1-.14.12,1.91,1.91,0,0,0-.37,0c-.39.07-.48.33-.51.8s0,.87,0,3.11v2c0,2.09.46,3,1.11,3.53a2.93,2.93,0,0,0,2.23.78,3.09,3.09,0,0,0,2.31-1,5.36,5.36,0,0,0,.85-3.5V15.05c0-2.24,0-2.65,0-3.11s-.1-.73-.59-.8l-.51,0a.13.13,0,0,1-.12-.12c0-.08.07-.12.24-.12.66,0,1.53,0,1.61,0s.82,0,1.26,0c.17,0,.24,0,.24.12a.13.13,0,0,1-.12.12,1.91,1.91,0,0,0-.37,0c-.41.09-.5.33-.53.8s0,.87,0,3.11V16.6c0,1.56-.2,3.31-1.39,4.33A4.52,4.52,0,0,1,62.2,22a4.7,4.7,0,0,1-3.11-1c-.73-.68-1.31-1.68-1.31-3.79Z" transform="translate(-6.32 -8.71)" style="fill:#a1203b"/><path d="M73,11.16c.19-.48.26-.56.36-.56s.21.2.36.53c.27.61,2.67,6.57,3.58,8.77.55,1.29,1,1.48,1.28,1.58a2,2,0,0,0,.6.08c.08,0,.18,0,.18.12s-.17.12-.34.12-1.32,0-2.36,0c-.29,0-.53,0-.53-.1s0-.07.1-.11a.27.27,0,0,0,.14-.39L75,17.86c0-.07,0-.09-.14-.09H71.43a.16.16,0,0,0-.15.12l-.85,2.31a2.93,2.93,0,0,0-.22,1c0,.29.25.39.51.39h.13c.12,0,.16.05.16.12s-.09.12-.23.12c-.35,0-1.17-.05-1.34-.05s-.9.05-1.51.05c-.19,0-.29,0-.29-.12a.13.13,0,0,1,.14-.12,3.49,3.49,0,0,0,.44,0c.68-.09,1-.6,1.26-1.33Zm1.67,6c.07,0,.07,0,0-.1l-1.48-4c-.08-.22-.17-.22-.25,0l-1.4,4c0,.06,0,.1,0,.1Z" transform="translate(-6.32 -8.71)" style="fill:#a1203b"/><path d="M83.5,17.6c0,1.4,0,2.54.07,3.13.05.43.12.7.58.77a6.29,6.29,0,0,0,.68.06.11.11,0,0,1,.12.12c0,.07-.07.12-.24.12-.82,0-1.77-.05-1.86-.05s-1.1.05-1.54.05c-.17,0-.24,0-.24-.12s0-.1.12-.1a1.75,1.75,0,0,0,.44-.07c.31-.07.39-.35.44-.78.07-.59.07-1.73.07-3.13V11.53l-2.16,0c-.93,0-1.29.12-1.51.46a2,2,0,0,0-.24.46c0,.12-.08.13-.15.13a.11.11,0,0,1-.1-.12c0-.15.29-1.44.32-1.56s.1-.27.15-.27a5.22,5.22,0,0,0,.66.17c.43.05,1,.07,1.18.07h5.64A8,8,0,0,0,87,10.84a3.83,3.83,0,0,1,.43-.07c.07,0,.07.08.07.17,0,.44-.06,1.48-.06,1.65s-.06.19-.13.19-.1-.06-.12-.26l0-.15c0-.45-.37-.77-1.8-.8l-1.87,0Z" transform="translate(-6.32 -8.71)" style="fill:#a1203b"/><path d="M90.61,15.05c0-2.24,0-2.65,0-3.11s-.12-.73-.61-.8l-.51,0a.15.15,0,0,1-.12-.12c0-.08.07-.12.24-.12.68,0,1.65,0,1.73,0h3.57a6.8,6.8,0,0,0,.68-.09.86.86,0,0,1,.21-.07s.06.07.06.14-.08.27-.11.68c0,.13-.06.78-.09.95s-.07.15-.14.15-.11-.06-.11-.18a1.52,1.52,0,0,0-.09-.51c-.1-.24-.25-.34-1.07-.45-.25,0-2,0-2.16,0s-.08,0-.08.16v3.92c0,.1,0,.16.08.16s2.16,0,2.5,0,.58,0,.73-.2.17-.19.22-.19.09,0,.09.12a6.35,6.35,0,0,0-.12.8c0,.29-.07.83-.07.93s0,.28-.14.28-.1-.06-.1-.14a1.27,1.27,0,0,0-.07-.48c0-.2-.18-.37-.76-.44-.41-.05-2-.07-2.26-.07-.09,0-.1.05-.1.11v1.2c0,.5,0,2.18,0,2.47,0,1,.3,1.15,1.78,1.15a5.1,5.1,0,0,0,1.5-.15,1.1,1.1,0,0,0,.68-1c0-.17.07-.22.15-.22s.1.12.1.22a12.81,12.81,0,0,1-.2,1.39c-.1.38-.26.38-.83.38-1.13,0-2,0-2.61-.06s-1,0-1.24,0l-.64,0-.87,0c-.15,0-.24,0-.24-.12a.12.12,0,0,1,.12-.12c.14,0,.32,0,.46-.06.29-.06.32-.34.39-.77a27.81,27.81,0,0,0,.09-3.13Z" transform="translate(-6.32 -8.71)" style="fill:#a1203b"/><path d="M109.51,16.87c0,1.63,0,3,.08,3.69.06.49.16.87.67.94.24,0,.61.06.76.06s.14.05.14.11-.09.13-.27.13c-.94,0-2-.05-2.09-.05s-1.16.05-1.67.05c-.19,0-.27,0-.27-.13s0-.11.13-.11a2.84,2.84,0,0,0,.51-.06c.34-.07.43-.45.5-.94.08-.71.08-2.06.08-3.69V9.68l-2.51,0c-1.06,0-1.47.13-1.74.54a3.5,3.5,0,0,0-.29.53c-.05.13-.1.17-.17.17s-.08-.05-.08-.16.34-1.63.37-1.76.1-.33.17-.33a3.41,3.41,0,0,0,.75.21c.49.05,1.14.08,1.34.08h6.38a6.92,6.92,0,0,0,1.2-.08c.26,0,.41-.09.48-.09s.08.1.08.21c0,.51,0,1.68,0,1.87s-.05.22-.11.22-.12-.05-.14-.29l0-.19c0-.51-.46-.9-2.09-.93l-2.14,0Z" transform="translate(-6.32 -8.71)" style="fill:#a1203b"/><path d="M116.91,15.05c0-2.24,0-2.65,0-3.11s-.12-.73-.61-.8l-.51,0a.15.15,0,0,1-.12-.12c0-.08.07-.12.24-.12.68,0,1.68,0,1.77,0l1.87,0a4.91,4.91,0,0,1,2.78.63,2.52,2.52,0,0,1,1,2,4.22,4.22,0,0,1-1.84,3.3c1.23,1.53,2.27,2.84,3.13,3.74a2.7,2.7,0,0,0,1.67,1,2.8,2.8,0,0,0,.53,0,.13.13,0,0,1,.13.12c0,.09-.08.12-.36.12h-.93a3,3,0,0,1-1.6-.29,7.66,7.66,0,0,1-2-2.12c-.63-.78-1.29-1.72-1.61-2.11a.24.24,0,0,0-.21-.09l-1.9,0c-.07,0-.1,0-.1.12v.34c0,1.39,0,2.52.07,3.11,0,.43.13.7.59.77a6.18,6.18,0,0,0,.66.06.11.11,0,0,1,.12.12c0,.07-.07.12-.24.12-.81,0-1.76-.05-1.83-.05s-1,.05-1.48.05c-.15,0-.24,0-.24-.12a.12.12,0,0,1,.12-.12,2.42,2.42,0,0,0,.46-.06c.29-.07.32-.34.39-.77a27.81,27.81,0,0,0,.09-3.13Zm1.29,1.23a.2.2,0,0,0,.1.18,5.06,5.06,0,0,0,1.65.22,1.93,1.93,0,0,0,1.12-.25,2.59,2.59,0,0,0,.9-2.21c0-1.8-1-2.84-2.58-2.84a5.67,5.67,0,0,0-1.07.09.17.17,0,0,0-.12.17Z" transform="translate(-6.32 -8.71)" style="fill:#a1203b"/><path d="M130.69,11.16c.19-.48.26-.56.36-.56s.2.2.36.53c.27.61,2.66,6.57,3.58,8.77.55,1.29.95,1.48,1.28,1.58a2,2,0,0,0,.59.08c.09,0,.19,0,.19.12s-.17.12-.34.12-1.33,0-2.36,0c-.29,0-.53,0-.53-.1s0-.07.1-.11a.27.27,0,0,0,.14-.39l-1.35-3.31c0-.07-.05-.09-.13-.09h-3.45a.16.16,0,0,0-.15.12l-.86,2.31a3.2,3.2,0,0,0-.22,1c0,.29.26.39.51.39h.14c.12,0,.15.05.15.12s-.08.12-.22.12c-.36,0-1.17-.05-1.34-.05s-.9.05-1.51.05c-.19,0-.29,0-.29-.12a.13.13,0,0,1,.13-.12,3.52,3.52,0,0,0,.45,0c.68-.09,1-.6,1.25-1.33Zm1.67,6c.07,0,.07,0,0-.1l-1.48-4c-.09-.22-.17-.22-.26,0l-1.39,4c0,.06,0,.1.05.1Z" transform="translate(-6.32 -8.71)" style="fill:#a1203b"/><path d="M140.38,17.6c0,1.4,0,2.54.07,3.13.05.43.1.7.54.77.22,0,.55.06.68.06a.11.11,0,0,1,.12.12c0,.07-.07.12-.24.12-.83,0-1.8-.05-1.86-.05s-1,.05-1.48.05c-.16,0-.24,0-.24-.12a.11.11,0,0,1,.12-.12,2.53,2.53,0,0,0,.46-.06c.28-.07.34-.34.39-.77.06-.59.08-1.73.08-3.13V15.05c0-2.24,0-2.65,0-3.11s-.16-.71-.48-.78a3,3,0,0,0-.46-.05.13.13,0,0,1-.12-.12c0-.08.07-.12.24-.12.5,0,1.43,0,1.52,0s1,0,1.49,0c.17,0,.24,0,.24.12a.15.15,0,0,1-.12.12,1.86,1.86,0,0,0-.37,0c-.41.09-.5.29-.53.8s0,.87,0,3.11Z" transform="translate(-6.32 -8.71)" style="fill:#a1203b"/><path d="M145.92,19.83c0,1.19.17,1.55.58,1.65a3.35,3.35,0,0,0,.75.08.12.12,0,0,1,.12.12c0,.09-.1.12-.27.12-.85,0-1.45-.05-1.58-.05s-.77.05-1.45.05c-.15,0-.24,0-.24-.12a.12.12,0,0,1,.12-.12,2.21,2.21,0,0,0,.61-.08c.38-.1.43-.5.43-1.8V11.4c0-.58.08-.73.2-.73s.43.29.58.44,2.41,2.55,4.73,4.93c1.48,1.53,3.07,3.25,3.53,3.72l-.15-7.24c0-.93-.1-1.26-.56-1.34a4.94,4.94,0,0,0-.73-.07.12.12,0,0,1-.12-.14c0-.08.12-.1.29-.1.68,0,1.39,0,1.56,0s.66,0,1.28,0c.15,0,.27,0,.27.1a.17.17,0,0,1-.17.14,1.93,1.93,0,0,0-.36,0c-.49.11-.53.39-.53,1.26l0,8.47c0,.95,0,1-.12,1s-.3-.12-1.14-.88c-.15-.14-2.31-2.26-3.89-3.91-1.73-1.82-3.42-3.59-3.88-4.1Z" transform="translate(-6.32 -8.71)" style="fill:#a1203b"/><path d="M160.48,17.6c0,1.4,0,2.54.06,3.13.05.43.11.7.55.77a6.75,6.75,0,0,0,.68.06.12.12,0,0,1,.12.12c0,.07-.07.12-.24.12-.83,0-1.8-.05-1.87-.05s-1,.05-1.48.05c-.15,0-.24,0-.24-.12a.12.12,0,0,1,.12-.12,2.42,2.42,0,0,0,.46-.06c.29-.07.34-.34.39-.77.07-.59.09-1.73.09-3.13V15.05c0-2.24,0-2.65,0-3.11s-.15-.71-.47-.78a3.17,3.17,0,0,0-.46-.05A.13.13,0,0,1,158,11c0-.08.07-.12.24-.12.49,0,1.42,0,1.51,0s1,0,1.49,0c.17,0,.24,0,.24.12a.15.15,0,0,1-.12.12,1.86,1.86,0,0,0-.37,0c-.41.09-.49.29-.53.8s0,.87,0,3.11Z" transform="translate(-6.32 -8.71)" style="fill:#a1203b"/><path d="M166,19.83c0,1.19.17,1.55.58,1.65a3.32,3.32,0,0,0,.74.08.12.12,0,0,1,.12.12c0,.09-.1.12-.27.12-.85,0-1.44-.05-1.58-.05s-.77.05-1.44.05c-.16,0-.24,0-.24-.12a.12.12,0,0,1,.12-.12,2.21,2.21,0,0,0,.61-.08c.37-.1.42-.5.42-1.8V11.4c0-.58.09-.73.21-.73s.42.29.58.44,2.41,2.55,4.72,4.93c1.48,1.53,3.08,3.25,3.54,3.72L174,12.52c0-.93-.1-1.26-.56-1.34a4.94,4.94,0,0,0-.73-.07.12.12,0,0,1-.12-.14c0-.08.12-.1.29-.1.68,0,1.4,0,1.57,0s.66,0,1.27,0c.15,0,.27,0,.27.1a.17.17,0,0,1-.17.14,1.93,1.93,0,0,0-.36,0c-.49.11-.52.39-.52,1.26l0,8.47c0,.95,0,1-.12,1s-.3-.12-1.13-.88c-.16-.14-2.32-2.26-3.9-3.91-1.73-1.82-3.41-3.59-3.87-4.1Z" transform="translate(-6.32 -8.71)" style="fill:#a1203b"/><path d="M186.35,18.11c0-1.17,0-1.34-.65-1.46a4.12,4.12,0,0,0-.51,0,.15.15,0,0,1-.12-.12c0-.1.07-.12.24-.12.68,0,1.69,0,1.77,0l1.46,0c.17,0,.24,0,.24.12a.15.15,0,0,1-.12.12,1.86,1.86,0,0,0-.37,0c-.41.07-.53.29-.56.8s0,.88,0,1.5v1.61c0,.66,0,.68-.21.78a7.47,7.47,0,0,1-3.17.65,7.58,7.58,0,0,1-4.93-1.55,5.51,5.51,0,0,1-1.79-4.11,5.41,5.41,0,0,1,2.5-4.74,7.48,7.48,0,0,1,4-.92,12.23,12.23,0,0,1,2.29.24,7.41,7.41,0,0,0,1.21.15c.15,0,.19.07.19.13,0,.21-.09.6-.09,2,0,.24-.07.31-.17.31s-.1-.08-.1-.22a2.14,2.14,0,0,0-.34-1c-.37-.55-1.51-1.12-3.45-1.12a4.73,4.73,0,0,0-3.13.93A4.48,4.48,0,0,0,179,15.82a5.76,5.76,0,0,0,1.58,4,5.33,5.33,0,0,0,3.83,1.52,3.74,3.74,0,0,0,1.61-.28c.19-.1.31-.17.31-.44Z" transform="translate(-6.32 -8.71)" style="fill:#a1203b"/><path d="M198.25,20.2a6.5,6.5,0,0,1-2.06-5,6.76,6.76,0,0,1,1.91-4.64,6.85,6.85,0,0,1,5.18-1.82,14,14,0,0,1,2.47.21,13.6,13.6,0,0,0,1.73.25c.19,0,.22.09.22.19s0,.34-.08,1,0,1.5-.06,1.75-.05.36-.15.36-.13-.12-.13-.36a2.35,2.35,0,0,0-.72-1.73,5.64,5.64,0,0,0-3.4-1c-2.26,0-3.31.66-3.91,1.24A5.69,5.69,0,0,0,197.72,15a6.14,6.14,0,0,0,6.14,6.22,4,4,0,0,0,3-.85,3.45,3.45,0,0,0,.63-1.43c0-.19.06-.26.17-.26s.11.12.11.26a17.52,17.52,0,0,1-.37,2.18c-.1.32-.14.35-.44.49a9.9,9.9,0,0,1-3.06.39A7.83,7.83,0,0,1,198.25,20.2Z" transform="translate(-6.32 -8.71)" style="fill:#a1203b"/><path d="M211.42,15.05c0-2.24,0-2.65,0-3.11s-.12-.73-.61-.8l-.51,0a.15.15,0,0,1-.12-.12c0-.08.07-.12.24-.12.68,0,1.65,0,1.73,0h3.57a6.8,6.8,0,0,0,.68-.09.86.86,0,0,1,.21-.07s.06.07.06.14-.08.27-.12.68c0,.13-.05.78-.08.95s-.07.15-.14.15-.12-.06-.12-.18a1.48,1.48,0,0,0-.08-.51c-.1-.24-.26-.34-1.07-.45-.26,0-2,0-2.16,0s-.09,0-.09.16v3.92c0,.1,0,.16.09.16s2.16,0,2.5,0,.58,0,.73-.2.17-.19.22-.19.09,0,.09.12a6.35,6.35,0,0,0-.12.8c0,.29-.07.83-.07.93s0,.28-.14.28-.1-.06-.1-.14a1.27,1.27,0,0,0-.07-.48c0-.2-.19-.37-.76-.44-.41-.05-2-.07-2.26-.07-.09,0-.11.05-.11.11v1.2c0,.5,0,2.18,0,2.47,0,1,.31,1.15,1.79,1.15a5.14,5.14,0,0,0,1.5-.15,1.1,1.1,0,0,0,.68-1c0-.17.06-.22.15-.22s.1.12.1.22a12.81,12.81,0,0,1-.2,1.39c-.11.38-.26.38-.84.38-1.12,0-2,0-2.6-.06s-1,0-1.24,0l-.64,0-.87,0c-.15,0-.24,0-.24-.12a.11.11,0,0,1,.12-.12c.14,0,.32,0,.46-.06.29-.06.32-.34.39-.77a31.27,31.27,0,0,0,.08-3.13Z" transform="translate(-6.32 -8.71)" style="fill:#a1203b"/><path d="M221.42,19.83c0,1.19.17,1.55.58,1.65a3.35,3.35,0,0,0,.75.08.12.12,0,0,1,.12.12c0,.09-.11.12-.28.12-.85,0-1.44-.05-1.58-.05s-.76.05-1.44.05c-.16,0-.24,0-.24-.12a.12.12,0,0,1,.12-.12,2.21,2.21,0,0,0,.61-.08c.37-.1.43-.5.43-1.8V11.4c0-.58.08-.73.2-.73s.42.29.58.44S223.68,13.66,226,16c1.48,1.53,3.08,3.25,3.54,3.72l-.15-7.24c0-.93-.11-1.26-.57-1.34a4.94,4.94,0,0,0-.73-.07A.12.12,0,0,1,228,11c0-.08.12-.1.29-.1.68,0,1.4,0,1.57,0s.66,0,1.27,0c.16,0,.27,0,.27.1a.17.17,0,0,1-.17.14,1.9,1.9,0,0,0-.35,0c-.5.11-.53.39-.53,1.26l0,8.47c0,.95,0,1-.12,1s-.31-.12-1.14-.88c-.15-.14-2.31-2.26-3.89-3.91-1.74-1.82-3.42-3.59-3.88-4.1Z" transform="translate(-6.32 -8.71)" style="fill:#a1203b"/><path d="M238.22,17.6c0,1.4,0,2.54.06,3.13.05.43.12.7.58.77a6.75,6.75,0,0,0,.68.06.11.11,0,0,1,.12.12c0,.07-.07.12-.24.12-.81,0-1.77-.05-1.85-.05s-1.11.05-1.55.05c-.17,0-.23,0-.23-.12a.1.1,0,0,1,.11-.1,1.76,1.76,0,0,0,.45-.07c.3-.07.39-.35.44-.78.07-.59.07-1.73.07-3.13V11.53l-2.16,0c-.94,0-1.29.12-1.52.46a1.85,1.85,0,0,0-.23.46c0,.12-.09.13-.16.13a.11.11,0,0,1-.1-.12c0-.15.29-1.44.32-1.56s.11-.27.16-.27a4.73,4.73,0,0,0,.66.17c.42.05,1,.07,1.17.07h5.65a8,8,0,0,0,1.07-.07,3.79,3.79,0,0,1,.42-.07c.07,0,.07.08.07.17,0,.44-.05,1.48-.05,1.65s-.07.19-.14.19-.1-.06-.12-.26v-.15c0-.45-.38-.77-1.81-.8l-1.86,0Z" transform="translate(-6.32 -8.71)" style="fill:#a1203b"/><path d="M245.32,15.05c0-2.24,0-2.65,0-3.11s-.12-.73-.61-.8l-.51,0a.14.14,0,0,1-.12-.12c0-.08.06-.12.23-.12.68,0,1.69,0,1.77,0l1.87,0a4.94,4.94,0,0,1,2.79.63,2.54,2.54,0,0,1,1,2,4.25,4.25,0,0,1-1.84,3.3c1.22,1.53,2.26,2.84,3.13,3.74a2.71,2.71,0,0,0,1.66,1,2.86,2.86,0,0,0,.53,0,.13.13,0,0,1,.14.12c0,.09-.09.12-.36.12h-.93a3,3,0,0,1-1.6-.29,7.52,7.52,0,0,1-2-2.12c-.63-.78-1.29-1.72-1.62-2.11a.22.22,0,0,0-.2-.09l-1.9,0c-.07,0-.11,0-.11.12v.34c0,1.39,0,2.52.07,3.11,0,.43.14.7.6.77a6,6,0,0,0,.66.06.11.11,0,0,1,.12.12c0,.07-.07.12-.24.12-.82,0-1.77-.05-1.84-.05s-1,.05-1.47.05c-.16,0-.24,0-.24-.12a.11.11,0,0,1,.12-.12,2.53,2.53,0,0,0,.46-.06c.28-.07.32-.34.39-.77a31.27,31.27,0,0,0,.08-3.13Zm1.29,1.23a.21.21,0,0,0,.11.18,5,5,0,0,0,1.64.22,2,2,0,0,0,1.13-.25,2.59,2.59,0,0,0,.9-2.21c0-1.8-1-2.84-2.59-2.84a5.86,5.86,0,0,0-1.07.09.17.17,0,0,0-.12.17Z" transform="translate(-6.32 -8.71)" style="fill:#a1203b"/><path d="M256.75,15.05c0-2.24,0-2.65,0-3.11s-.12-.73-.61-.8l-.51,0a.15.15,0,0,1-.12-.12c0-.08.07-.12.24-.12.68,0,1.65,0,1.73,0H261a6.8,6.8,0,0,0,.68-.09.86.86,0,0,1,.21-.07c.05,0,.06.07.06.14s-.08.27-.12.68c0,.13,0,.78-.08.95s-.07.15-.14.15-.12-.06-.12-.18a1.48,1.48,0,0,0-.08-.51c-.1-.24-.25-.34-1.07-.45-.26,0-2,0-2.16,0s-.08,0-.08.16v3.92c0,.1,0,.16.08.16s2.16,0,2.5,0,.58,0,.73-.2.17-.19.22-.19.09,0,.09.12a6.35,6.35,0,0,0-.12.8c0,.29-.07.83-.07.93s0,.28-.14.28-.1-.06-.1-.14a1.27,1.27,0,0,0-.07-.48c-.05-.2-.18-.37-.76-.44-.41-.05-2-.07-2.26-.07-.09,0-.1.05-.1.11v1.2c0,.5,0,2.18,0,2.47,0,1,.3,1.15,1.78,1.15a5.1,5.1,0,0,0,1.5-.15,1.1,1.1,0,0,0,.68-1c0-.17.06-.22.15-.22s.1.12.1.22a12.81,12.81,0,0,1-.2,1.39c-.11.38-.26.38-.84.38-1.12,0-2,0-2.6-.06s-1,0-1.24,0l-.64,0-.87,0c-.15,0-.24,0-.24-.12a.12.12,0,0,1,.12-.12c.14,0,.32,0,.46-.06.29-.06.32-.34.39-.77a27.81,27.81,0,0,0,.09-3.13Z" transform="translate(-6.32 -8.71)" style="fill:#a1203b"/><path d="M12.25,31.07c3.37,0,5.92,2,5.92,5.42a5.79,5.79,0,0,1-6,5.9,5.54,5.54,0,0,1-5.85-5.68A5.72,5.72,0,0,1,12.25,31.07Zm.34,10.72c1.35,0,4.05-.71,4.05-4.89,0-3.47-2.11-5.29-4.47-5.29s-4.3,1.56-4.3,4.71C7.87,39.69,9.89,41.79,12.59,41.79Z" transform="translate(-6.32 -8.71)" style="fill:#a1203b"/><path d="M21.3,35.45c0-2.24,0-2.65,0-3.11s-.11-.73-.61-.8l-.51,0a.15.15,0,0,1-.12-.12c0-.08.07-.12.24-.12.68,0,1.62,0,1.7,0,.29,0,3.54,0,3.88,0a3.37,3.37,0,0,0,.68-.07c.08,0,.15-.09.2-.09s.1.07.1.14-.07.27-.12.68c0,.13,0,.78-.06,1s-.07.15-.14.15-.12-.07-.12-.17a1.48,1.48,0,0,0-.14-.54,1.1,1.1,0,0,0-1-.43l-2.45,0c-.09,0-.12,0-.12.15v4c0,.08,0,.13.1.13h2c.25,0,.48,0,.68,0,.36,0,.56-.09.7-.26s.13-.15.18-.15.09.05.09.12a6.43,6.43,0,0,0-.14.8c0,.29,0,.87,0,1s0,.29-.13.29S26,37.8,26,37.73a1.76,1.76,0,0,0-.1-.53c-.07-.2-.3-.39-.76-.46s-2.14,0-2.4,0c-.08,0-.1,0-.1.14V38c0,1.43,0,2.57.07,3.13s.13.7.54.77A6.75,6.75,0,0,0,24,42a.11.11,0,0,1,.12.12c0,.07-.07.12-.24.12-.83,0-1.8-.05-1.87-.05s-1,.05-1.48.05c-.15,0-.24,0-.24-.12a.12.12,0,0,1,.12-.12c.14,0,.33-.05.46-.06.29-.06.33-.34.39-.77A27.81,27.81,0,0,0,21.3,38Z" transform="translate(-6.32 -8.71)" style="fill:#a1203b"/><path d="M36.77,39.89c0,1.39.2,1.84.66,2a3.44,3.44,0,0,0,.85.1c.09,0,.14,0,.14.11s-.11.13-.31.13c-1,0-1.65-.05-1.8-.05s-.87.05-1.63.05c-.17,0-.27,0-.27-.13s.05-.11.13-.11a2.28,2.28,0,0,0,.7-.1c.42-.12.51-.61.51-2.16l0-9.74c0-.66,0-.85.18-.85s.43.38.6.55,2.78,3,5.4,5.83c1.69,1.8,3.54,3.87,4.08,4.43l-.19-8.63c0-1.11-.13-1.48-.66-1.62a5.21,5.21,0,0,0-.83-.08c-.12,0-.14-.05-.14-.12s.14-.12.34-.12c.77,0,1.58,0,1.77,0s.75,0,1.45,0c.18,0,.3,0,.3.12s-.07.12-.19.12a1.48,1.48,0,0,0-.4.05c-.56.12-.63.49-.63,1.51l0,10c0,1.13,0,1.21-.15,1.21s-.34-.19-1.24-1.09c-.19-.17-2.63-2.67-4.44-4.6-2-2.13-3.89-4.27-4.43-4.88Z" transform="translate(-6.32 -8.71)" style="fill:#a1203b"/><path d="M52,35.45c0-2.24,0-2.65,0-3.11s-.12-.73-.61-.8l-.51,0a.15.15,0,0,1-.12-.12c0-.08.07-.12.24-.12.68,0,1.65,0,1.73,0s3.23,0,3.57,0a6.8,6.8,0,0,0,.68-.09.86.86,0,0,1,.21-.07s.06.07.06.14-.08.27-.11.68c0,.13-.06.78-.09,1s-.07.15-.13.15-.12-.07-.12-.18a1.52,1.52,0,0,0-.09-.51c-.1-.24-.25-.34-1.07-.45-.25,0-2-.05-2.16-.05s-.08.05-.08.16V36c0,.1,0,.16.08.16s2.16,0,2.5,0,.58,0,.73-.2.17-.19.22-.19.09,0,.09.12a6.35,6.35,0,0,0-.12.8c0,.29-.07.83-.07.93s0,.28-.14.28-.1-.06-.1-.14a1.27,1.27,0,0,0-.07-.48c0-.2-.18-.37-.76-.44-.41,0-2-.07-2.26-.07-.09,0-.1.05-.1.11V38c0,.5,0,2.18,0,2.47,0,1,.3,1.15,1.78,1.15a5.1,5.1,0,0,0,1.5-.15,1.1,1.1,0,0,0,.68-1c0-.17.07-.22.15-.22s.1.12.1.22a12.81,12.81,0,0,1-.2,1.39c-.1.38-.26.38-.83.38-1.13,0-2,0-2.61-.06s-1,0-1.24,0l-.64,0-.87,0c-.15,0-.24,0-.24-.12a.12.12,0,0,1,.12-.12c.14,0,.32-.05.46-.06s.32-.34.39-.77A27.81,27.81,0,0,0,52,38Z" transform="translate(-6.32 -8.71)" style="fill:#a1203b"/><path d="M60.62,35.45c0-2.24,0-2.65,0-3.11s-.11-.73-.61-.8l-.51,0a.15.15,0,0,1-.12-.12c0-.08.07-.12.24-.12.68,0,1.58,0,1.72,0s1.07,0,1.51,0c.17,0,.26,0,.26.12a.15.15,0,0,1-.14.12,1.91,1.91,0,0,0-.37,0c-.39.07-.48.33-.51.8s0,.87,0,3.11v2c0,2.09.46,3,1.11,3.53a2.91,2.91,0,0,0,2.22.78,3.09,3.09,0,0,0,2.32-1,5.36,5.36,0,0,0,.85-3.5V35.45c0-2.24,0-2.65,0-3.11s-.1-.73-.59-.8l-.51,0a.13.13,0,0,1-.12-.12c0-.08.07-.12.24-.12.66,0,1.53,0,1.61,0s.82,0,1.26,0c.17,0,.24,0,.24.12a.13.13,0,0,1-.12.12,2.06,2.06,0,0,0-.38,0c-.4.09-.49.33-.52.8s0,.87,0,3.11V37c0,1.56-.2,3.31-1.39,4.33A4.52,4.52,0,0,1,65,42.39a4.68,4.68,0,0,1-3.11-1c-.73-.68-1.31-1.68-1.31-3.79Z" transform="translate(-6.32 -8.71)" style="fill:#a1203b"/><path d="M73.83,35.45c0-2.24,0-2.65,0-3.11s-.12-.73-.61-.8l-.51,0a.15.15,0,0,1-.12-.12c0-.08.07-.12.24-.12.68,0,1.68,0,1.77,0l1.87,0a5,5,0,0,1,2.79.63,2.54,2.54,0,0,1,1,2,4.23,4.23,0,0,1-1.83,3.3c1.22,1.53,2.26,2.84,3.12,3.74a2.72,2.72,0,0,0,1.67,1,2.8,2.8,0,0,0,.53.05.13.13,0,0,1,.13.12c0,.09-.08.12-.35.12h-.94a3,3,0,0,1-1.6-.29,7.66,7.66,0,0,1-2-2.12c-.63-.78-1.29-1.72-1.61-2.11a.23.23,0,0,0-.21-.09l-1.9,0c-.07,0-.1,0-.1.12V38c0,1.39,0,2.52.07,3.11,0,.43.13.7.59.77a6.42,6.42,0,0,0,.66.06c.11,0,.12.07.12.12s-.06.12-.23.12c-.82,0-1.77-.05-1.84-.05s-1,.05-1.48.05c-.15,0-.24,0-.24-.12a.12.12,0,0,1,.12-.12,2.32,2.32,0,0,0,.46-.06c.29-.07.32-.34.39-.77A27.81,27.81,0,0,0,73.83,38Zm1.29,1.23a.2.2,0,0,0,.1.18,5.06,5.06,0,0,0,1.65.22A1.92,1.92,0,0,0,78,36.83a2.59,2.59,0,0,0,.9-2.21c0-1.8-1-2.84-2.58-2.84a5.76,5.76,0,0,0-1.07.09.17.17,0,0,0-.12.17Z" transform="translate(-6.32 -8.71)" style="fill:#a1203b"/><path d="M89.72,31.07c3.37,0,5.92,2,5.92,5.42a5.79,5.79,0,0,1-6,5.9,5.54,5.54,0,0,1-5.85-5.68A5.72,5.72,0,0,1,89.72,31.07Zm.34,10.72c1.34,0,4-.71,4-4.89,0-3.47-2.11-5.29-4.47-5.29s-4.3,1.56-4.3,4.71C85.34,39.69,87.36,41.79,90.06,41.79Z" transform="translate(-6.32 -8.71)" style="fill:#a1203b"/><path d="M98,42c-.21-.1-.22-.16-.22-.55,0-.71.06-1.29.08-1.53s0-.23.12-.23.14.05.14.17a1.93,1.93,0,0,0,2.41,2c1.48,0,2.24-.83,2.24-1.92s-.56-1.53-1.88-2.52l-.68-.51C98.56,35.66,98,34.77,98,33.77c0-1.7,1.35-2.72,3.32-2.72a7,7,0,0,1,1.55.17,1.85,1.85,0,0,0,.52.07c.12,0,.16,0,.16.1a14.84,14.84,0,0,0-.07,1.53c0,.22,0,.32-.12.32s-.12-.07-.14-.18a2.39,2.39,0,0,0-.22-.72c-.1-.17-.59-.71-1.94-.71-1.08,0-2,.54-2,1.56s.45,1.45,1.93,2.45l.43.29c1.82,1.24,2.45,2.24,2.45,3.48a2.84,2.84,0,0,1-1.4,2.47,4.56,4.56,0,0,1-2.38.51A5.46,5.46,0,0,1,98,42Z" transform="translate(-6.32 -8.71)" style="fill:#a1203b"/><path d="M108.25,40.84a5.43,5.43,0,0,1-1.82-4.28,5.73,5.73,0,0,1,1.69-4,6.19,6.19,0,0,1,4.55-1.54,14.54,14.54,0,0,1,2.18.17,11.27,11.27,0,0,0,1.53.22c.15,0,.18.07.18.15s0,.29-.06.82,0,1.27,0,1.48-.08.3-.17.3-.12-.1-.12-.3a1.89,1.89,0,0,0-.63-1.45,4.85,4.85,0,0,0-2.94-.8,4.54,4.54,0,0,0-3.36,1,4.69,4.69,0,0,0-1.35,3.77,5.25,5.25,0,0,0,5.39,5.23,3.16,3.16,0,0,0,2.47-.68,2.81,2.81,0,0,0,.58-1.2c0-.16,0-.21.15-.21s.13.11.13.21a15.37,15.37,0,0,1-.35,1.85c-.09.27-.12.32-.38.43a9.08,9.08,0,0,1-2.7.32A7.05,7.05,0,0,1,108.25,40.84Z" transform="translate(-6.32 -8.71)" style="fill:#a1203b"/><path d="M121.53,38c0,1.4,0,2.54.07,3.13.05.43.1.7.54.77a6.75,6.75,0,0,0,.68.06.12.12,0,0,1,.12.12c0,.07-.07.12-.24.12-.83,0-1.8-.05-1.87-.05s-1,.05-1.48.05c-.15,0-.24,0-.24-.12a.12.12,0,0,1,.12-.12,2.32,2.32,0,0,0,.46-.06c.29-.07.34-.34.39-.77.07-.59.09-1.73.09-3.13V35.45c0-2.24,0-2.65,0-3.11s-.15-.71-.47-.78a3.17,3.17,0,0,0-.46,0,.13.13,0,0,1-.12-.12c0-.08.07-.12.24-.12.49,0,1.43,0,1.51,0s1,0,1.5,0c.17,0,.23,0,.23.12a.14.14,0,0,1-.11.12,1.9,1.9,0,0,0-.38,0c-.41.09-.49.29-.53.8s0,.87,0,3.11Z" transform="translate(-6.32 -8.71)" style="fill:#a1203b"/><path d="M126.44,35.45c0-2.24,0-2.65,0-3.11s-.12-.73-.62-.8l-.5,0a.14.14,0,0,1-.12-.12c0-.08.06-.12.23-.12.68,0,1.65,0,1.74,0s3.23,0,3.57,0a6.8,6.8,0,0,0,.68-.09c.07,0,.13-.07.2-.07s.07.07.07.14a5.8,5.8,0,0,0-.12.68c0,.13,0,.78-.08,1s-.07.15-.14.15-.12-.07-.12-.18a1.77,1.77,0,0,0-.08-.51c-.11-.24-.26-.34-1.08-.45-.25,0-2-.05-2.15-.05s-.09.05-.09.16V36c0,.1,0,.16.09.16s2.15,0,2.49,0a1.17,1.17,0,0,0,.74-.2c.1-.1.17-.19.22-.19s.08,0,.08.12-.08.32-.12.8c0,.29-.07.83-.07.93s0,.28-.13.28-.1-.06-.1-.14a1.27,1.27,0,0,0-.07-.48c-.05-.2-.19-.37-.77-.44-.4,0-2-.07-2.26-.07-.08,0-.1.05-.1.11V38c0,.5,0,2.18,0,2.47,0,1,.31,1.15,1.79,1.15a5,5,0,0,0,1.49-.15,1.08,1.08,0,0,0,.68-1c0-.17.07-.22.15-.22s.11.12.11.22a11,11,0,0,1-.21,1.39c-.1.38-.25.38-.83.38-1.12,0-2,0-2.6-.06s-1,0-1.24,0c0,0-.33,0-.65,0l-.87,0c-.15,0-.23,0-.23-.12a.11.11,0,0,1,.12-.12c.13,0,.32-.05.45-.06.29-.06.33-.34.4-.77a31.27,31.27,0,0,0,.08-3.13Z" transform="translate(-6.32 -8.71)" style="fill:#a1203b"/><path d="M136.44,40.23c0,1.19.17,1.55.57,1.65a3.46,3.46,0,0,0,.75.08.12.12,0,0,1,.12.12c0,.09-.1.12-.27.12-.85,0-1.45-.05-1.58-.05s-.77.05-1.45.05c-.15,0-.23,0-.23-.12a.11.11,0,0,1,.11-.12,2.27,2.27,0,0,0,.62-.08c.37-.1.42-.5.42-1.8V31.8c0-.58.09-.73.21-.73s.42.29.57.44,2.42,2.55,4.73,4.93c1.48,1.53,3.08,3.25,3.53,3.72l-.15-7.24c0-.94-.1-1.26-.56-1.34a4.94,4.94,0,0,0-.73-.07.12.12,0,0,1-.12-.14c0-.08.12-.1.29-.1.68,0,1.39,0,1.56,0s.67,0,1.28,0c.15,0,.27,0,.27.1a.17.17,0,0,1-.17.14,1.93,1.93,0,0,0-.36,0c-.49.11-.52.39-.52,1.26l0,8.47c0,.95,0,1-.12,1s-.3-.12-1.13-.88c-.16-.14-2.32-2.26-3.9-3.91-1.73-1.82-3.41-3.59-3.87-4.1Z" transform="translate(-6.32 -8.71)" style="fill:#a1203b"/><path d="M149.85,40.84A5.43,5.43,0,0,1,148,36.56a5.75,5.75,0,0,1,1.68-4,6.2,6.2,0,0,1,4.56-1.54,14.74,14.74,0,0,1,2.18.17,11.37,11.37,0,0,0,1.52.22c.16,0,.19.07.19.15s0,.29-.07.82,0,1.27,0,1.48-.09.3-.17.3-.12-.1-.12-.3a1.89,1.89,0,0,0-.63-1.45,4.85,4.85,0,0,0-2.94-.8,4.54,4.54,0,0,0-3.36,1,4.69,4.69,0,0,0-1.35,3.77,5.25,5.25,0,0,0,5.39,5.23,3.16,3.16,0,0,0,2.47-.68,2.67,2.67,0,0,0,.57-1.2c0-.16.05-.21.16-.21s.13.11.13.21a15.37,15.37,0,0,1-.35,1.85c-.09.27-.12.32-.38.43a9.08,9.08,0,0,1-2.7.32A7.05,7.05,0,0,1,149.85,40.84Z" transform="translate(-6.32 -8.71)" style="fill:#a1203b"/><path d="M161.77,35.45c0-2.24,0-2.65,0-3.11s-.12-.73-.61-.8l-.51,0a.15.15,0,0,1-.12-.12c0-.08.07-.12.24-.12.68,0,1.65,0,1.73,0s3.23,0,3.57,0a6.8,6.8,0,0,0,.68-.09.86.86,0,0,1,.21-.07c.05,0,.06.07.06.14s-.08.27-.11.68c0,.13-.06.78-.09,1s-.07.15-.14.15-.11-.07-.11-.18a1.52,1.52,0,0,0-.09-.51c-.1-.24-.25-.34-1.07-.45-.25,0-2-.05-2.16-.05s-.08.05-.08.16V36c0,.1,0,.16.08.16s2.16,0,2.5,0,.58,0,.73-.2.17-.19.22-.19.09,0,.09.12a6.35,6.35,0,0,0-.12.8c0,.29-.07.83-.07.93s0,.28-.14.28-.1-.06-.1-.14a1.27,1.27,0,0,0-.07-.48c-.05-.2-.18-.37-.76-.44-.41,0-2-.07-2.26-.07-.09,0-.1.05-.1.11V38c0,.5,0,2.18,0,2.47,0,1,.3,1.15,1.78,1.15a5.1,5.1,0,0,0,1.5-.15,1.1,1.1,0,0,0,.68-1c0-.17.06-.22.15-.22s.1.12.1.22a12.81,12.81,0,0,1-.2,1.39c-.1.38-.26.38-.84.38-1.12,0-2,0-2.6-.06s-1,0-1.24,0c0,0-.32,0-.64,0l-.87,0c-.15,0-.24,0-.24-.12a.12.12,0,0,1,.12-.12c.14,0,.32-.05.46-.06.29-.06.32-.34.39-.77a27.81,27.81,0,0,0,.09-3.13Z" transform="translate(-6.32 -8.71)" style="fill:#a1203b"/><path d="M6.85,61.47v-10h1v10Z" transform="translate(-6.32 -8.71)" style="fill:#a1203b"/><path d="M15.06,61.47V56.6c0-.92-.23-1.91-1.65-1.91a2.16,2.16,0,0,0-2.15,1.94v4.84h-1V54h.95v1.12h0a3.05,3.05,0,0,1,2.39-1.28c1.72,0,2.37,1,2.37,2.52v5.14Z" transform="translate(-6.32 -8.71)" style="fill:#a1203b"/><path d="M20.77,61.65c-1.24,0-1.69-.66-1.69-1.78V54.81H17.28V54h1.81l0-1.95,1-.14,0,2.09h2.1v.84h-2.1v4.95c0,.65.25,1.07.93,1.07a3.51,3.51,0,0,0,1.12-.27l.06.78A3.75,3.75,0,0,1,20.77,61.65Z" transform="translate(-6.32 -8.71)" style="fill:#a1203b"/><path d="M29.23,57.93H24.4v.37c0,1.28.57,2.48,2.22,2.48a4.5,4.5,0,0,0,2.22-.58l.06.87a4.59,4.59,0,0,1-2.37.57c-2.5,0-3.13-1.68-3.13-3.92s1-3.91,3.13-3.91c1.28,0,2.73.53,2.73,3.3C29.26,57.24,29.23,57.93,29.23,57.93Zm-2.71-3.31c-1.49,0-2.12,1.27-2.12,2.52h3.9C28.3,55.82,28,54.62,26.52,54.62Z" transform="translate(-6.32 -8.71)" style="fill:#a1203b"/><path d="M34.6,54.78a2.57,2.57,0,0,0-.42,0A2.12,2.12,0,0,0,32.1,56.8v4.67h-1V54h.93v1.24h0a2.55,2.55,0,0,1,2.28-1.4h.3Z" transform="translate(-6.32 -8.71)" style="fill:#a1203b"/><path d="M41,61.47V56.6c0-.92-.23-1.91-1.65-1.91a2.16,2.16,0,0,0-2.15,1.94v4.84h-1V54h.95v1.12h0a3.05,3.05,0,0,1,2.39-1.28c1.72,0,2.37,1,2.37,2.52v5.14Z" transform="translate(-6.32 -8.71)" style="fill:#a1203b"/><path d="M48.57,61.47l-.08-1.17h0a2.9,2.9,0,0,1-2.39,1.34,2,2,0,0,1-2.26-2.1c0-1.47,1.18-2.45,3.28-2.45a9.27,9.27,0,0,1,1.37.11v-1c0-1.06-.66-1.52-1.79-1.52a5,5,0,0,0-2.22.6l-.06-.87a5,5,0,0,1,2.46-.57c1.53,0,2.55.6,2.55,2.4v3.21c0,1.23.08,2,.08,2ZM48.48,58a7.6,7.6,0,0,0-1.4-.11c-1,0-2.26.39-2.26,1.61a1.29,1.29,0,0,0,1.44,1.33,2.37,2.37,0,0,0,2.22-2.26Z" transform="translate(-6.32 -8.71)" style="fill:#a1203b"/><path d="M54.25,61.65c-1.24,0-1.69-.66-1.69-1.78V54.81H50.76V54h1.81l0-1.95,1-.14,0,2.09h2.1v.84h-2.1v4.95c0,.65.25,1.07.93,1.07a3.51,3.51,0,0,0,1.12-.27l.06.78A3.75,3.75,0,0,1,54.25,61.65Z" transform="translate(-6.32 -8.71)" style="fill:#a1203b"/><path d="M57.9,52.52a.73.73,0,1,1,.73-.73A.73.73,0,0,1,57.9,52.52Zm-.47,8.95V54h1v7.5Z" transform="translate(-6.32 -8.71)" style="fill:#a1203b"/><path d="M63.48,61.64c-2.27,0-3.08-1.52-3.08-3.89s.87-3.94,3.14-3.94,3.07,1.51,3.07,3.88S65.76,61.64,63.48,61.64Zm2.14-4.44c0-1.62-.76-2.55-2.1-2.55s-2.11,1-2.11,2.61v1c0,1.62.76,2.55,2.08,2.55s2.13-1,2.13-2.61Z" transform="translate(-6.32 -8.71)" style="fill:#a1203b"/><path d="M73.36,61.47V56.6c0-.92-.22-1.91-1.65-1.91a2.16,2.16,0,0,0-2.14,1.94v4.84h-1V54h.94v1.12h0A3,3,0,0,1,72,53.81c1.73,0,2.37,1,2.37,2.52v5.14Z" transform="translate(-6.32 -8.71)" style="fill:#a1203b"/><path d="M80.89,61.47l-.07-1.17h0a2.9,2.9,0,0,1-2.38,1.34,2,2,0,0,1-2.27-2.1c0-1.47,1.19-2.45,3.29-2.45a9,9,0,0,1,1.36.11v-1c0-1.06-.66-1.52-1.78-1.52a4.93,4.93,0,0,0-2.22.6l-.06-.87a5,5,0,0,1,2.46-.57c1.53,0,2.55.6,2.55,2.4v3.21c0,1.23.07,2,.07,2ZM80.8,58a7.41,7.41,0,0,0-1.39-.11c-1,0-2.27.39-2.27,1.61a1.29,1.29,0,0,0,1.44,1.33,2.36,2.36,0,0,0,2.22-2.26Z" transform="translate(-6.32 -8.71)" style="fill:#a1203b"/><path d="M84.19,61.47V50.9h1V61.47Z" transform="translate(-6.32 -8.71)" style="fill:#a1203b"/><path d="M99.31,61.47l-.39-8.76h0L95.65,58.8,92.4,52.71h0L92,61.47h-.94l.54-10H92.7l2.94,5.44h0l3-5.44h1.11l.54,10Z" transform="translate(-6.32 -8.71)" style="fill:#a1203b"/><path d="M106.8,61.47l-.08-1.17h0a2.9,2.9,0,0,1-2.39,1.34,2,2,0,0,1-2.26-2.1c0-1.47,1.18-2.45,3.28-2.45a9.27,9.27,0,0,1,1.37.11v-1c0-1.06-.66-1.52-1.79-1.52a5,5,0,0,0-2.22.6l-.06-.87a5,5,0,0,1,2.46-.57c1.53,0,2.55.6,2.55,2.4v3.21c0,1.23.08,2,.08,2ZM106.71,58a7.6,7.6,0,0,0-1.4-.11c-1,0-2.26.39-2.26,1.61a1.29,1.29,0,0,0,1.44,1.33,2.37,2.37,0,0,0,2.22-2.26Z" transform="translate(-6.32 -8.71)" style="fill:#a1203b"/><path d="M114.6,61.47l-2.13-3.16h0l-2.17,3.16h-1.14l2.73-3.9L109.32,54h1.17l2,2.91h0l2-2.91h1.14l-2.54,3.65,2.72,3.85Z" transform="translate(-6.32 -8.71)" style="fill:#a1203b"/><path d="M123.34,57.47h-1.45v4h-1v-10h2.67c2,0,3.27.88,3.27,2.89S125.62,57.47,123.34,57.47Zm.17-5.12h-1.62v4.24h1.36c2,0,2.58-.85,2.58-2.15S125.1,52.35,123.51,52.35Z" transform="translate(-6.32 -8.71)" style="fill:#a1203b"/><path d="M128.7,61.47V50.9h1V61.47Z" transform="translate(-6.32 -8.71)" style="fill:#a1203b"/><path d="M136.27,61.47l-.07-1.17h0a2.9,2.9,0,0,1-2.38,1.34,2,2,0,0,1-2.27-2.1c0-1.47,1.19-2.45,3.29-2.45a9,9,0,0,1,1.36.11v-1c0-1.06-.66-1.52-1.78-1.52a4.93,4.93,0,0,0-2.22.6l-.06-.87a5,5,0,0,1,2.46-.57c1.53,0,2.55.6,2.55,2.4v3.21c0,1.23.07,2,.07,2ZM136.18,58a7.41,7.41,0,0,0-1.39-.11c-1,0-2.27.39-2.27,1.61A1.29,1.29,0,0,0,134,60.81a2.36,2.36,0,0,0,2.22-2.26Z" transform="translate(-6.32 -8.71)" style="fill:#a1203b"/><path d="M144.3,61.47V56.6c0-.92-.23-1.91-1.65-1.91a2.16,2.16,0,0,0-2.15,1.94v4.84h-1V54h1v1.12h0a3.05,3.05,0,0,1,2.39-1.28c1.72,0,2.37,1,2.37,2.52v5.14Z" transform="translate(-6.32 -8.71)" style="fill:#a1203b"/><path d="M149.94,61.64c-2.13,0-2.81-1.61-2.81-3.9s.78-3.93,2.94-3.93a3.53,3.53,0,0,1,1.76.45l-.06.87a3.87,3.87,0,0,0-1.73-.46c-1.09,0-1.9.92-1.9,2.57v1c0,1.67.91,2.55,1.93,2.55a3.4,3.4,0,0,0,1.74-.49l.06.87A3.47,3.47,0,0,1,149.94,61.64Z" transform="translate(-6.32 -8.71)" style="fill:#a1203b"/><path d="M158.49,61.47c-2.09-2.11-3.77-3.92-3.77-3.92h0v3.92h-1V50.9h1v6.42h0L157.87,54h1.31l-3.33,3.41s1.41,1.47,4,4.09Z" transform="translate(-6.32 -8.71)" style="fill:#a1203b"/><path d="M170.2,61.47l-1.3-3.25a1.48,1.48,0,0,0-1.35-1h-1.7v4.27h-1v-10h2.89c2,0,3.12.84,3.12,2.78a2.47,2.47,0,0,1-2.1,2.55h0a1.26,1.26,0,0,1,.89.84l1.66,3.82Zm-2.5-9.12h-1.85v4h1.59c1.65,0,2.43-.78,2.43-2S169.23,52.35,167.7,52.35Z" transform="translate(-6.32 -8.71)" style="fill:#a1203b"/><path d="M178.18,57.93h-4.83v.37c0,1.28.57,2.48,2.22,2.48a4.5,4.5,0,0,0,2.22-.58l.06.87a4.59,4.59,0,0,1-2.37.57c-2.5,0-3.13-1.68-3.13-3.92s1-3.91,3.13-3.91c1.28,0,2.73.53,2.73,3.3C178.21,57.24,178.18,57.93,178.18,57.93Zm-2.71-3.31c-1.49,0-2.12,1.27-2.12,2.52h3.9C177.25,55.82,177,54.62,175.47,54.62Z" transform="translate(-6.32 -8.71)" style="fill:#a1203b"/><path d="M181.77,61.64a4,4,0,0,1-2-.53l.06-.88a3.77,3.77,0,0,0,2,.58c1.27,0,1.77-.57,1.77-1.27s-.63-1.11-1.58-1.49l-.48-.19c-1-.39-1.74-.93-1.74-2.09s.74-2,2.52-2a3.53,3.53,0,0,1,1.88.48l-.06.9a3.53,3.53,0,0,0-1.82-.56c-1.08,0-1.53.44-1.53,1.07s.5,1,1.55,1.44l.48.2c1.05.41,1.75.94,1.75,2.11S183.64,61.64,181.77,61.64Z" transform="translate(-6.32 -8.71)" style="fill:#a1203b"/><path d="M191.85,57.93H187v.37c0,1.28.57,2.48,2.22,2.48a4.56,4.56,0,0,0,2.22-.58l.06.87a4.59,4.59,0,0,1-2.37.57c-2.51,0-3.14-1.68-3.14-3.92s1-3.91,3.14-3.91c1.27,0,2.73.53,2.73,3.3C191.88,57.24,191.85,57.93,191.85,57.93Zm-2.72-3.31c-1.48,0-2.11,1.27-2.11,2.52h3.9C190.92,55.82,190.63,54.62,189.13,54.62Z" transform="translate(-6.32 -8.71)" style="fill:#a1203b"/><path d="M198,61.47l-.07-1.17h0a2.9,2.9,0,0,1-2.38,1.34,2,2,0,0,1-2.27-2.1c0-1.47,1.19-2.45,3.29-2.45a9,9,0,0,1,1.36.11v-1c0-1.06-.66-1.52-1.78-1.52a4.93,4.93,0,0,0-2.22.6l-.06-.87a5,5,0,0,1,2.46-.57c1.53,0,2.55.6,2.55,2.4v3.21c0,1.23.07,2,.07,2ZM197.92,58a7.41,7.41,0,0,0-1.39-.11c-1,0-2.27.39-2.27,1.61a1.29,1.29,0,0,0,1.44,1.33,2.36,2.36,0,0,0,2.22-2.26Z" transform="translate(-6.32 -8.71)" style="fill:#a1203b"/><path d="M204.72,54.78a2.57,2.57,0,0,0-.42,0,2.12,2.12,0,0,0-2.09,2.06v4.67h-1V54h.93v1.24h0a2.55,2.55,0,0,1,2.28-1.4h.3Z" transform="translate(-6.32 -8.71)" style="fill:#a1203b"/><path d="M208.74,61.64c-2.13,0-2.81-1.61-2.81-3.9s.78-3.93,2.94-3.93a3.53,3.53,0,0,1,1.76.45l-.06.87a3.87,3.87,0,0,0-1.73-.46c-1.09,0-1.9.92-1.9,2.57v1c0,1.67.91,2.55,1.93,2.55a3.4,3.4,0,0,0,1.74-.49l.06.87A3.47,3.47,0,0,1,208.74,61.64Z" transform="translate(-6.32 -8.71)" style="fill:#a1203b"/><path d="M217.3,61.47V56.6c0-.92-.22-1.91-1.65-1.91a2.16,2.16,0,0,0-2.14,1.94v4.84h-1V50.9h1v4.15h0a3.1,3.1,0,0,1,2.37-1.24c1.73,0,2.37,1,2.37,2.52v5.14Z" transform="translate(-6.32 -8.71)" style="fill:#a1203b"/><path d="M226.39,61.64a5.58,5.58,0,0,1-2.55-.57l.06-1a5.13,5.13,0,0,0,2.43.66c1.59,0,2.39-.8,2.39-1.83s-.93-1.59-2.06-2l-.34-.12c-1.34-.51-2.4-1.18-2.4-2.86s1.23-2.57,3.15-2.57a5,5,0,0,1,2.22.47l-.06,1a5.07,5.07,0,0,0-2.1-.54c-1.29,0-2.19.47-2.19,1.64s.75,1.48,1.95,1.93l.36.14c1.5.57,2.49,1.38,2.49,2.94S228.55,61.64,226.39,61.64Z" transform="translate(-6.32 -8.71)" style="fill:#a1203b"/><path d="M234.06,61.64c-2.13,0-2.81-1.61-2.81-3.9s.78-3.93,2.94-3.93a3.57,3.57,0,0,1,1.76.45l-.07.87a3.83,3.83,0,0,0-1.72-.46c-1.09,0-1.91.92-1.91,2.57v1c0,1.67.92,2.55,1.94,2.55a3.4,3.4,0,0,0,1.74-.49l.06.87A3.47,3.47,0,0,1,234.06,61.64Z" transform="translate(-6.32 -8.71)" style="fill:#a1203b"/><path d="M242.62,61.47V56.6c0-.92-.23-1.91-1.65-1.91a2.15,2.15,0,0,0-2.14,1.94v4.84h-1V50.9h1v4.15h0a3.1,3.1,0,0,1,2.37-1.24c1.72,0,2.37,1,2.37,2.52v5.14Z" transform="translate(-6.32 -8.71)" style="fill:#a1203b"/><path d="M248.58,61.64c-2.27,0-3.08-1.52-3.08-3.89s.87-3.94,3.13-3.94,3.08,1.51,3.08,3.88S250.85,61.64,248.58,61.64Zm2.14-4.44c0-1.62-.76-2.55-2.1-2.55s-2.12,1-2.12,2.61v1c0,1.62.77,2.55,2.09,2.55s2.13-1,2.13-2.61Z" transform="translate(-6.32 -8.71)" style="fill:#a1203b"/><path d="M256.36,61.64c-2.27,0-3.07-1.52-3.07-3.89s.87-3.94,3.13-3.94,3.08,1.51,3.08,3.88S258.64,61.64,256.36,61.64Zm2.14-4.44c0-1.62-.76-2.55-2.09-2.55s-2.12,1-2.12,2.61v1c0,1.62.76,2.55,2.09,2.55s2.12-1,2.12-2.61Z" transform="translate(-6.32 -8.71)" style="fill:#a1203b"/><path d="M261.52,61.47V50.9h1V61.47Z" transform="translate(-6.32 -8.71)" style="fill:#a1203b"/></svg>