<?xml version="1.0" encoding="utf-8" standalone="no"?>
<!DOCTYPE svg PUBLIC "-//W3C//DTD SVG 1.1//EN"
  "http://www.w3.org/Graphics/SVG/1.1/DTD/svg11.dtd">
<svg xmlns:xlink="http://www.w3.org/1999/xlink" width="360pt" height="288pt" viewBox="0 0 360 288" xmlns="http://www.w3.org/2000/svg" version="1.1">
 <metadata>
  <rdf:RDF xmlns:dc="http://purl.org/dc/elements/1.1/" xmlns:cc="http://creativecommons.org/ns#" xmlns:rdf="http://www.w3.org/1999/02/22-rdf-syntax-ns#">
   <cc:Work>
    <dc:type rdf:resource="http://purl.org/dc/dcmitype/StillImage"/>
    <dc:date>2022-05-30T18:14:45.058535</dc:date>
    <dc:format>image/svg+xml</dc:format>
    <dc:creator>
     <cc:Agent>
      <dc:title>Matplotlib v3.5.0, https://matplotlib.org/</dc:title>
     </cc:Agent>
    </dc:creator>
   </cc:Work>
  </rdf:RDF>
 </metadata>
 <defs>
  <style type="text/css">*{stroke-linejoin: round; stroke-linecap: butt}</style>
 </defs>
 <g id="figure_1">
  <g id="patch_1">
   <path d="M 0 288 
L 360 288 
L 360 0 
L 0 0 
L 0 288 
z
" style="fill: none"/>
  </g>
  <g id="axes_1">
   <g id="patch_2">
    <path d="M 0 288 
L 288 288 
L 288 0 
L 0 0 
L 0 288 
z
" style="fill: none"/>
   </g>
   <g id="matplotlib.axis_1"/>
   <g id="matplotlib.axis_2"/>
   <g id="QuadMesh_1">
    <path d="M 0 288 
L 144 288 
L 144 144 
L 0 144 
L 0 288 
" clip-path="url(#pce9c543d8f)" style="fill: #ffffff"/>
    <path d="M 144 288 
L 288 288 
L 288 144 
L 144 144 
L 144 288 
" clip-path="url(#pce9c543d8f)" style="fill: #ffffff"/>
    <path d="M 0 144 
L 144 144 
L 144 0 
L 0 0 
L 0 144 
" clip-path="url(#pce9c543d8f)" style="fill: #ffffff"/>
    <path d="M 144 144 
L 288 144 
L 288 0 
L 144 0 
L 144 144 
" clip-path="url(#pce9c543d8f)" style="fill: #ffffff"/>
   </g>
   <g id="PatchCollection_1">
    <path d="M 72 132.48 
L 84.470766 110.88 
L 59.529234 110.88 
L 72 132.48 
z
" clip-path="url(#pce9c543d8f)" style="fill: none; stroke: #000000; stroke-width: 0.5"/>
    <path d="M 129.6 70.56 
L 108 58.089234 
L 108 83.030766 
L 129.6 70.56 
z
" clip-path="url(#pce9c543d8f)" style="fill: none; stroke: #000000; stroke-width: 0.5"/>
    <path d="M 72 155.52 
L 59.529234 177.12 
L 84.470766 177.12 
L 72 155.52 
z
" clip-path="url(#pce9c543d8f)" style="fill: none; stroke: #000000; stroke-width: 0.5"/>
    <path d="M 129.6 214.56 
L 108 202.089234 
L 108 227.030766 
L 129.6 214.56 
z
" clip-path="url(#pce9c543d8f)" style="fill: none; stroke: #000000; stroke-width: 0.5"/>
    <path d="M 216 155.52 
L 203.529234 177.12 
L 228.470766 177.12 
L 216 155.52 
z
" clip-path="url(#pce9c543d8f)" style="fill: none; stroke: #000000; stroke-width: 0.5"/>
    <path d="M 158.4 214.56 
L 180 227.030766 
L 180 202.089234 
L 158.4 214.56 
z
" clip-path="url(#pce9c543d8f)" style="fill: none; stroke: #000000; stroke-width: 0.5"/>
   </g>
   <g id="PathCollection_1">
    <defs>
     <path id="m4a4eecfd89" d="M 1.760784 -11.371934 
Q 5.023844 -11.371934 6.560262 -7.908896 
Q 6.760241 -7.118738 6.804138 -6.265172 
Q 6.804138 -4.480001 4.975069 -2.041241 
L 4.062973 -1.129146 
L 4.10687 -1.129146 
Q 5.233577 -1.55349 6.516365 -1.55349 
L 6.804138 -1.55349 
Q 10.433012 -1.55349 11.896267 1.524225 
Q 12.247449 2.528993 12.247449 3.445967 
Q 12.247449 6.572456 9.062429 8.15765 
Q 8.452739 8.338118 7.36993 8.430791 
Q 3.682526 8.430791 2.141231 4.255635 
L 2.097333 4.255635 
L 2.097333 4.392205 
Q 2.097333 9.620905 3.345978 11.279261 
L 3.345978 11.371934 
L 0.175591 11.371934 
L 0.082918 11.279261 
Q 1.380338 9.328254 1.380338 4.255635 
L 1.380338 4.20686 
L 1.331563 4.20686 
Q -0.190223 8.430791 -3.926402 8.430791 
Q -6.838281 8.430791 -8.389332 5.367709 
Q -8.769778 4.328798 -8.769778 3.445967 
Q -8.769778 -0.104867 -5.023844 -1.373021 
Q -4.014198 -1.55349 -3.238672 -1.55349 
L -3.102102 -1.55349 
Q -1.790049 -1.55349 -0.599935 -1.129146 
L -0.556037 -1.129146 
L -0.556037 -1.173043 
Q -1.838824 -2.255852 -2.277801 -3.304519 
Q -3.194775 -4.982385 -3.194775 -6.216397 
L -3.194775 -6.431008 
Q -3.194775 -9.49409 0.082918 -11.079283 
Q 1.165727 -11.371934 1.760784 -11.371934 
z
" style="stroke: #ffa500; stroke-opacity: 0.7"/>
    </defs>
    <g clip-path="url(#pce9c543d8f)">
     <use xlink:href="#m4a4eecfd89" x="216" y="72" style="fill: #ffa500; fill-opacity: 0.7; stroke: #ffa500; stroke-opacity: 0.7"/>
    </g>
   </g>
   <g id="line2d_1">
    <path d="M 0 288 
L 0 0 
" clip-path="url(#pce9c543d8f)" style="fill: none; stroke: #000000; stroke-width: 0.6; stroke-linecap: round"/>
   </g>
   <g id="line2d_2">
    <path d="M 144 288 
L 144 0 
" clip-path="url(#pce9c543d8f)" style="fill: none; stroke: #000000; stroke-width: 0.6; stroke-linecap: round"/>
   </g>
   <g id="line2d_3">
    <path d="M 0 288 
L 288 288 
" clip-path="url(#pce9c543d8f)" style="fill: none; stroke: #000000; stroke-width: 0.6; stroke-linecap: round"/>
   </g>
   <g id="line2d_4">
    <path d="M 0 144 
L 288 144 
" clip-path="url(#pce9c543d8f)" style="fill: none; stroke: #000000; stroke-width: 0.6; stroke-linecap: round"/>
   </g>
   <g id="LineCollection_1">
    <path d="M 144 144 
L 144 0 
" clip-path="url(#pce9c543d8f)" style="fill: none; stroke: #0000ff; stroke-width: 6"/>
   </g>
  </g>
  <g id="axes_2">
   <g id="patch_3">
    <path d="M 306 288 
L 320.4 288 
L 320.4 0 
L 306 0 
L 306 288 
z
" style="fill: none"/>
   </g>
   <g id="patch_4">
    <path clip-path="url(#pa9b4ad47e1)" style="fill: #ffffff; stroke: #ffffff; stroke-width: 0.01; stroke-linejoin: miter"/>
   </g>
   <g id="matplotlib.axis_3">
    <g id="ytick_1">
     <g id="line2d_5">
      <defs>
       <path id="m9f76e57b62" d="M 0 0 
L 3.5 0 
" style="stroke: #262626; stroke-width: 0.8"/>
      </defs>
      <g>
       <use xlink:href="#m9f76e57b62" x="320.4" y="288" style="fill: #262626; stroke: #262626; stroke-width: 0.8"/>
      </g>
     </g>
     <g id="text_1">
      <!-- −0.100 -->
      <g style="fill: #262626" transform="translate(327.4 291.799219)scale(0.1 -0.1)">
       <defs>
        <path id="DejaVuSans-2212" d="M 678 2272 
L 4684 2272 
L 4684 1741 
L 678 1741 
L 678 2272 
z
" transform="scale(0.015625)"/>
        <path id="DejaVuSans-30" d="M 2034 4250 
Q 1547 4250 1301 3770 
Q 1056 3291 1056 2328 
Q 1056 1369 1301 889 
Q 1547 409 2034 409 
Q 2525 409 2770 889 
Q 3016 1369 3016 2328 
Q 3016 3291 2770 3770 
Q 2525 4250 2034 4250 
z
M 2034 4750 
Q 2819 4750 3233 4129 
Q 3647 3509 3647 2328 
Q 3647 1150 3233 529 
Q 2819 -91 2034 -91 
Q 1250 -91 836 529 
Q 422 1150 422 2328 
Q 422 3509 836 4129 
Q 1250 4750 2034 4750 
z
" transform="scale(0.015625)"/>
        <path id="DejaVuSans-2e" d="M 684 794 
L 1344 794 
L 1344 0 
L 684 0 
L 684 794 
z
" transform="scale(0.015625)"/>
        <path id="DejaVuSans-31" d="M 794 531 
L 1825 531 
L 1825 4091 
L 703 3866 
L 703 4441 
L 1819 4666 
L 2450 4666 
L 2450 531 
L 3481 531 
L 3481 0 
L 794 0 
L 794 531 
z
" transform="scale(0.015625)"/>
       </defs>
       <use xlink:href="#DejaVuSans-2212"/>
       <use xlink:href="#DejaVuSans-30" x="83.789062"/>
       <use xlink:href="#DejaVuSans-2e" x="147.412109"/>
       <use xlink:href="#DejaVuSans-31" x="179.199219"/>
       <use xlink:href="#DejaVuSans-30" x="242.822266"/>
       <use xlink:href="#DejaVuSans-30" x="306.445312"/>
      </g>
     </g>
    </g>
    <g id="ytick_2">
     <g id="line2d_6">
      <g>
       <use xlink:href="#m9f76e57b62" x="320.4" y="252" style="fill: #262626; stroke: #262626; stroke-width: 0.8"/>
      </g>
     </g>
     <g id="text_2">
      <!-- −0.075 -->
      <g style="fill: #262626" transform="translate(327.4 255.799219)scale(0.1 -0.1)">
       <defs>
        <path id="DejaVuSans-37" d="M 525 4666 
L 3525 4666 
L 3525 4397 
L 1831 0 
L 1172 0 
L 2766 4134 
L 525 4134 
L 525 4666 
z
" transform="scale(0.015625)"/>
        <path id="DejaVuSans-35" d="M 691 4666 
L 3169 4666 
L 3169 4134 
L 1269 4134 
L 1269 2991 
Q 1406 3038 1543 3061 
Q 1681 3084 1819 3084 
Q 2600 3084 3056 2656 
Q 3513 2228 3513 1497 
Q 3513 744 3044 326 
Q 2575 -91 1722 -91 
Q 1428 -91 1123 -41 
Q 819 9 494 109 
L 494 744 
Q 775 591 1075 516 
Q 1375 441 1709 441 
Q 2250 441 2565 725 
Q 2881 1009 2881 1497 
Q 2881 1984 2565 2268 
Q 2250 2553 1709 2553 
Q 1456 2553 1204 2497 
Q 953 2441 691 2322 
L 691 4666 
z
" transform="scale(0.015625)"/>
       </defs>
       <use xlink:href="#DejaVuSans-2212"/>
       <use xlink:href="#DejaVuSans-30" x="83.789062"/>
       <use xlink:href="#DejaVuSans-2e" x="147.412109"/>
       <use xlink:href="#DejaVuSans-30" x="179.199219"/>
       <use xlink:href="#DejaVuSans-37" x="242.822266"/>
       <use xlink:href="#DejaVuSans-35" x="306.445312"/>
      </g>
     </g>
    </g>
    <g id="ytick_3">
     <g id="line2d_7">
      <g>
       <use xlink:href="#m9f76e57b62" x="320.4" y="216" style="fill: #262626; stroke: #262626; stroke-width: 0.8"/>
      </g>
     </g>
     <g id="text_3">
      <!-- −0.050 -->
      <g style="fill: #262626" transform="translate(327.4 219.799219)scale(0.1 -0.1)">
       <use xlink:href="#DejaVuSans-2212"/>
       <use xlink:href="#DejaVuSans-30" x="83.789062"/>
       <use xlink:href="#DejaVuSans-2e" x="147.412109"/>
       <use xlink:href="#DejaVuSans-30" x="179.199219"/>
       <use xlink:href="#DejaVuSans-35" x="242.822266"/>
       <use xlink:href="#DejaVuSans-30" x="306.445312"/>
      </g>
     </g>
    </g>
    <g id="ytick_4">
     <g id="line2d_8">
      <g>
       <use xlink:href="#m9f76e57b62" x="320.4" y="180" style="fill: #262626; stroke: #262626; stroke-width: 0.8"/>
      </g>
     </g>
     <g id="text_4">
      <!-- −0.025 -->
      <g style="fill: #262626" transform="translate(327.4 183.799219)scale(0.1 -0.1)">
       <defs>
        <path id="DejaVuSans-32" d="M 1228 531 
L 3431 531 
L 3431 0 
L 469 0 
L 469 531 
Q 828 903 1448 1529 
Q 2069 2156 2228 2338 
Q 2531 2678 2651 2914 
Q 2772 3150 2772 3378 
Q 2772 3750 2511 3984 
Q 2250 4219 1831 4219 
Q 1534 4219 1204 4116 
Q 875 4013 500 3803 
L 500 4441 
Q 881 4594 1212 4672 
Q 1544 4750 1819 4750 
Q 2544 4750 2975 4387 
Q 3406 4025 3406 3419 
Q 3406 3131 3298 2873 
Q 3191 2616 2906 2266 
Q 2828 2175 2409 1742 
Q 1991 1309 1228 531 
z
" transform="scale(0.015625)"/>
       </defs>
       <use xlink:href="#DejaVuSans-2212"/>
       <use xlink:href="#DejaVuSans-30" x="83.789062"/>
       <use xlink:href="#DejaVuSans-2e" x="147.412109"/>
       <use xlink:href="#DejaVuSans-30" x="179.199219"/>
       <use xlink:href="#DejaVuSans-32" x="242.822266"/>
       <use xlink:href="#DejaVuSans-35" x="306.445312"/>
      </g>
     </g>
    </g>
    <g id="ytick_5">
     <g id="line2d_9">
      <g>
       <use xlink:href="#m9f76e57b62" x="320.4" y="144" style="fill: #262626; stroke: #262626; stroke-width: 0.8"/>
      </g>
     </g>
     <g id="text_5">
      <!-- 0.000 -->
      <g style="fill: #262626" transform="translate(327.4 147.799219)scale(0.1 -0.1)">
       <use xlink:href="#DejaVuSans-30"/>
       <use xlink:href="#DejaVuSans-2e" x="63.623047"/>
       <use xlink:href="#DejaVuSans-30" x="95.410156"/>
       <use xlink:href="#DejaVuSans-30" x="159.033203"/>
       <use xlink:href="#DejaVuSans-30" x="222.65625"/>
      </g>
     </g>
    </g>
    <g id="ytick_6">
     <g id="line2d_10">
      <g>
       <use xlink:href="#m9f76e57b62" x="320.4" y="108" style="fill: #262626; stroke: #262626; stroke-width: 0.8"/>
      </g>
     </g>
     <g id="text_6">
      <!-- 0.025 -->
      <g style="fill: #262626" transform="translate(327.4 111.799219)scale(0.1 -0.1)">
       <use xlink:href="#DejaVuSans-30"/>
       <use xlink:href="#DejaVuSans-2e" x="63.623047"/>
       <use xlink:href="#DejaVuSans-30" x="95.410156"/>
       <use xlink:href="#DejaVuSans-32" x="159.033203"/>
       <use xlink:href="#DejaVuSans-35" x="222.65625"/>
      </g>
     </g>
    </g>
    <g id="ytick_7">
     <g id="line2d_11">
      <g>
       <use xlink:href="#m9f76e57b62" x="320.4" y="72" style="fill: #262626; stroke: #262626; stroke-width: 0.8"/>
      </g>
     </g>
     <g id="text_7">
      <!-- 0.050 -->
      <g style="fill: #262626" transform="translate(327.4 75.799219)scale(0.1 -0.1)">
       <use xlink:href="#DejaVuSans-30"/>
       <use xlink:href="#DejaVuSans-2e" x="63.623047"/>
       <use xlink:href="#DejaVuSans-30" x="95.410156"/>
       <use xlink:href="#DejaVuSans-35" x="159.033203"/>
       <use xlink:href="#DejaVuSans-30" x="222.65625"/>
      </g>
     </g>
    </g>
    <g id="ytick_8">
     <g id="line2d_12">
      <g>
       <use xlink:href="#m9f76e57b62" x="320.4" y="36" style="fill: #262626; stroke: #262626; stroke-width: 0.8"/>
      </g>
     </g>
     <g id="text_8">
      <!-- 0.075 -->
      <g style="fill: #262626" transform="translate(327.4 39.799219)scale(0.1 -0.1)">
       <use xlink:href="#DejaVuSans-30"/>
       <use xlink:href="#DejaVuSans-2e" x="63.623047"/>
       <use xlink:href="#DejaVuSans-30" x="95.410156"/>
       <use xlink:href="#DejaVuSans-37" x="159.033203"/>
       <use xlink:href="#DejaVuSans-35" x="222.65625"/>
      </g>
     </g>
    </g>
    <g id="ytick_9">
     <g id="line2d_13">
      <g>
       <use xlink:href="#m9f76e57b62" x="320.4" y="0" style="fill: #262626; stroke: #262626; stroke-width: 0.8"/>
      </g>
     </g>
     <g id="text_9">
      <!-- 0.100 -->
      <g style="fill: #262626" transform="translate(327.4 3.799219)scale(0.1 -0.1)">
       <use xlink:href="#DejaVuSans-30"/>
       <use xlink:href="#DejaVuSans-2e" x="63.623047"/>
       <use xlink:href="#DejaVuSans-31" x="95.410156"/>
       <use xlink:href="#DejaVuSans-30" x="159.033203"/>
       <use xlink:href="#DejaVuSans-30" x="222.65625"/>
      </g>
     </g>
    </g>
   </g>
   <g id="QuadMesh_2">
    <path d="M 306 288 
L 320.4 288 
L 320.4 0 
L 306 0 
L 306 288 
" clip-path="url(#pa9b4ad47e1)" style="fill: #ffffff"/>
   </g>
   <g id="LineCollection_2"/>
   <g id="patch_5">
    <path d="M 306 288 
L 313.2 288 
L 320.4 288 
L 320.4 0 
L 313.2 0 
L 306 0 
L 306 288 
z
" style="fill: none"/>
   </g>
  </g>
 </g>
 <defs>
  <clipPath id="pce9c543d8f">
   <rect x="0" y="0" width="288" height="288"/>
  </clipPath>
  <clipPath id="pa9b4ad47e1">
   <rect x="306" y="0" width="14.4" height="288"/>
  </clipPath>
 </defs>
</svg>
