<?xml version="1.0" encoding="utf-8" standalone="no"?>
<!DOCTYPE svg PUBLIC "-//W3C//DTD SVG 1.1//EN"
  "http://www.w3.org/Graphics/SVG/1.1/DTD/svg11.dtd">
<svg xmlns:xlink="http://www.w3.org/1999/xlink" width="864pt" height="144pt" viewBox="0 0 864 144" xmlns="http://www.w3.org/2000/svg" version="1.1">
 <metadata>
  <rdf:RDF xmlns:dc="http://purl.org/dc/elements/1.1/" xmlns:cc="http://creativecommons.org/ns#" xmlns:rdf="http://www.w3.org/1999/02/22-rdf-syntax-ns#">
   <cc:Work>
    <dc:type rdf:resource="http://purl.org/dc/dcmitype/StillImage"/>
    <dc:date>2022-12-06T19:57:31.869982</dc:date>
    <dc:format>image/svg+xml</dc:format>
    <dc:creator>
     <cc:Agent>
      <dc:title>Matplotlib v3.5.0, https://matplotlib.org/</dc:title>
     </cc:Agent>
    </dc:creator>
   </cc:Work>
  </rdf:RDF>
 </metadata>
 <defs>
  <style type="text/css">*{stroke-linejoin: round; stroke-linecap: butt}</style>
 </defs>
 <g id="figure_1">
  <g id="patch_1">
   <path d="M 0 144 
L 864 144 
L 864 0 
L 0 0 
L 0 144 
z
" style="fill: none"/>
  </g>
  <g id="axes_1">
   <g id="patch_2">
    <path d="M 3.00024 124.321635 
L 242.25199 124.321635 
L 242.25199 21.15774 
L 3.00024 21.15774 
L 3.00024 124.321635 
z
" style="fill: none"/>
   </g>
   <g id="matplotlib.axis_1"/>
   <g id="matplotlib.axis_2"/>
   <g id="QuadMesh_1">
    <path d="M 3.00024 124.321635 
L 50.85059 124.321635 
L 50.85059 72.739688 
L 3.00024 72.739688 
L 3.00024 124.321635 
" clip-path="url(#p739c2f5f86)" style="fill: #ffffff"/>
    <path d="M 50.85059 124.321635 
L 98.70094 124.321635 
L 98.70094 72.739688 
L 50.85059 72.739688 
L 50.85059 124.321635 
" clip-path="url(#p739c2f5f86)" style="fill: #ffffff"/>
    <path d="M 98.70094 124.321635 
L 146.55129 124.321635 
L 146.55129 72.739688 
L 98.70094 72.739688 
L 98.70094 124.321635 
" clip-path="url(#p739c2f5f86)" style="fill: #ffffff"/>
    <path d="M 146.55129 124.321635 
L 194.40164 124.321635 
L 194.40164 72.739688 
L 146.55129 72.739688 
L 146.55129 124.321635 
" clip-path="url(#p739c2f5f86)" style="fill: #ffffff"/>
    <path d="M 194.40164 124.321635 
L 242.25199 124.321635 
L 242.25199 72.739688 
L 194.40164 72.739688 
L 194.40164 124.321635 
" clip-path="url(#p739c2f5f86)" style="fill: #ffffff"/>
    <path d="M 3.00024 72.739688 
L 50.85059 72.739688 
L 50.85059 21.15774 
L 3.00024 21.15774 
L 3.00024 72.739688 
" clip-path="url(#p739c2f5f86)" style="fill: #ffffff"/>
    <path d="M 50.85059 72.739688 
L 98.70094 72.739688 
L 98.70094 21.15774 
L 50.85059 21.15774 
L 50.85059 72.739688 
" clip-path="url(#p739c2f5f86)" style="fill: #ffffff"/>
    <path d="M 98.70094 72.739688 
L 146.55129 72.739688 
L 146.55129 21.15774 
L 98.70094 21.15774 
L 98.70094 72.739688 
" clip-path="url(#p739c2f5f86)" style="fill: #ffffff"/>
    <path d="M 146.55129 72.739688 
L 194.40164 72.739688 
L 194.40164 21.15774 
L 146.55129 21.15774 
L 146.55129 72.739688 
" clip-path="url(#p739c2f5f86)" style="fill: #ffffff"/>
    <path d="M 194.40164 72.739688 
L 242.25199 72.739688 
L 242.25199 21.15774 
L 194.40164 21.15774 
L 194.40164 72.739688 
" clip-path="url(#p739c2f5f86)" style="fill: #ffffff"/>
   </g>
   <g id="PatchCollection_1">
    <path d="M 54.200115 46.432894 
L 63.530933 52.24016 
L 63.530933 40.625628 
L 54.200115 46.432894 
z
" clip-path="url(#p739c2f5f86)" style="fill: none; stroke: #000000; stroke-width: 0.5"/>
    <path d="M 95.351416 46.432894 
L 86.020597 40.625628 
L 86.020597 52.24016 
L 95.351416 46.432894 
z
" clip-path="url(#p739c2f5f86)" style="fill: none; stroke: #000000; stroke-width: 0.5"/>
    <path d="M 122.626115 70.16059 
L 128.013266 60.10211 
L 117.238965 60.10211 
L 122.626115 70.16059 
z
" clip-path="url(#p739c2f5f86)" style="fill: none; stroke: #000000; stroke-width: 0.5"/>
    <path d="M 102.050465 46.432894 
L 111.381283 52.24016 
L 111.381283 40.625628 
L 102.050465 46.432894 
z
" clip-path="url(#p739c2f5f86)" style="fill: none; stroke: #000000; stroke-width: 0.5"/>
    <path d="M 143.201766 46.432894 
L 133.870947 40.625628 
L 133.870947 52.24016 
L 143.201766 46.432894 
z
" clip-path="url(#p739c2f5f86)" style="fill: none; stroke: #000000; stroke-width: 0.5"/>
    <path d="M 149.900815 46.432894 
L 159.231633 52.24016 
L 159.231633 40.625628 
L 149.900815 46.432894 
z
" clip-path="url(#p739c2f5f86)" style="fill: none; stroke: #000000; stroke-width: 0.5"/>
    <path d="M 191.052116 46.432894 
L 181.721298 40.625628 
L 181.721298 52.24016 
L 191.052116 46.432894 
z
" clip-path="url(#p739c2f5f86)" style="fill: none; stroke: #000000; stroke-width: 0.5"/>
    <path d="M 122.626115 75.318785 
L 117.238965 85.377265 
L 128.013266 85.377265 
L 122.626115 75.318785 
z
" clip-path="url(#p739c2f5f86)" style="fill: none; stroke: #000000; stroke-width: 0.5"/>
    <path d="M 3.00024 124.321635 
L 50.85059 124.321635 
L 50.85059 72.739688 
L 3.00024 72.739688 
z
" clip-path="url(#p739c2f5f86)" style="stroke: #000000"/>
    <path d="M 50.85059 124.321635 
L 98.70094 124.321635 
L 98.70094 72.739688 
L 50.85059 72.739688 
z
" clip-path="url(#p739c2f5f86)" style="stroke: #000000"/>
    <path d="M 146.55129 124.321635 
L 194.40164 124.321635 
L 194.40164 72.739688 
L 146.55129 72.739688 
z
" clip-path="url(#p739c2f5f86)" style="stroke: #000000"/>
    <path d="M 194.40164 124.321635 
L 242.25199 124.321635 
L 242.25199 72.739688 
L 194.40164 72.739688 
z
" clip-path="url(#p739c2f5f86)" style="stroke: #000000"/>
   </g>
   <g id="PathCollection_1">
    <defs>
     <path id="m5b723ec031" d="M 1.760784 -11.371934 
Q 5.023844 -11.371934 6.560262 -7.908896 
Q 6.760241 -7.118738 6.804138 -6.265172 
Q 6.804138 -4.480001 4.975069 -2.041241 
L 4.062973 -1.129146 
L 4.10687 -1.129146 
Q 5.233577 -1.55349 6.516365 -1.55349 
L 6.804138 -1.55349 
Q 10.433012 -1.55349 11.896267 1.524225 
Q 12.247449 2.528993 12.247449 3.445967 
Q 12.247449 6.572456 9.062429 8.15765 
Q 8.452739 8.338118 7.36993 8.430791 
Q 3.682526 8.430791 2.141231 4.255635 
L 2.097333 4.255635 
L 2.097333 4.392205 
Q 2.097333 9.620905 3.345978 11.279261 
L 3.345978 11.371934 
L 0.175591 11.371934 
L 0.082918 11.279261 
Q 1.380338 9.328254 1.380338 4.255635 
L 1.380338 4.20686 
L 1.331563 4.20686 
Q -0.190223 8.430791 -3.926402 8.430791 
Q -6.838281 8.430791 -8.389332 5.367709 
Q -8.769778 4.328798 -8.769778 3.445967 
Q -8.769778 -0.104867 -5.023844 -1.373021 
Q -4.014198 -1.55349 -3.238672 -1.55349 
L -3.102102 -1.55349 
Q -1.790049 -1.55349 -0.599935 -1.129146 
L -0.556037 -1.129146 
L -0.556037 -1.173043 
Q -1.838824 -2.255852 -2.277801 -3.304519 
Q -3.194775 -4.982385 -3.194775 -6.216397 
L -3.194775 -6.431008 
Q -3.194775 -9.49409 0.082918 -11.079283 
Q 1.165727 -11.371934 1.760784 -11.371934 
z
" style="stroke: #ffa500; stroke-opacity: 0.7"/>
    </defs>
    <g clip-path="url(#p739c2f5f86)">
     <use xlink:href="#m5b723ec031" x="26.925415" y="46.948714" style="fill: #ffa500; fill-opacity: 0.7; stroke: #ffa500; stroke-opacity: 0.7"/>
    </g>
   </g>
   <g id="PathCollection_2">
    <g clip-path="url(#p739c2f5f86)">
     <use xlink:href="#m5b723ec031" x="218.326815" y="46.948714" style="fill: #ffa500; fill-opacity: 0.7; stroke: #ffa500; stroke-opacity: 0.7"/>
    </g>
   </g>
   <g id="PathCollection_3">
    <defs>
     <path id="m886840e106" d="M 0 4.472136 
C 1.186024 4.472136 2.323632 4.000923 3.162278 3.162278 
C 4.000923 2.323632 4.472136 1.186024 4.472136 0 
C 4.472136 -1.186024 4.000923 -2.323632 3.162278 -3.162278 
C 2.323632 -4.000923 1.186024 -4.472136 0 -4.472136 
C -1.186024 -4.472136 -2.323632 -4.000923 -3.162278 -3.162278 
C -4.000923 -2.323632 -4.472136 -1.186024 -4.472136 0 
C -4.472136 1.186024 -4.000923 2.323632 -3.162278 3.162278 
C -2.323632 4.000923 -1.186024 4.472136 0 4.472136 
z
" style="stroke: #008000; stroke-opacity: 0.7"/>
    </defs>
    <g clip-path="url(#p739c2f5f86)">
     <use xlink:href="#m886840e106" x="122.626115" y="98.530661" style="fill: #008000; fill-opacity: 0.7; stroke: #008000; stroke-opacity: 0.7"/>
    </g>
   </g>
   <g id="line2d_1">
    <path d="M 3.00024 124.321635 
L 3.00024 21.15774 
" clip-path="url(#p739c2f5f86)" style="fill: none; stroke: #000000; stroke-width: 0.6; stroke-linecap: round"/>
   </g>
   <g id="line2d_2">
    <path d="M 50.85059 124.321635 
L 50.85059 21.15774 
" clip-path="url(#p739c2f5f86)" style="fill: none; stroke: #000000; stroke-width: 0.6; stroke-linecap: round"/>
   </g>
   <g id="line2d_3">
    <path d="M 98.70094 124.321635 
L 98.70094 21.15774 
" clip-path="url(#p739c2f5f86)" style="fill: none; stroke: #000000; stroke-width: 0.6; stroke-linecap: round"/>
   </g>
   <g id="line2d_4">
    <path d="M 146.55129 124.321635 
L 146.55129 21.15774 
" clip-path="url(#p739c2f5f86)" style="fill: none; stroke: #000000; stroke-width: 0.6; stroke-linecap: round"/>
   </g>
   <g id="line2d_5">
    <path d="M 194.40164 124.321635 
L 194.40164 21.15774 
" clip-path="url(#p739c2f5f86)" style="fill: none; stroke: #000000; stroke-width: 0.6; stroke-linecap: round"/>
   </g>
   <g id="line2d_6">
    <path d="M 3.00024 124.321635 
L 242.25199 124.321635 
" clip-path="url(#p739c2f5f86)" style="fill: none; stroke: #000000; stroke-width: 0.6; stroke-linecap: round"/>
   </g>
   <g id="line2d_7">
    <path d="M 3.00024 72.739688 
L 242.25199 72.739688 
" clip-path="url(#p739c2f5f86)" style="fill: none; stroke: #000000; stroke-width: 0.6; stroke-linecap: round"/>
   </g>
   <g id="LineCollection_1">
    <path d="M 98.70094 72.739688 
L 146.55129 72.739688 
" clip-path="url(#p739c2f5f86)" style="fill: none; stroke: #0000ff; stroke-width: 6"/>
   </g>
   <g id="text_1">
    <!-- Initial behavioural policy -->
    <g style="fill: #262626" transform="translate(24.542365 15.15774)scale(0.16 -0.16)">
     <defs>
      <path id="DejaVuSans-49" d="M 628 4666 
L 1259 4666 
L 1259 0 
L 628 0 
L 628 4666 
z
" transform="scale(0.015625)"/>
      <path id="DejaVuSans-6e" d="M 3513 2113 
L 3513 0 
L 2938 0 
L 2938 2094 
Q 2938 2591 2744 2837 
Q 2550 3084 2163 3084 
Q 1697 3084 1428 2787 
Q 1159 2491 1159 1978 
L 1159 0 
L 581 0 
L 581 3500 
L 1159 3500 
L 1159 2956 
Q 1366 3272 1645 3428 
Q 1925 3584 2291 3584 
Q 2894 3584 3203 3211 
Q 3513 2838 3513 2113 
z
" transform="scale(0.015625)"/>
      <path id="DejaVuSans-69" d="M 603 3500 
L 1178 3500 
L 1178 0 
L 603 0 
L 603 3500 
z
M 603 4863 
L 1178 4863 
L 1178 4134 
L 603 4134 
L 603 4863 
z
" transform="scale(0.015625)"/>
      <path id="DejaVuSans-74" d="M 1172 4494 
L 1172 3500 
L 2356 3500 
L 2356 3053 
L 1172 3053 
L 1172 1153 
Q 1172 725 1289 603 
Q 1406 481 1766 481 
L 2356 481 
L 2356 0 
L 1766 0 
Q 1100 0 847 248 
Q 594 497 594 1153 
L 594 3053 
L 172 3053 
L 172 3500 
L 594 3500 
L 594 4494 
L 1172 4494 
z
" transform="scale(0.015625)"/>
      <path id="DejaVuSans-61" d="M 2194 1759 
Q 1497 1759 1228 1600 
Q 959 1441 959 1056 
Q 959 750 1161 570 
Q 1363 391 1709 391 
Q 2188 391 2477 730 
Q 2766 1069 2766 1631 
L 2766 1759 
L 2194 1759 
z
M 3341 1997 
L 3341 0 
L 2766 0 
L 2766 531 
Q 2569 213 2275 61 
Q 1981 -91 1556 -91 
Q 1019 -91 701 211 
Q 384 513 384 1019 
Q 384 1609 779 1909 
Q 1175 2209 1959 2209 
L 2766 2209 
L 2766 2266 
Q 2766 2663 2505 2880 
Q 2244 3097 1772 3097 
Q 1472 3097 1187 3025 
Q 903 2953 641 2809 
L 641 3341 
Q 956 3463 1253 3523 
Q 1550 3584 1831 3584 
Q 2591 3584 2966 3190 
Q 3341 2797 3341 1997 
z
" transform="scale(0.015625)"/>
      <path id="DejaVuSans-6c" d="M 603 4863 
L 1178 4863 
L 1178 0 
L 603 0 
L 603 4863 
z
" transform="scale(0.015625)"/>
      <path id="DejaVuSans-20" transform="scale(0.015625)"/>
      <path id="DejaVuSans-62" d="M 3116 1747 
Q 3116 2381 2855 2742 
Q 2594 3103 2138 3103 
Q 1681 3103 1420 2742 
Q 1159 2381 1159 1747 
Q 1159 1113 1420 752 
Q 1681 391 2138 391 
Q 2594 391 2855 752 
Q 3116 1113 3116 1747 
z
M 1159 2969 
Q 1341 3281 1617 3432 
Q 1894 3584 2278 3584 
Q 2916 3584 3314 3078 
Q 3713 2572 3713 1747 
Q 3713 922 3314 415 
Q 2916 -91 2278 -91 
Q 1894 -91 1617 61 
Q 1341 213 1159 525 
L 1159 0 
L 581 0 
L 581 4863 
L 1159 4863 
L 1159 2969 
z
" transform="scale(0.015625)"/>
      <path id="DejaVuSans-65" d="M 3597 1894 
L 3597 1613 
L 953 1613 
Q 991 1019 1311 708 
Q 1631 397 2203 397 
Q 2534 397 2845 478 
Q 3156 559 3463 722 
L 3463 178 
Q 3153 47 2828 -22 
Q 2503 -91 2169 -91 
Q 1331 -91 842 396 
Q 353 884 353 1716 
Q 353 2575 817 3079 
Q 1281 3584 2069 3584 
Q 2775 3584 3186 3129 
Q 3597 2675 3597 1894 
z
M 3022 2063 
Q 3016 2534 2758 2815 
Q 2500 3097 2075 3097 
Q 1594 3097 1305 2825 
Q 1016 2553 972 2059 
L 3022 2063 
z
" transform="scale(0.015625)"/>
      <path id="DejaVuSans-68" d="M 3513 2113 
L 3513 0 
L 2938 0 
L 2938 2094 
Q 2938 2591 2744 2837 
Q 2550 3084 2163 3084 
Q 1697 3084 1428 2787 
Q 1159 2491 1159 1978 
L 1159 0 
L 581 0 
L 581 4863 
L 1159 4863 
L 1159 2956 
Q 1366 3272 1645 3428 
Q 1925 3584 2291 3584 
Q 2894 3584 3203 3211 
Q 3513 2838 3513 2113 
z
" transform="scale(0.015625)"/>
      <path id="DejaVuSans-76" d="M 191 3500 
L 800 3500 
L 1894 563 
L 2988 3500 
L 3597 3500 
L 2284 0 
L 1503 0 
L 191 3500 
z
" transform="scale(0.015625)"/>
      <path id="DejaVuSans-6f" d="M 1959 3097 
Q 1497 3097 1228 2736 
Q 959 2375 959 1747 
Q 959 1119 1226 758 
Q 1494 397 1959 397 
Q 2419 397 2687 759 
Q 2956 1122 2956 1747 
Q 2956 2369 2687 2733 
Q 2419 3097 1959 3097 
z
M 1959 3584 
Q 2709 3584 3137 3096 
Q 3566 2609 3566 1747 
Q 3566 888 3137 398 
Q 2709 -91 1959 -91 
Q 1206 -91 779 398 
Q 353 888 353 1747 
Q 353 2609 779 3096 
Q 1206 3584 1959 3584 
z
" transform="scale(0.015625)"/>
      <path id="DejaVuSans-75" d="M 544 1381 
L 544 3500 
L 1119 3500 
L 1119 1403 
Q 1119 906 1312 657 
Q 1506 409 1894 409 
Q 2359 409 2629 706 
Q 2900 1003 2900 1516 
L 2900 3500 
L 3475 3500 
L 3475 0 
L 2900 0 
L 2900 538 
Q 2691 219 2414 64 
Q 2138 -91 1772 -91 
Q 1169 -91 856 284 
Q 544 659 544 1381 
z
M 1991 3584 
L 1991 3584 
z
" transform="scale(0.015625)"/>
      <path id="DejaVuSans-72" d="M 2631 2963 
Q 2534 3019 2420 3045 
Q 2306 3072 2169 3072 
Q 1681 3072 1420 2755 
Q 1159 2438 1159 1844 
L 1159 0 
L 581 0 
L 581 3500 
L 1159 3500 
L 1159 2956 
Q 1341 3275 1631 3429 
Q 1922 3584 2338 3584 
Q 2397 3584 2469 3576 
Q 2541 3569 2628 3553 
L 2631 2963 
z
" transform="scale(0.015625)"/>
      <path id="DejaVuSans-70" d="M 1159 525 
L 1159 -1331 
L 581 -1331 
L 581 3500 
L 1159 3500 
L 1159 2969 
Q 1341 3281 1617 3432 
Q 1894 3584 2278 3584 
Q 2916 3584 3314 3078 
Q 3713 2572 3713 1747 
Q 3713 922 3314 415 
Q 2916 -91 2278 -91 
Q 1894 -91 1617 61 
Q 1341 213 1159 525 
z
M 3116 1747 
Q 3116 2381 2855 2742 
Q 2594 3103 2138 3103 
Q 1681 3103 1420 2742 
Q 1159 2381 1159 1747 
Q 1159 1113 1420 752 
Q 1681 391 2138 391 
Q 2594 391 2855 752 
Q 3116 1113 3116 1747 
z
" transform="scale(0.015625)"/>
      <path id="DejaVuSans-63" d="M 3122 3366 
L 3122 2828 
Q 2878 2963 2633 3030 
Q 2388 3097 2138 3097 
Q 1578 3097 1268 2742 
Q 959 2388 959 1747 
Q 959 1106 1268 751 
Q 1578 397 2138 397 
Q 2388 397 2633 464 
Q 2878 531 3122 666 
L 3122 134 
Q 2881 22 2623 -34 
Q 2366 -91 2075 -91 
Q 1284 -91 818 406 
Q 353 903 353 1747 
Q 353 2603 823 3093 
Q 1294 3584 2113 3584 
Q 2378 3584 2631 3529 
Q 2884 3475 3122 3366 
z
" transform="scale(0.015625)"/>
      <path id="DejaVuSans-79" d="M 2059 -325 
Q 1816 -950 1584 -1140 
Q 1353 -1331 966 -1331 
L 506 -1331 
L 506 -850 
L 844 -850 
Q 1081 -850 1212 -737 
Q 1344 -625 1503 -206 
L 1606 56 
L 191 3500 
L 800 3500 
L 1894 763 
L 2988 3500 
L 3597 3500 
L 2059 -325 
z
" transform="scale(0.015625)"/>
     </defs>
     <use xlink:href="#DejaVuSans-49"/>
     <use xlink:href="#DejaVuSans-6e" x="29.492188"/>
     <use xlink:href="#DejaVuSans-69" x="92.871094"/>
     <use xlink:href="#DejaVuSans-74" x="120.654297"/>
     <use xlink:href="#DejaVuSans-69" x="159.863281"/>
     <use xlink:href="#DejaVuSans-61" x="187.646484"/>
     <use xlink:href="#DejaVuSans-6c" x="248.925781"/>
     <use xlink:href="#DejaVuSans-20" x="276.708984"/>
     <use xlink:href="#DejaVuSans-62" x="308.496094"/>
     <use xlink:href="#DejaVuSans-65" x="371.972656"/>
     <use xlink:href="#DejaVuSans-68" x="433.496094"/>
     <use xlink:href="#DejaVuSans-61" x="496.875"/>
     <use xlink:href="#DejaVuSans-76" x="558.154297"/>
     <use xlink:href="#DejaVuSans-69" x="617.333984"/>
     <use xlink:href="#DejaVuSans-6f" x="645.117188"/>
     <use xlink:href="#DejaVuSans-75" x="706.298828"/>
     <use xlink:href="#DejaVuSans-72" x="769.677734"/>
     <use xlink:href="#DejaVuSans-61" x="810.791016"/>
     <use xlink:href="#DejaVuSans-6c" x="872.070312"/>
     <use xlink:href="#DejaVuSans-20" x="899.853516"/>
     <use xlink:href="#DejaVuSans-70" x="931.640625"/>
     <use xlink:href="#DejaVuSans-6f" x="995.117188"/>
     <use xlink:href="#DejaVuSans-6c" x="1056.298828"/>
     <use xlink:href="#DejaVuSans-69" x="1084.082031"/>
     <use xlink:href="#DejaVuSans-63" x="1111.865234"/>
     <use xlink:href="#DejaVuSans-79" x="1166.845703"/>
    </g>
   </g>
  </g>
  <g id="axes_2">
   <g id="patch_3">
    <path d="M 254.214578 124.321635 
L 259.372773 124.321635 
L 259.372773 21.15774 
L 254.214578 21.15774 
L 254.214578 124.321635 
z
" style="fill: none"/>
   </g>
   <g id="patch_4">
    <path clip-path="url(#p4cdc392997)" style="fill: #ffffff; stroke: #ffffff; stroke-width: 0.01; stroke-linejoin: miter"/>
   </g>
   <g id="matplotlib.axis_3">
    <g id="ytick_1">
     <g id="line2d_8">
      <defs>
       <path id="md6300e4403" d="M 0 0 
L 3.5 0 
" style="stroke: #262626; stroke-width: 0.8"/>
      </defs>
      <g>
       <use xlink:href="#md6300e4403" x="259.372773" y="124.321635" style="fill: #262626; stroke: #262626; stroke-width: 0.8"/>
      </g>
     </g>
     <g id="text_2">
      <!-- 0.0 -->
      <g style="fill: #262626" transform="translate(266.372773 128.120854)scale(0.1 -0.1)">
       <defs>
        <path id="DejaVuSans-30" d="M 2034 4250 
Q 1547 4250 1301 3770 
Q 1056 3291 1056 2328 
Q 1056 1369 1301 889 
Q 1547 409 2034 409 
Q 2525 409 2770 889 
Q 3016 1369 3016 2328 
Q 3016 3291 2770 3770 
Q 2525 4250 2034 4250 
z
M 2034 4750 
Q 2819 4750 3233 4129 
Q 3647 3509 3647 2328 
Q 3647 1150 3233 529 
Q 2819 -91 2034 -91 
Q 1250 -91 836 529 
Q 422 1150 422 2328 
Q 422 3509 836 4129 
Q 1250 4750 2034 4750 
z
" transform="scale(0.015625)"/>
        <path id="DejaVuSans-2e" d="M 684 794 
L 1344 794 
L 1344 0 
L 684 0 
L 684 794 
z
" transform="scale(0.015625)"/>
       </defs>
       <use xlink:href="#DejaVuSans-30"/>
       <use xlink:href="#DejaVuSans-2e" x="63.623047"/>
       <use xlink:href="#DejaVuSans-30" x="95.410156"/>
      </g>
     </g>
    </g>
    <g id="ytick_2">
     <g id="line2d_9">
      <g>
       <use xlink:href="#md6300e4403" x="259.372773" y="103.688856" style="fill: #262626; stroke: #262626; stroke-width: 0.8"/>
      </g>
     </g>
     <g id="text_3">
      <!-- 0.2 -->
      <g style="fill: #262626" transform="translate(266.372773 107.488075)scale(0.1 -0.1)">
       <defs>
        <path id="DejaVuSans-32" d="M 1228 531 
L 3431 531 
L 3431 0 
L 469 0 
L 469 531 
Q 828 903 1448 1529 
Q 2069 2156 2228 2338 
Q 2531 2678 2651 2914 
Q 2772 3150 2772 3378 
Q 2772 3750 2511 3984 
Q 2250 4219 1831 4219 
Q 1534 4219 1204 4116 
Q 875 4013 500 3803 
L 500 4441 
Q 881 4594 1212 4672 
Q 1544 4750 1819 4750 
Q 2544 4750 2975 4387 
Q 3406 4025 3406 3419 
Q 3406 3131 3298 2873 
Q 3191 2616 2906 2266 
Q 2828 2175 2409 1742 
Q 1991 1309 1228 531 
z
" transform="scale(0.015625)"/>
       </defs>
       <use xlink:href="#DejaVuSans-30"/>
       <use xlink:href="#DejaVuSans-2e" x="63.623047"/>
       <use xlink:href="#DejaVuSans-32" x="95.410156"/>
      </g>
     </g>
    </g>
    <g id="ytick_3">
     <g id="line2d_10">
      <g>
       <use xlink:href="#md6300e4403" x="259.372773" y="83.056077" style="fill: #262626; stroke: #262626; stroke-width: 0.8"/>
      </g>
     </g>
     <g id="text_4">
      <!-- 0.4 -->
      <g style="fill: #262626" transform="translate(266.372773 86.855296)scale(0.1 -0.1)">
       <defs>
        <path id="DejaVuSans-34" d="M 2419 4116 
L 825 1625 
L 2419 1625 
L 2419 4116 
z
M 2253 4666 
L 3047 4666 
L 3047 1625 
L 3713 1625 
L 3713 1100 
L 3047 1100 
L 3047 0 
L 2419 0 
L 2419 1100 
L 313 1100 
L 313 1709 
L 2253 4666 
z
" transform="scale(0.015625)"/>
       </defs>
       <use xlink:href="#DejaVuSans-30"/>
       <use xlink:href="#DejaVuSans-2e" x="63.623047"/>
       <use xlink:href="#DejaVuSans-34" x="95.410156"/>
      </g>
     </g>
    </g>
    <g id="ytick_4">
     <g id="line2d_11">
      <g>
       <use xlink:href="#md6300e4403" x="259.372773" y="62.423298" style="fill: #262626; stroke: #262626; stroke-width: 0.8"/>
      </g>
     </g>
     <g id="text_5">
      <!-- 0.6 -->
      <g style="fill: #262626" transform="translate(266.372773 66.222517)scale(0.1 -0.1)">
       <defs>
        <path id="DejaVuSans-36" d="M 2113 2584 
Q 1688 2584 1439 2293 
Q 1191 2003 1191 1497 
Q 1191 994 1439 701 
Q 1688 409 2113 409 
Q 2538 409 2786 701 
Q 3034 994 3034 1497 
Q 3034 2003 2786 2293 
Q 2538 2584 2113 2584 
z
M 3366 4563 
L 3366 3988 
Q 3128 4100 2886 4159 
Q 2644 4219 2406 4219 
Q 1781 4219 1451 3797 
Q 1122 3375 1075 2522 
Q 1259 2794 1537 2939 
Q 1816 3084 2150 3084 
Q 2853 3084 3261 2657 
Q 3669 2231 3669 1497 
Q 3669 778 3244 343 
Q 2819 -91 2113 -91 
Q 1303 -91 875 529 
Q 447 1150 447 2328 
Q 447 3434 972 4092 
Q 1497 4750 2381 4750 
Q 2619 4750 2861 4703 
Q 3103 4656 3366 4563 
z
" transform="scale(0.015625)"/>
       </defs>
       <use xlink:href="#DejaVuSans-30"/>
       <use xlink:href="#DejaVuSans-2e" x="63.623047"/>
       <use xlink:href="#DejaVuSans-36" x="95.410156"/>
      </g>
     </g>
    </g>
    <g id="ytick_5">
     <g id="line2d_12">
      <g>
       <use xlink:href="#md6300e4403" x="259.372773" y="41.790519" style="fill: #262626; stroke: #262626; stroke-width: 0.8"/>
      </g>
     </g>
     <g id="text_6">
      <!-- 0.8 -->
      <g style="fill: #262626" transform="translate(266.372773 45.589738)scale(0.1 -0.1)">
       <defs>
        <path id="DejaVuSans-38" d="M 2034 2216 
Q 1584 2216 1326 1975 
Q 1069 1734 1069 1313 
Q 1069 891 1326 650 
Q 1584 409 2034 409 
Q 2484 409 2743 651 
Q 3003 894 3003 1313 
Q 3003 1734 2745 1975 
Q 2488 2216 2034 2216 
z
M 1403 2484 
Q 997 2584 770 2862 
Q 544 3141 544 3541 
Q 544 4100 942 4425 
Q 1341 4750 2034 4750 
Q 2731 4750 3128 4425 
Q 3525 4100 3525 3541 
Q 3525 3141 3298 2862 
Q 3072 2584 2669 2484 
Q 3125 2378 3379 2068 
Q 3634 1759 3634 1313 
Q 3634 634 3220 271 
Q 2806 -91 2034 -91 
Q 1263 -91 848 271 
Q 434 634 434 1313 
Q 434 1759 690 2068 
Q 947 2378 1403 2484 
z
M 1172 3481 
Q 1172 3119 1398 2916 
Q 1625 2713 2034 2713 
Q 2441 2713 2670 2916 
Q 2900 3119 2900 3481 
Q 2900 3844 2670 4047 
Q 2441 4250 2034 4250 
Q 1625 4250 1398 4047 
Q 1172 3844 1172 3481 
z
" transform="scale(0.015625)"/>
       </defs>
       <use xlink:href="#DejaVuSans-30"/>
       <use xlink:href="#DejaVuSans-2e" x="63.623047"/>
       <use xlink:href="#DejaVuSans-38" x="95.410156"/>
      </g>
     </g>
    </g>
    <g id="ytick_6">
     <g id="line2d_13">
      <g>
       <use xlink:href="#md6300e4403" x="259.372773" y="21.15774" style="fill: #262626; stroke: #262626; stroke-width: 0.8"/>
      </g>
     </g>
     <g id="text_7">
      <!-- 1.0 -->
      <g style="fill: #262626" transform="translate(266.372773 24.956959)scale(0.1 -0.1)">
       <defs>
        <path id="DejaVuSans-31" d="M 794 531 
L 1825 531 
L 1825 4091 
L 703 3866 
L 703 4441 
L 1819 4666 
L 2450 4666 
L 2450 531 
L 3481 531 
L 3481 0 
L 794 0 
L 794 531 
z
" transform="scale(0.015625)"/>
       </defs>
       <use xlink:href="#DejaVuSans-31"/>
       <use xlink:href="#DejaVuSans-2e" x="63.623047"/>
       <use xlink:href="#DejaVuSans-30" x="95.410156"/>
      </g>
     </g>
    </g>
   </g>
   <g id="QuadMesh_2">
    <path d="M 254.214578 124.321635 
L 259.372773 124.321635 
L 259.372773 21.15774 
L 254.214578 21.15774 
L 254.214578 124.321635 
" clip-path="url(#p4cdc392997)" style="fill: #ffffff"/>
   </g>
   <g id="LineCollection_2"/>
   <g id="patch_5">
    <path d="M 254.214578 124.321635 
L 256.793675 124.321635 
L 259.372773 124.321635 
L 259.372773 21.15774 
L 256.793675 21.15774 
L 254.214578 21.15774 
L 254.214578 124.321635 
z
" style="fill: none"/>
   </g>
  </g>
  <g id="axes_3">
   <g id="patch_6">
    <path d="M 332.487967 124.321635 
L 571.739717 124.321635 
L 571.739717 21.15774 
L 332.487967 21.15774 
L 332.487967 124.321635 
z
" style="fill: none"/>
   </g>
   <g id="matplotlib.axis_4">
    <g id="xtick_1">
     <g id="text_8">
      <!-- 1.0 -->
      <g style="fill: #262626" transform="translate(383.745171 138.920073)scale(0.1 -0.1)">
       <use xlink:href="#DejaVuSans-31"/>
       <use xlink:href="#DejaVuSans-2e" x="63.623047"/>
       <use xlink:href="#DejaVuSans-30" x="95.410156"/>
      </g>
     </g>
    </g>
    <g id="xtick_2">
     <g id="text_9">
      <!-- 1.5 -->
      <g style="fill: #262626" transform="translate(444.162279 138.920073)scale(0.1 -0.1)">
       <defs>
        <path id="DejaVuSans-35" d="M 691 4666 
L 3169 4666 
L 3169 4134 
L 1269 4134 
L 1269 2991 
Q 1406 3038 1543 3061 
Q 1681 3084 1819 3084 
Q 2600 3084 3056 2656 
Q 3513 2228 3513 1497 
Q 3513 744 3044 326 
Q 2575 -91 1722 -91 
Q 1428 -91 1123 -41 
Q 819 9 494 109 
L 494 744 
Q 775 591 1075 516 
Q 1375 441 1709 441 
Q 2250 441 2565 725 
Q 2881 1009 2881 1497 
Q 2881 1984 2565 2268 
Q 2250 2553 1709 2553 
Q 1456 2553 1204 2497 
Q 953 2441 691 2322 
L 691 4666 
z
" transform="scale(0.015625)"/>
       </defs>
       <use xlink:href="#DejaVuSans-31"/>
       <use xlink:href="#DejaVuSans-2e" x="63.623047"/>
       <use xlink:href="#DejaVuSans-35" x="95.410156"/>
      </g>
     </g>
    </g>
    <g id="xtick_3">
     <g id="text_10">
      <!-- 2.0 -->
      <g style="fill: #262626" transform="translate(504.579388 138.920073)scale(0.1 -0.1)">
       <use xlink:href="#DejaVuSans-32"/>
       <use xlink:href="#DejaVuSans-2e" x="63.623047"/>
       <use xlink:href="#DejaVuSans-30" x="95.410156"/>
      </g>
     </g>
    </g>
   </g>
   <g id="matplotlib.axis_5">
    <g id="ytick_7">
     <g id="text_11">
      <!-- −0.050 -->
      <g style="fill: #262626" transform="translate(288.480154 123.431586)scale(0.1 -0.1)">
       <defs>
        <path id="DejaVuSans-2212" d="M 678 2272 
L 4684 2272 
L 4684 1741 
L 678 1741 
L 678 2272 
z
" transform="scale(0.015625)"/>
       </defs>
       <use xlink:href="#DejaVuSans-2212"/>
       <use xlink:href="#DejaVuSans-30" x="83.789062"/>
       <use xlink:href="#DejaVuSans-2e" x="147.412109"/>
       <use xlink:href="#DejaVuSans-30" x="179.199219"/>
       <use xlink:href="#DejaVuSans-35" x="242.822266"/>
       <use xlink:href="#DejaVuSans-30" x="306.445312"/>
      </g>
     </g>
    </g>
    <g id="ytick_8">
     <g id="text_12">
      <!-- −0.025 -->
      <g style="fill: #262626" transform="translate(288.480154 99.985246)scale(0.1 -0.1)">
       <use xlink:href="#DejaVuSans-2212"/>
       <use xlink:href="#DejaVuSans-30" x="83.789062"/>
       <use xlink:href="#DejaVuSans-2e" x="147.412109"/>
       <use xlink:href="#DejaVuSans-30" x="179.199219"/>
       <use xlink:href="#DejaVuSans-32" x="242.822266"/>
       <use xlink:href="#DejaVuSans-35" x="306.445312"/>
      </g>
     </g>
    </g>
    <g id="ytick_9">
     <g id="text_13">
      <!-- 0.000 -->
      <g style="fill: #262626" transform="translate(296.859842 76.538906)scale(0.1 -0.1)">
       <use xlink:href="#DejaVuSans-30"/>
       <use xlink:href="#DejaVuSans-2e" x="63.623047"/>
       <use xlink:href="#DejaVuSans-30" x="95.410156"/>
       <use xlink:href="#DejaVuSans-30" x="159.033203"/>
       <use xlink:href="#DejaVuSans-30" x="222.65625"/>
      </g>
     </g>
    </g>
    <g id="ytick_10">
     <g id="text_14">
      <!-- 0.025 -->
      <g style="fill: #262626" transform="translate(296.859842 53.092566)scale(0.1 -0.1)">
       <use xlink:href="#DejaVuSans-30"/>
       <use xlink:href="#DejaVuSans-2e" x="63.623047"/>
       <use xlink:href="#DejaVuSans-30" x="95.410156"/>
       <use xlink:href="#DejaVuSans-32" x="159.033203"/>
       <use xlink:href="#DejaVuSans-35" x="222.65625"/>
      </g>
     </g>
    </g>
    <g id="ytick_11">
     <g id="text_15">
      <!-- 0.050 -->
      <g style="fill: #262626" transform="translate(296.859842 29.646227)scale(0.1 -0.1)">
       <use xlink:href="#DejaVuSans-30"/>
       <use xlink:href="#DejaVuSans-2e" x="63.623047"/>
       <use xlink:href="#DejaVuSans-30" x="95.410156"/>
       <use xlink:href="#DejaVuSans-35" x="159.033203"/>
       <use xlink:href="#DejaVuSans-30" x="222.65625"/>
      </g>
     </g>
    </g>
   </g>
   <g id="patch_7">
    <path d="M 343.363046 72.739688 
L 440.03042 72.739688 
L 440.03042 72.739688 
L 343.363046 72.739688 
z
" clip-path="url(#pa2c940f57f)" style="fill: #1f77b4; stroke: #ffffff; stroke-linejoin: miter"/>
   </g>
   <g id="patch_8">
    <path d="M 464.197264 72.739688 
L 560.864637 72.739688 
L 560.864637 72.739688 
L 464.197264 72.739688 
z
" clip-path="url(#pa2c940f57f)" style="fill: #1f77b4; stroke: #ffffff; stroke-linejoin: miter"/>
   </g>
   <g id="patch_9">
    <path d="M 332.487967 124.321635 
L 332.487967 21.15774 
" style="fill: none; stroke: #262626; stroke-width: 0.8; stroke-linejoin: miter; stroke-linecap: square"/>
   </g>
   <g id="patch_10">
    <path d="M 571.739717 124.321635 
L 571.739717 21.15774 
" style="fill: none; stroke: #262626; stroke-width: 0.8; stroke-linejoin: miter; stroke-linecap: square"/>
   </g>
   <g id="patch_11">
    <path d="M 332.487967 124.321635 
L 571.739717 124.321635 
" style="fill: none; stroke: #262626; stroke-width: 0.8; stroke-linejoin: miter; stroke-linecap: square"/>
   </g>
   <g id="patch_12">
    <path d="M 332.487967 21.15774 
L 571.739717 21.15774 
" style="fill: none; stroke: #262626; stroke-width: 0.8; stroke-linejoin: miter; stroke-linecap: square"/>
   </g>
  </g>
  <g id="axes_4">
   <g id="patch_13">
    <path d="M 621.74801 124.321635 
L 860.99976 124.321635 
L 860.99976 21.15774 
L 621.74801 21.15774 
L 621.74801 124.321635 
z
" style="fill: none"/>
   </g>
   <g id="matplotlib.axis_6">
    <g id="xtick_4">
     <g id="text_16">
      <!-- 1.0 -->
      <g style="fill: #262626" transform="translate(673.005214 138.920073)scale(0.1 -0.1)">
       <use xlink:href="#DejaVuSans-31"/>
       <use xlink:href="#DejaVuSans-2e" x="63.623047"/>
       <use xlink:href="#DejaVuSans-30" x="95.410156"/>
      </g>
     </g>
    </g>
    <g id="xtick_5">
     <g id="text_17">
      <!-- 1.5 -->
      <g style="fill: #262626" transform="translate(733.422322 138.920073)scale(0.1 -0.1)">
       <use xlink:href="#DejaVuSans-31"/>
       <use xlink:href="#DejaVuSans-2e" x="63.623047"/>
       <use xlink:href="#DejaVuSans-35" x="95.410156"/>
      </g>
     </g>
    </g>
    <g id="xtick_6">
     <g id="text_18">
      <!-- 2.0 -->
      <g style="fill: #262626" transform="translate(793.839431 138.920073)scale(0.1 -0.1)">
       <use xlink:href="#DejaVuSans-32"/>
       <use xlink:href="#DejaVuSans-2e" x="63.623047"/>
       <use xlink:href="#DejaVuSans-30" x="95.410156"/>
      </g>
     </g>
    </g>
   </g>
   <g id="matplotlib.axis_7">
    <g id="ytick_12">
     <g id="text_19">
      <!-- −0.050 -->
      <g style="fill: #262626" transform="translate(577.740197 123.431586)scale(0.1 -0.1)">
       <use xlink:href="#DejaVuSans-2212"/>
       <use xlink:href="#DejaVuSans-30" x="83.789062"/>
       <use xlink:href="#DejaVuSans-2e" x="147.412109"/>
       <use xlink:href="#DejaVuSans-30" x="179.199219"/>
       <use xlink:href="#DejaVuSans-35" x="242.822266"/>
       <use xlink:href="#DejaVuSans-30" x="306.445312"/>
      </g>
     </g>
    </g>
    <g id="ytick_13">
     <g id="text_20">
      <!-- −0.025 -->
      <g style="fill: #262626" transform="translate(577.740197 99.985246)scale(0.1 -0.1)">
       <use xlink:href="#DejaVuSans-2212"/>
       <use xlink:href="#DejaVuSans-30" x="83.789062"/>
       <use xlink:href="#DejaVuSans-2e" x="147.412109"/>
       <use xlink:href="#DejaVuSans-30" x="179.199219"/>
       <use xlink:href="#DejaVuSans-32" x="242.822266"/>
       <use xlink:href="#DejaVuSans-35" x="306.445312"/>
      </g>
     </g>
    </g>
    <g id="ytick_14">
     <g id="text_21">
      <!-- 0.000 -->
      <g style="fill: #262626" transform="translate(586.119885 76.538906)scale(0.1 -0.1)">
       <use xlink:href="#DejaVuSans-30"/>
       <use xlink:href="#DejaVuSans-2e" x="63.623047"/>
       <use xlink:href="#DejaVuSans-30" x="95.410156"/>
       <use xlink:href="#DejaVuSans-30" x="159.033203"/>
       <use xlink:href="#DejaVuSans-30" x="222.65625"/>
      </g>
     </g>
    </g>
    <g id="ytick_15">
     <g id="text_22">
      <!-- 0.025 -->
      <g style="fill: #262626" transform="translate(586.119885 53.092566)scale(0.1 -0.1)">
       <use xlink:href="#DejaVuSans-30"/>
       <use xlink:href="#DejaVuSans-2e" x="63.623047"/>
       <use xlink:href="#DejaVuSans-30" x="95.410156"/>
       <use xlink:href="#DejaVuSans-32" x="159.033203"/>
       <use xlink:href="#DejaVuSans-35" x="222.65625"/>
      </g>
     </g>
    </g>
    <g id="ytick_16">
     <g id="text_23">
      <!-- 0.050 -->
      <g style="fill: #262626" transform="translate(586.119885 29.646227)scale(0.1 -0.1)">
       <use xlink:href="#DejaVuSans-30"/>
       <use xlink:href="#DejaVuSans-2e" x="63.623047"/>
       <use xlink:href="#DejaVuSans-30" x="95.410156"/>
       <use xlink:href="#DejaVuSans-35" x="159.033203"/>
       <use xlink:href="#DejaVuSans-30" x="222.65625"/>
      </g>
     </g>
    </g>
   </g>
   <g id="patch_14">
    <path d="M 632.623089 72.739688 
L 729.290463 72.739688 
L 729.290463 72.739688 
L 632.623089 72.739688 
z
" clip-path="url(#p5c2e69a5a3)" style="fill: #1f77b4; stroke: #ffffff; stroke-linejoin: miter"/>
   </g>
   <g id="patch_15">
    <path d="M 753.457307 72.739688 
L 850.12468 72.739688 
L 850.12468 72.739688 
L 753.457307 72.739688 
z
" clip-path="url(#p5c2e69a5a3)" style="fill: #1f77b4; stroke: #ffffff; stroke-linejoin: miter"/>
   </g>
   <g id="patch_16">
    <path d="M 621.74801 124.321635 
L 621.74801 21.15774 
" style="fill: none; stroke: #262626; stroke-width: 0.8; stroke-linejoin: miter; stroke-linecap: square"/>
   </g>
   <g id="patch_17">
    <path d="M 860.99976 124.321635 
L 860.99976 21.15774 
" style="fill: none; stroke: #262626; stroke-width: 0.8; stroke-linejoin: miter; stroke-linecap: square"/>
   </g>
   <g id="patch_18">
    <path d="M 621.74801 124.321635 
L 860.99976 124.321635 
" style="fill: none; stroke: #262626; stroke-width: 0.8; stroke-linejoin: miter; stroke-linecap: square"/>
   </g>
   <g id="patch_19">
    <path d="M 621.74801 21.15774 
L 860.99976 21.15774 
" style="fill: none; stroke: #262626; stroke-width: 0.8; stroke-linejoin: miter; stroke-linecap: square"/>
   </g>
  </g>
 </g>
 <defs>
  <clipPath id="p739c2f5f86">
   <rect x="3.00024" y="21.15774" width="239.25175" height="103.163895"/>
  </clipPath>
  <clipPath id="p4cdc392997">
   <rect x="254.214578" y="21.15774" width="5.158195" height="103.163895"/>
  </clipPath>
  <clipPath id="pa2c940f57f">
   <rect x="332.487967" y="21.15774" width="239.25175" height="103.163895"/>
  </clipPath>
  <clipPath id="p5c2e69a5a3">
   <rect x="621.74801" y="21.15774" width="239.25175" height="103.163895"/>
  </clipPath>
 </defs>
</svg>
